<svg width="96" height="97" viewBox="0 0 96 97" fill="none" xmlns="http://www.w3.org/2000/svg">
<path d="M29.2334 29.1555V31.0815C29.2341 32.26 29.3598 33.4351 29.6084 34.587L30.7401 39.7553C31.3311 42.4635 31.7279 45.354 32.7726 47.9303C34.0074 50.9554 36.1151 53.5442 38.8271 55.3665C41.5392 57.1888 44.7325 58.162 47.9999 58.162C51.2673 58.162 54.4606 57.1888 57.1726 55.3665C59.8847 53.5442 61.9924 50.9554 63.2271 47.9303C64.2719 45.3525 64.6686 42.462 65.2589 39.7553L66.3914 34.587C66.64 33.4351 66.7657 32.26 66.7664 31.0815V29.1555H29.2334Z" fill="#F0D0B4"/>
<path d="M29.6103 34.587C29.3585 33.4347 29.2315 32.2587 29.2316 31.0792V30.099C29.0015 30.0659 28.7695 30.0483 28.5371 30.0465C27.7694 30.0446 27.0111 30.2158 26.3186 30.5473C25.6262 30.8789 25.0174 31.3623 24.5376 31.9616C24.0577 32.5609 23.7191 33.2607 23.547 34.0088C23.3749 34.757 23.3736 35.5344 23.5434 36.2831C23.7131 37.0319 24.0495 37.7327 24.5274 38.3335C25.0053 38.9343 25.6126 39.4197 26.3039 39.7535C26.9953 40.0873 27.753 40.2609 28.5208 40.2614C29.2885 40.262 30.0465 40.0895 30.7383 39.7567L29.6103 34.587Z" fill="#DDB79B"/>
<path d="M49.6552 40.7055H48.1867C47.8162 40.7054 47.4501 40.6254 47.1134 40.4708C46.7767 40.3163 46.4774 40.0908 46.2359 39.8098C45.9944 39.5289 45.8165 39.1991 45.7142 38.843C45.6119 38.4869 45.5878 38.113 45.6434 37.7467L46.1752 34.2315C46.201 34.061 46.2601 33.8973 46.3492 33.7497C46.4382 33.6022 46.5555 33.4736 46.6943 33.3713C46.833 33.269 46.9906 33.1951 47.1579 33.1537C47.3253 33.1123 47.4991 33.1043 47.6696 33.1301C47.84 33.1559 48.0037 33.215 48.1513 33.3041C48.2989 33.3931 48.4275 33.5104 48.5297 33.6492C48.632 33.7879 48.7059 33.9455 48.7473 34.1128C48.7887 34.2802 48.7967 34.454 48.7709 34.6245L48.2459 38.0805H49.6537C50.0018 38.0805 50.3356 38.2187 50.5818 38.4649C50.8279 38.711 50.9662 39.0449 50.9662 39.393C50.9662 39.7411 50.8279 40.0749 50.5818 40.321C50.3356 40.5672 50.0018 40.7055 49.6537 40.7055H49.6552Z" fill="#424242"/>
<path d="M39.75 27.843C39.1319 27.8429 38.5276 28.026 38.0135 28.3694C37.4995 28.7127 37.0988 29.2007 36.8621 29.7718C36.6255 30.3428 36.5635 30.9712 36.684 31.5775C36.8045 32.1838 37.1021 32.7407 37.5391 33.1779C37.9762 33.615 38.533 33.9128 39.1393 34.0334C39.7456 34.1541 40.374 34.0922 40.9451 33.8557C41.5162 33.6192 42.0043 33.2186 42.3478 32.7046C42.6912 32.1907 42.8745 31.5864 42.8745 30.9683C42.8735 30.1398 42.544 29.3456 41.9583 28.7597C41.3726 28.1739 40.5785 27.8442 39.75 27.843Z" fill="#424242"/>
<path d="M56.2502 27.843C55.6321 27.843 55.0279 28.0263 54.514 28.3697C54 28.7131 53.5994 29.2012 53.3629 29.7723C53.1264 30.3433 53.0645 30.9717 53.1851 31.578C53.3056 32.1842 53.6033 32.7411 54.0404 33.1782C54.4774 33.6152 55.0343 33.9129 55.6405 34.0335C56.2468 34.1541 56.8752 34.0922 57.4462 33.8556C58.0173 33.6191 58.5054 33.2185 58.8488 32.7046C59.1922 32.1906 59.3755 31.5864 59.3755 30.9683C59.3747 30.1396 59.0452 29.3452 58.4593 28.7593C57.8733 28.1733 57.0789 27.8438 56.2502 27.843Z" fill="#424242"/>
<path d="M47.9063 48.2805C46.7808 48.3228 45.6597 48.1204 44.6201 47.6871C43.5806 47.2538 42.6475 46.6001 41.8853 45.7711C41.6777 45.5011 41.5832 45.1611 41.6217 44.8229C41.6601 44.4846 41.8285 44.1745 42.0913 43.958C42.3541 43.7416 42.6907 43.6357 43.0301 43.6627C43.3695 43.6898 43.6851 43.8477 43.9103 44.1031C44.4292 44.6289 45.0536 45.0391 45.7422 45.3066C46.4309 45.5742 47.1684 45.6931 47.9063 45.6556C48.6437 45.6929 49.3807 45.5739 50.069 45.3065C50.7572 45.0391 51.3812 44.6292 51.9 44.1038C52.0078 43.9654 52.1422 43.85 52.2953 43.7644C52.4485 43.6788 52.6172 43.6248 52.7915 43.6056C52.9659 43.5863 53.1423 43.6022 53.3104 43.6523C53.4786 43.7024 53.6349 43.7857 53.7703 43.8973C53.9057 44.0088 54.0173 44.1464 54.0986 44.3018C54.1799 44.4573 54.2292 44.6274 54.2437 44.8022C54.2581 44.9771 54.2373 45.153 54.1826 45.3197C54.1278 45.4863 54.0403 45.6403 53.925 45.7725C53.163 46.6012 52.2303 47.2547 51.1911 47.6877C50.152 48.1207 49.0312 48.323 47.9063 48.2805Z" fill="#424242"/>
<path d="M67.2749 30.0465C67.1048 30.05 66.9351 30.063 66.7664 30.0855V31.0815C66.7657 32.26 66.64 33.435 66.3914 34.587L65.2589 39.7553L65.2432 39.8303C65.883 40.114 66.5749 40.2617 67.2749 40.2638C68.6187 40.2475 69.9019 39.7022 70.8464 38.7462C71.7909 37.7902 72.3205 36.5005 72.3205 35.1566C72.3205 33.8128 71.7909 32.523 70.8464 31.567C69.9019 30.611 68.6187 30.0658 67.2749 30.0495V30.0465Z" fill="#DDB79B"/>
<path d="M67.073 66.3622C66.4138 66.3105 65.753 66.2587 65.0975 66.186C64.0991 66.0923 63.1108 65.9111 62.144 65.6445L47.9053 76.2195L57.737 80.7232L67.073 66.3622Z" fill="#424242"/>
<path d="M89.625 83.778V95.343H6.375V83.778C6.37697 80.0938 7.58905 76.5122 9.82486 73.584C12.0607 70.6557 15.1964 68.543 18.75 67.5705C21.9825 66.6855 25.38 66.588 28.7325 66.3405L38.0775 80.7255L46.59 76.818L47.9025 76.218L49.215 76.818L57.735 80.7255L67.0725 66.363C68.0325 66.438 68.985 66.5055 69.93 66.588C72.3944 66.6973 74.8441 67.0261 77.25 67.5705C80.8036 68.543 83.9393 70.6557 86.1751 73.584C88.4109 76.5122 89.623 80.0938 89.625 83.778Z" fill="#5E8569"/>
<path d="M47.9051 76.2195L33.7369 65.6962C32.9833 65.9592 32.192 66.0978 31.3939 66.1065C30.5126 66.2077 29.6246 66.279 28.7344 66.3427L38.0734 80.7232L47.9051 76.2195Z" fill="#424242"/>
<path d="M49.2149 76.218V95.343H46.5898V76.218C46.5898 75.8699 46.7281 75.5361 46.9743 75.2899C47.2204 75.0438 47.5543 74.9055 47.9023 74.9055C48.2504 74.9055 48.5843 75.0438 48.8304 75.2899C49.0766 75.5361 49.2149 75.8699 49.2149 76.218Z" fill="#424242"/>
<path d="M77.4375 84.3705V95.343H74.8125V84.3705C74.8125 84.0224 74.9508 83.6886 75.1969 83.4425C75.4431 83.1963 75.7769 83.058 76.125 83.058C76.4731 83.058 76.8069 83.1963 77.0531 83.4425C77.2992 83.6886 77.4375 84.0224 77.4375 84.3705Z" fill="#424242"/>
<path d="M19.875 88.0057H27.6278C28.0536 88.0059 28.4619 88.1752 28.763 88.4763C29.0641 88.7774 29.2333 89.1857 29.2335 89.6115C29.2334 89.8224 29.2749 90.0312 29.3555 90.2261C29.4362 90.421 29.5545 90.598 29.7036 90.7471C29.8527 90.8963 30.0298 91.0145 30.2246 91.0952C30.4195 91.1759 30.6284 91.2173 30.8393 91.2172H36.7148C37.1406 91.2174 37.5489 91.3867 37.85 91.6878C38.1511 91.9889 38.3203 92.3972 38.3205 92.823V93.7372C38.3203 94.163 38.1511 94.5714 37.85 94.8724C37.5489 95.1735 37.1406 95.3428 36.7148 95.343H19.875V88.0057Z" fill="#85BC94"/>
<path d="M86.6891 74.3107H76.7344C76.1376 74.3107 75.5653 74.5478 75.1434 74.9697C74.7214 75.3917 74.4844 75.964 74.4844 76.5607V76.6545C74.4844 77.2512 74.7214 77.8235 75.1434 78.2455C75.5653 78.6674 76.1376 78.9045 76.7344 78.9045H78.5629C79.1596 78.9045 79.7319 79.1415 80.1539 79.5635C80.5758 79.9854 80.8129 80.5577 80.8129 81.1545C80.8129 81.7512 81.0499 82.3235 81.4719 82.7455C81.8938 83.1674 82.4661 83.4045 83.0629 83.4045H89.6096C89.5413 80.1537 88.5263 76.9934 86.6891 74.3107Z" fill="#85BC94"/>
<path d="M57.5067 63.9195L59.3922 63.5348C59.3089 63.405 59.2257 63.2745 59.1484 63.1298C58.8507 62.587 58.6552 61.9942 58.5717 61.3808L57.7497 54.9488C54.9278 57.0369 51.5101 58.1639 47.9997 58.1639C44.4892 58.1639 41.0715 57.0369 38.2496 54.9488L37.4246 61.3808C37.3098 62.1521 37.0199 62.8869 36.5771 63.5288L38.4889 63.9195C44.7634 65.201 51.2322 65.201 57.5067 63.9195Z" fill="#DDB79B"/>
<path d="M59.3926 63.5347L57.5071 63.9195C51.2338 65.2005 44.7663 65.2005 38.4931 63.9195L36.5813 63.5287C35.8912 64.5385 34.8938 65.2986 33.7373 65.6962L47.9056 76.2195L62.1443 65.6445C61.0027 65.296 60.0254 64.5468 59.3926 63.5347Z" fill="#85BC94"/>
<path d="M6.90039 79.5908H22.8206C23.2465 79.5908 23.6549 79.4216 23.9561 79.1205C24.2572 78.8193 24.4264 78.4109 24.4264 77.985V77.0708C24.4265 76.8599 24.385 76.651 24.3044 76.4562C24.2237 76.2613 24.1054 76.0843 23.9563 75.9351C23.8072 75.786 23.6301 75.6677 23.4352 75.5871C23.2404 75.5064 23.0315 75.4649 22.8206 75.465H16.9451C16.5193 75.4648 16.111 75.2956 15.8099 74.9945C15.5088 74.6934 15.3396 74.2851 15.3394 73.8593C15.3395 73.6484 15.298 73.4395 15.2174 73.2447C15.1367 73.0498 15.0184 72.8728 14.8693 72.7236C14.7202 72.5745 14.5431 72.4562 14.3482 72.3756C14.1534 72.2949 13.9445 72.2534 13.7336 72.2535H10.9691C9.01347 74.3153 7.61346 76.84 6.90039 79.5908Z" fill="#85BC94"/>
<path d="M57.2373 95.343V91.6868C57.2375 91.0776 57.4796 90.4935 57.9104 90.0628C58.3412 89.6322 58.9254 89.3903 59.5346 89.3903H59.6253C60.2344 89.3901 60.8186 89.1479 61.2492 88.7171C61.6799 88.2863 61.9218 87.7021 61.9218 87.093C61.922 86.4839 62.1641 85.8997 62.5949 85.4691C63.0257 85.0384 63.6099 84.7965 64.219 84.7965H64.3128C64.9219 84.7965 65.506 85.0385 65.9367 85.4691C66.3673 85.8998 66.6093 86.4839 66.6093 87.093V95.343H57.2373Z" fill="#85BC94"/>
<path d="M68.8125 20.8155V27.6555C68.8113 28.0529 68.6529 28.4338 68.3718 28.7148C68.0908 28.9959 67.71 29.1543 67.3125 29.1555H28.6875C28.29 29.1543 27.9092 28.9959 27.6282 28.7148C27.3471 28.4338 27.1887 28.0529 27.1875 27.6555V20.8155H68.8125Z" fill="#424242"/>
<path d="M56.5031 1.96649H44.8286C37.1644 1.96625 29.7926 4.90873 24.2351 10.1865L20.7799 13.467C20.3607 13.8648 20.0269 14.3438 19.7988 14.8748C19.5707 15.4057 19.4531 15.9776 19.4531 16.5555C19.4533 17.6846 19.902 18.7674 20.7005 19.5657C21.4989 20.364 22.5818 20.8125 23.7109 20.8125H68.8046C69.6617 20.8121 70.5057 20.6019 71.2628 20.2002C72.0199 19.7985 72.6672 19.2175 73.148 18.508C73.6289 17.7986 73.9288 16.9822 74.0214 16.1301C74.1141 15.278 73.9967 14.4162 73.6796 13.62C72.3113 10.1819 69.9429 7.2334 66.8807 5.15586C63.8186 3.07832 60.2035 1.9673 56.5031 1.96649Z" fill="#5E8569"/>
<path d="M52.1019 12.8392L48.0002 15.8422L43.8984 12.8392V6.93597H52.1019V12.8392Z" fill="#FBB540"/>
<path d="M32.6025 20.8155H35.2275V29.1555H32.6025V20.8155Z" fill="#707070"/>
<path d="M39.6445 20.8155H42.2695V29.1555H39.6445V20.8155Z" fill="#707070"/>
<path d="M46.6875 20.8155H49.3125V29.1555H46.6875V20.8155Z" fill="#707070"/>
<path d="M53.7305 20.8155H56.3555V29.1555H53.7305V20.8155Z" fill="#707070"/>
<path d="M60.7725 20.8155H63.3975V29.1555H60.7725V20.8155Z" fill="#707070"/>
<path d="M21.1875 84.3705V95.343H18.5625V84.3705C18.5625 84.0224 18.7008 83.6886 18.9469 83.4425C19.1931 83.1963 19.5269 83.058 19.875 83.058C20.2231 83.058 20.5569 83.1963 20.8031 83.4425C21.0492 83.6886 21.1875 84.0224 21.1875 84.3705Z" fill="#424242"/>
</svg>
