<svg width="96" height="97" viewBox="0 0 96 97" fill="none" xmlns="http://www.w3.org/2000/svg">
<g clip-path="url(#clip0)">
<path d="M79.629 52.1269H16.3701C15.3032 52.1269 14.4385 51.2621 14.4385 50.1953V2.58714C14.4387 1.52027 15.3034 0.655518 16.3701 0.655518H79.629C80.6959 0.655518 81.5607 1.52027 81.5607 2.58714V50.1953C81.5607 51.262 80.6959 52.1269 79.629 52.1269Z" fill="#FEE2CA"/>
<path d="M14.4392 41.3745C19.3643 41.3745 23.3569 37.3819 23.3569 32.4568C23.3569 27.5317 19.3643 23.5391 14.4392 23.5391C9.51407 23.5391 5.52148 27.5317 5.52148 32.4568C5.52148 37.3819 9.51407 41.3745 14.4392 41.3745Z" fill="#FFCEBF"/>
<path d="M24.2483 71.0724H4.62891V51.1841C4.62891 45.7663 9.02091 41.3745 14.4385 41.3745C19.8563 41.3745 24.2482 45.7665 24.2482 51.1841V71.0724H24.2483Z" fill="#5F99D7"/>
<path d="M48.0001 80.0218C53.4178 80.0218 57.8097 75.6299 57.8097 70.2122C57.8097 64.7945 53.4178 60.4026 48.0001 60.4026C42.5823 60.4026 38.1904 64.7945 38.1904 70.2122C38.1904 75.6299 42.5823 80.0218 48.0001 80.0218Z" fill="#FFCEBF"/>
<path d="M58.6984 96.6555H37.3027V90.7197C37.3027 84.8115 42.0922 80.0219 48.0005 80.0219C53.9087 80.0219 58.6984 84.8114 58.6984 90.7197V96.6555Z" fill="#E94444"/>
<path d="M14.4385 80.0218C19.8562 80.0218 24.2482 75.6299 24.2482 70.2122C24.2482 64.7945 19.8562 60.4026 14.4385 60.4026C9.02083 60.4026 4.62891 64.7945 4.62891 70.2122C4.62891 75.6299 9.02083 80.0218 14.4385 80.0218Z" fill="#FFCEBF"/>
<path d="M25.1366 96.6555H3.74121V90.7197C3.74121 84.8115 8.53071 80.0219 14.439 80.0219C20.3472 80.0219 25.1368 84.8114 25.1368 90.7197V96.6555H25.1366Z" fill="#E94444"/>
<path d="M81.5606 80.0218C86.9783 80.0218 91.3702 75.6299 91.3702 70.2122C91.3702 64.7945 86.9783 60.4026 81.5606 60.4026C76.1429 60.4026 71.751 64.7945 71.751 70.2122C71.751 75.6299 76.1429 80.0218 81.5606 80.0218Z" fill="#FFCEBF"/>
<path d="M92.2587 96.6555H70.8633V90.7197C70.8633 84.8115 75.6528 80.0219 81.5611 80.0219C87.4692 80.0219 92.2589 84.8114 92.2589 90.7197V96.6555H92.2587Z" fill="#E94444"/>
<path d="M35.8555 0.655518C29.0183 0.655518 23.4756 5.59708 23.4756 11.6927C23.4756 15.2644 25.3791 18.4393 28.3305 20.4566L26.9948 24.9585L34.6753 22.6796C35.0638 22.7125 35.4572 22.7299 35.8553 22.7299C42.6925 22.7299 48.2351 17.7883 48.2351 11.6927C48.2353 5.59708 42.6926 0.655518 35.8555 0.655518V0.655518Z" fill="#B3DAFE"/>
<path d="M35.8549 13.8424C36.7509 13.8424 37.4773 13.116 37.4773 12.22C37.4773 11.3239 36.7509 10.5975 35.8549 10.5975C34.9588 10.5975 34.2324 11.3239 34.2324 12.22C34.2324 13.116 34.9588 13.8424 35.8549 13.8424Z" fill="#015A9A"/>
<path d="M29.8656 13.8424C30.7616 13.8424 31.488 13.116 31.488 12.22C31.488 11.3239 30.7616 10.5975 29.8656 10.5975C28.9696 10.5975 28.2432 11.3239 28.2432 12.22C28.2432 13.116 28.9696 13.8424 29.8656 13.8424Z" fill="#015A9A"/>
<path d="M41.8451 13.8424C42.7411 13.8424 43.4675 13.116 43.4675 12.22C43.4675 11.3239 42.7411 10.5975 41.8451 10.5975C40.949 10.5975 40.2227 11.3239 40.2227 12.22C40.2227 13.116 40.949 13.8424 41.8451 13.8424Z" fill="#015A9A"/>
<path d="M62.3768 34.1714C69.2139 34.1714 74.7566 39.1129 74.7566 45.2086C74.7566 48.7803 72.8531 51.9552 69.9017 53.9725L71.2374 58.4744L63.5569 56.1955C63.1684 56.2283 62.775 56.2458 62.3769 56.2458C55.5398 56.2458 49.9971 51.3042 49.9971 45.2086C49.9971 39.1129 55.5394 34.1714 62.3768 34.1714Z" fill="#F9C6C6"/>
<path d="M62.3763 47.3582C63.2724 47.3582 63.9988 46.6318 63.9988 45.7357C63.9988 44.8397 63.2724 44.1133 62.3763 44.1133C61.4803 44.1133 60.7539 44.8397 60.7539 45.7357C60.7539 46.6318 61.4803 47.3582 62.3763 47.3582Z" fill="#CA2C2C"/>
<path d="M68.3666 47.3582C69.2626 47.3582 69.989 46.6318 69.989 45.7357C69.989 44.8397 69.2626 44.1133 68.3666 44.1133C67.4705 44.1133 66.7441 44.8397 66.7441 45.7357C66.7441 46.6318 67.4705 47.3582 68.3666 47.3582Z" fill="#CA2C2C"/>
<path d="M56.3871 47.3582C57.2831 47.3582 58.0095 46.6318 58.0095 45.7357C58.0095 44.8397 57.2831 44.1133 56.3871 44.1133C55.491 44.1133 54.7646 44.8397 54.7646 45.7357C54.7646 46.6318 55.491 47.3582 56.3871 47.3582Z" fill="#CA2C2C"/>
<path d="M79.629 0.655518H74.7012C75.768 0.655518 76.6328 1.52027 76.6328 2.58714V50.1953C76.6328 51.2621 75.768 52.1269 74.7012 52.1269H79.629C80.6959 52.1269 81.5607 51.2621 81.5607 50.1953V2.58714C81.5607 1.52027 80.6959 0.655518 79.629 0.655518V0.655518Z" fill="#FED5B0"/>
<path d="M35.8556 0.655518C35.2037 0.655518 34.5639 0.70108 33.9392 0.787705C39.8662 1.60896 44.4028 6.17833 44.4028 11.6927C44.4028 17.7883 38.8601 22.7299 32.0229 22.7299C31.6249 22.7299 31.2313 22.7125 30.843 22.6796L27.3651 23.7116L26.9951 24.9585L34.6757 22.6796C35.0642 22.7125 35.4576 22.7299 35.8556 22.7299C42.6928 22.7299 48.2355 17.7883 48.2355 11.6927C48.2355 5.59708 42.6928 0.655518 35.8556 0.655518V0.655518Z" fill="#8AC9FE"/>
<path d="M74.7573 45.2086C74.7573 39.1129 69.2146 34.1714 62.3774 34.1714C61.7254 34.1714 61.0857 34.2169 60.4609 34.3034C66.388 35.1246 70.9246 39.694 70.9246 45.2084C70.9246 48.7801 69.0211 51.955 66.0696 53.9723L67.0354 57.2273L71.2383 58.4742L69.9025 53.9723C72.8538 51.9552 74.7573 48.7804 74.7573 45.2086Z" fill="#F9B1B1"/>
<path d="M14.4392 23.5391C13.6834 23.5391 12.9499 23.634 12.249 23.811C16.1151 24.7873 18.9765 28.2876 18.9765 32.4568C18.9765 36.6261 16.1149 40.1263 12.249 41.1026C12.9499 41.2796 13.6834 41.3745 14.4392 41.3745C19.3643 41.3745 23.3569 37.3819 23.3569 32.4568C23.3569 27.5316 19.3643 23.5391 14.4392 23.5391Z" fill="#FFBFB1"/>
<path d="M14.4392 41.3745C13.686 41.3745 12.9536 41.4623 12.249 41.6229C16.612 42.6184 19.8685 46.5197 19.8685 51.1841V71.0724H24.2488V51.1841C24.2488 45.7663 19.8568 41.3745 14.4392 41.3745Z" fill="#3C87D0"/>
<path d="M47.9998 60.4023C47.2466 60.4023 46.5142 60.4901 45.8096 60.6508C50.1725 61.6462 53.429 65.5475 53.429 70.212C53.429 74.8764 50.1723 78.7777 45.8096 79.7732C46.5142 79.9338 47.2464 80.0216 47.9998 80.0216C53.4176 80.0216 57.8094 75.6296 57.8094 70.212C57.8094 64.7943 53.4176 60.4023 47.9998 60.4023Z" fill="#FFBFB1"/>
<path d="M47.9998 80.0219C47.249 80.0219 46.5166 80.1 45.8096 80.247C50.6671 81.2579 54.3172 85.5621 54.3172 90.7197V96.6555H58.6976V90.7197C58.6976 84.8114 53.9079 80.0219 47.9998 80.0219Z" fill="#D83131"/>
<path d="M14.4392 60.4023C13.686 60.4023 12.9536 60.4901 12.249 60.6508C16.612 61.6462 19.8685 65.5475 19.8685 70.212C19.8685 74.8764 16.6118 78.7777 12.249 79.7732C12.9536 79.9338 13.6858 80.0216 14.4392 80.0216C19.857 80.0216 24.2488 75.6296 24.2488 70.212C24.2488 64.7943 19.8568 60.4023 14.4392 60.4023Z" fill="#FFBFB1"/>
<path d="M14.4392 80.0219C13.6885 80.0219 12.9561 80.1 12.249 80.247C17.1066 81.2579 20.7567 85.5621 20.7567 90.7197V96.6555H25.137V90.7197C25.1368 84.8114 20.3473 80.0219 14.4392 80.0219Z" fill="#D83131"/>
<path d="M81.5613 60.4023C80.8081 60.4023 80.0757 60.4901 79.3711 60.6508C83.734 61.6462 86.9905 65.5475 86.9905 70.212C86.9905 74.8764 83.7338 78.7777 79.3711 79.7732C80.0757 79.9338 80.8079 80.0216 81.5613 80.0216C86.9791 80.0216 91.3709 75.6296 91.3709 70.212C91.3711 64.7943 86.9791 60.4023 81.5613 60.4023Z" fill="#FFBFB1"/>
<path d="M81.5613 80.0219C80.8105 80.0219 80.0782 80.1 79.3711 80.247C84.2287 81.2579 87.8787 85.5621 87.8787 90.7197V96.6555H92.2591V90.7197C92.2591 84.8114 87.4696 80.0219 81.5613 80.0219Z" fill="#D83131"/>
</g>
<defs>
<clipPath id="clip0">
<rect width="96" height="96" fill="white" transform="translate(0 0.655518)"/>
</clipPath>
</defs>
</svg>
