<svg width="96" height="97" viewBox="0 0 96 97" fill="none" xmlns="http://www.w3.org/2000/svg">
<path d="M96 68.5176C96 77.6542 94.5104 85.0693 92.6897 85.0693C81.5814 83.2941 70.3681 82.2546 59.1228 81.9576L55.018 80.0045C57.3053 75.9426 56.4507 70.8356 52.9656 67.7397C52.9159 62.2445 55.4814 57.5438 54.4387 55.21C67.2505 55.0509 80.0341 53.9667 92.6897 51.9659C94.5104 51.9659 96 59.3811 96 68.5176Z" fill="#F8E8AB"/>
<path d="M24.8276 28.8928L1.10902 20.4183C0.45443 20.1807 0.0185547 19.5588 0.0185547 18.8625C0.0185547 18.1661 0.45443 17.5442 1.10902 17.3066L47.4207 0.754872C47.7956 0.622481 48.2045 0.622481 48.5794 0.754872L94.8911 17.3066C95.5457 17.5442 95.9816 18.1661 95.9816 18.8625C95.9816 19.5588 95.5457 20.1807 94.8911 20.4183L84.298 24.2087L79.7132 25.8473L71.1725 28.8928H24.8276Z" fill="#393F4B"/>
<path d="M3.54227 85.0197L3.31055 85.0694C3.39055 85.0706 3.46979 85.0536 3.54227 85.0197Z" fill="#F8E8AB"/>
<path d="M3.50917 51.999C3.44241 51.9915 3.37611 51.9805 3.31055 51.9659C3.37785 51.9688 3.44455 51.9799 3.50917 51.999Z" fill="#F8E8AB"/>
<path d="M3.52539 51.999C15.4388 53.8764 27.4671 54.9327 39.5254 55.1604C40.6178 57.577 44.6895 62.6583 44.6895 68.5176C44.6895 68.9149 44.6895 69.2956 44.673 69.6763C42.6287 72.7797 42.4882 76.7648 44.3088 80.0045L40.2206 81.8583C27.9365 82.0731 15.6816 83.1293 3.54194 85.0197L3.52539 51.999Z" fill="#F8E8AB"/>
<path d="M41.3626 69.6763C41.3792 69.2956 41.3792 68.9149 41.3792 68.5176C41.5624 63.9903 40.9346 59.4667 39.5254 55.1604C42.2399 55.2432 45.0702 55.2763 47.9999 55.2763C50.2013 55.2763 52.353 55.2597 54.4385 55.2101C55.7747 59.2477 56.391 63.4887 56.2592 67.7397L41.3626 69.6763Z" fill="#BA3A23"/>
<path d="M49.6549 85.0693L45.2521 95.6127C45.0073 96.2379 44.4091 96.6533 43.7377 96.6642C43.0664 96.6751 42.455 96.2793 42.19 95.6624L40.9818 92.8817L38.2011 94.0734C37.5895 94.3416 36.8764 94.213 36.3969 93.7481C35.9175 93.2832 35.767 92.5744 36.0163 91.9548L40.2204 81.8583L40.9983 80.0045L49.6549 85.0693Z" fill="#BA3A23"/>
<path d="M58.3118 80.0045L59.1229 81.9576L63.2939 91.9548C63.5431 92.5744 63.3927 93.2832 62.9132 93.7481C62.4338 94.213 61.7207 94.3416 61.1091 94.0734L58.3284 92.8817L57.1201 95.6624C56.8551 96.2793 56.2438 96.6751 55.5724 96.6642C54.9011 96.6533 54.3028 96.2379 54.058 95.6127L49.6553 85.0693L58.3118 80.0045Z" fill="#BA3A23"/>
<path d="M24.8271 40.3796V22.1727C24.8271 19.4251 35.2051 17.2072 47.9996 17.2072C60.794 17.2072 71.172 19.4251 71.172 22.1727V40.3796H24.8271Z" fill="#464F5E"/>
<path d="M82.7587 25.4831C81.8446 25.4831 81.1035 24.742 81.1035 23.8279V12.97C81.1035 12.0559 81.8446 11.3148 82.7587 11.3148C83.6728 11.3148 84.4139 12.0559 84.4139 12.97V23.8279C84.4139 24.742 83.6728 25.4831 82.7587 25.4831Z" fill="#EDC100"/>
<path d="M79.4482 27.1383V32.1038C79.4482 33.0179 80.1893 33.759 81.1034 33.759H84.4138C85.3279 33.759 86.0689 33.0179 86.0689 32.1038V27.1383C86.0689 25.31 84.5868 23.8279 82.7586 23.8279C80.9303 23.8279 79.4482 25.31 79.4482 27.1383Z" fill="#F1D24B"/>
<path d="M47.9996 45.3452C60.7973 45.3452 71.172 43.1221 71.172 40.3797C71.172 37.6373 60.7973 35.4142 47.9996 35.4142C35.2018 35.4142 24.8271 37.6373 24.8271 40.3797C24.8271 43.1221 35.2018 45.3452 47.9996 45.3452Z" fill="#393F4B"/>
<path d="M6.62069 68.5176C6.62069 77.2569 5.26345 84.4238 3.54207 85.0197C3.46959 85.0536 3.39035 85.0706 3.31034 85.0694C1.48966 85.0694 0 77.6542 0 68.5176C0 59.3811 1.48966 51.9659 3.31034 51.9659C3.32854 51.9637 3.34676 51.9698 3.36 51.9824C3.3931 51.9824 3.44276 51.999 3.50897 51.999H3.52552C5.2469 52.5783 6.62069 59.7452 6.62069 68.5176Z" fill="#E2BE50"/>
<path d="M59.5867 75.1382C59.5867 80.623 55.1404 85.0693 49.6556 85.0693C44.1709 85.0693 39.7246 80.623 39.7246 75.1382C39.7246 69.6535 44.1709 65.2072 49.6556 65.2072C52.0968 65.1929 54.4541 66.0968 56.2598 67.7396C58.3782 69.6148 59.5898 72.3091 59.5867 75.1382Z" fill="#E04C34"/>
</svg>
