<svg width="83" height="81" viewBox="0 0 83 81" fill="none" xmlns="http://www.w3.org/2000/svg">
<path d="M25.4702 24.0469V25.6719C25.4708 26.6663 25.5782 27.6577 25.7905 28.6297L26.7572 32.9904C27.262 35.2755 27.6009 37.7144 28.4933 39.8881C29.548 42.4405 31.3484 44.6248 33.6649 46.1624C35.9814 47.7 38.709 48.5211 41.4999 48.5211C44.2908 48.5211 47.0185 47.7 49.335 46.1624C51.6515 44.6248 53.4519 42.4405 54.5065 39.8881C55.3989 37.7131 55.7378 35.2742 56.242 32.9904L57.2093 28.6297C57.4216 27.6577 57.529 26.6663 57.5296 25.6719V24.0469H25.4702Z" fill="#F0D0B4"/>
<path d="M25.7926 28.6294C25.5775 27.6572 25.469 26.6649 25.4691 25.6697V24.8426C25.2726 24.8147 25.0744 24.7999 24.8759 24.7984C24.2201 24.7968 23.5724 24.9412 22.9809 25.221C22.3895 25.5007 21.8695 25.9086 21.4596 26.4143C21.0497 26.9199 20.7605 27.5103 20.6135 28.1416C20.4665 28.7729 20.4654 29.4288 20.6104 30.0605C20.7554 30.6923 21.0427 31.2836 21.4509 31.7906C21.8591 32.2975 22.3778 32.707 22.9684 32.9886C23.5589 33.2703 24.2061 33.4168 24.8619 33.4172C25.5177 33.4177 26.1651 33.2722 26.7561 32.9914L25.7926 28.6294Z" fill="#DDB79B"/>
<path d="M42.914 33.7924H41.6597C41.3432 33.7924 41.0305 33.7248 40.7429 33.5944C40.4553 33.464 40.1997 33.2738 39.9934 33.0367C39.7871 32.7997 39.6351 32.5214 39.5478 32.221C39.4604 31.9205 39.4398 31.605 39.4873 31.2959L39.9415 28.3299C39.9636 28.1861 40.0141 28.048 40.0901 27.9235C40.1662 27.799 40.2664 27.6905 40.3849 27.6042C40.5034 27.5179 40.638 27.4555 40.7809 27.4206C40.9239 27.3857 41.0724 27.3789 41.218 27.4007C41.3635 27.4224 41.5034 27.4723 41.6294 27.5475C41.7555 27.6226 41.8654 27.7216 41.9527 27.8386C42.0401 27.9557 42.1032 28.0887 42.1386 28.2299C42.1739 28.371 42.1808 28.5177 42.1587 28.6615L41.7103 31.5775H42.9127C43.2101 31.5775 43.4952 31.6942 43.7055 31.9019C43.9157 32.1096 44.0338 32.3913 44.0338 32.685C44.0338 32.9787 43.9157 33.2603 43.7055 33.468C43.4952 33.6757 43.2101 33.7924 42.9127 33.7924H42.914Z" fill="#424242"/>
<path d="M34.4533 22.9395C33.9253 22.9393 33.4091 23.0939 32.9701 23.3835C32.531 23.6732 32.1887 24.085 31.9866 24.5668C31.7844 25.0487 31.7315 25.5789 31.8344 26.0904C31.9373 26.602 32.1915 27.0719 32.5649 27.4407C32.9382 27.8096 33.4138 28.0608 33.9317 28.1626C34.4495 28.2644 34.9863 28.2122 35.4741 28.0126C35.9619 27.8131 36.3789 27.4751 36.6722 27.0414C36.9656 26.6078 37.1222 26.0979 37.1222 25.5764C37.1213 24.8774 36.8399 24.2073 36.3396 23.7129C35.8393 23.2186 35.1609 22.9405 34.4533 22.9395Z" fill="#424242"/>
<path d="M48.5472 22.9395C48.0192 22.9395 47.5031 23.0941 47.0641 23.3839C46.6251 23.6736 46.2829 24.0854 46.0809 24.5673C45.8788 25.0491 45.826 25.5793 45.929 26.0908C46.032 26.6023 46.2862 27.0722 46.6596 27.441C47.0329 27.8098 47.5085 28.0609 48.0264 28.1626C48.5442 28.2644 49.081 28.2122 49.5687 28.0126C50.0565 27.813 50.4734 27.475 50.7668 27.0414C51.0601 26.6077 51.2167 26.0979 51.2167 25.5764C51.216 24.8772 50.9345 24.2069 50.434 23.7125C49.9336 23.2182 49.255 22.9401 48.5472 22.9395Z" fill="#424242"/>
<path d="M41.4199 40.1836C40.4586 40.2193 39.501 40.0485 38.613 39.6829C37.7251 39.3173 36.9281 38.7657 36.277 38.0662C36.0997 37.8385 36.019 37.5516 36.0519 37.2662C36.0847 36.9808 36.2285 36.7191 36.453 36.5365C36.6775 36.3538 36.965 36.2645 37.2549 36.2873C37.5448 36.3102 37.8143 36.4434 38.0067 36.6589C38.45 37.1025 38.9832 37.4486 39.5715 37.6744C40.1597 37.9001 40.7897 38.0005 41.4199 37.9688C42.0498 38.0003 42.6794 37.8999 43.2672 37.6743C43.8551 37.4486 44.3881 37.1028 44.8313 36.6595C44.9233 36.5427 45.0381 36.4453 45.1689 36.3731C45.2997 36.3009 45.4438 36.2554 45.5928 36.2391C45.7417 36.2229 45.8924 36.2363 46.036 36.2785C46.1796 36.3208 46.3132 36.3911 46.4288 36.4852C46.5444 36.5793 46.6398 36.6954 46.7092 36.8266C46.7787 36.9577 46.8208 37.1013 46.8331 37.2488C46.8454 37.3963 46.8277 37.5447 46.781 37.6854C46.7342 37.826 46.6594 37.9559 46.5609 38.0675C45.9101 38.7667 45.1134 39.318 44.2257 39.6834C43.3381 40.0487 42.3808 40.2194 41.4199 40.1836Z" fill="#424242"/>
<path d="M57.9642 24.7988C57.8189 24.8018 57.6739 24.8127 57.5299 24.8317V25.6721C57.5292 26.6664 57.4219 27.6579 57.2096 28.6299L56.2422 32.9906L56.2288 33.0539C56.7753 33.2933 57.3663 33.4179 57.9642 33.4196C59.112 33.4059 60.2081 32.9458 61.0149 32.1392C61.8216 31.3326 62.274 30.2444 62.274 29.1105C62.274 27.9766 61.8216 26.8884 61.0149 26.0818C60.2081 25.2751 59.112 24.8151 57.9642 24.8014V24.7988Z" fill="#DDB79B"/>
<path d="M57.7916 55.4396C57.2285 55.3959 56.6641 55.3523 56.1042 55.2909C55.2514 55.2119 54.4072 55.059 53.5815 54.834L41.4192 63.7566L49.8171 67.5567L57.7916 55.4396Z" fill="#424242"/>
<path d="M77.0547 70.1343V79.8922H5.94531V70.1343C5.947 67.0257 6.98231 64.0038 8.89207 61.5331C10.8018 59.0624 13.4803 57.2797 16.5156 56.4592C19.2767 55.7125 22.1788 55.6302 25.0423 55.4214L33.0245 67.5587L40.2956 64.2618L41.4167 63.7555L42.5378 64.2618L49.8153 67.5587L57.7911 55.4404C58.6111 55.5037 59.4247 55.5606 60.2319 55.6302C62.3368 55.7224 64.4293 55.9998 66.4844 56.4592C69.5197 57.2797 72.1982 59.0624 74.1079 61.5331C76.0177 64.0038 77.053 67.0257 77.0547 70.1343Z" fill="#5E8569"/>
<path d="M41.4192 63.7569L29.3172 54.8779C28.6735 55.0998 27.9975 55.2167 27.3158 55.2241C26.5631 55.3095 25.8046 55.3696 25.0442 55.4234L33.0213 67.557L41.4192 63.7569Z" fill="#424242"/>
<path d="M42.5379 63.7559V79.8926H40.2957V63.7559C40.2957 63.4622 40.4138 63.1805 40.624 62.9728C40.8343 62.7651 41.1194 62.6484 41.4168 62.6484C41.7141 62.6484 41.9992 62.7651 42.2095 62.9728C42.4197 63.1805 42.5379 63.4622 42.5379 63.7559Z" fill="#424242"/>
<path d="M66.6445 70.6343V79.8923H64.4023V70.6343C64.4023 70.3406 64.5205 70.0589 64.7307 69.8512C64.941 69.6435 65.2261 69.5269 65.5234 69.5269C65.8208 69.5269 66.1059 69.6435 66.3162 69.8512C66.5264 70.0589 66.6445 70.3406 66.6445 70.6343Z" fill="#424242"/>
<path d="M17.4766 73.7017H24.0987C24.4624 73.7018 24.8112 73.8446 25.0684 74.0987C25.3256 74.3527 25.4701 74.6972 25.4703 75.0565C25.4702 75.2345 25.5056 75.4107 25.5745 75.5751C25.6434 75.7395 25.7444 75.8889 25.8718 76.0147C25.9992 76.1405 26.1504 76.2403 26.3169 76.3084C26.4833 76.3765 26.6617 76.4114 26.8419 76.4114H31.8605C32.2242 76.4115 32.573 76.5543 32.8302 76.8084C33.0874 77.0624 33.2319 77.4069 33.2321 77.7662V78.5376C33.2319 78.8969 33.0874 79.2414 32.8302 79.4954C32.573 79.7495 32.2242 79.8923 31.8605 79.8925H17.4766V73.7017Z" fill="#85BC94"/>
<path d="M74.5465 62.1465H66.0435C65.5337 62.1465 65.0449 62.3465 64.6845 62.7025C64.3241 63.0585 64.1216 63.5414 64.1216 64.0449V64.124C64.1216 64.6275 64.3241 65.1104 64.6845 65.4664C65.0449 65.8224 65.5337 66.0225 66.0435 66.0225H67.6053C68.115 66.0225 68.6039 66.2225 68.9643 66.5785C69.3247 66.9345 69.5272 67.4174 69.5272 67.9209C69.5272 68.4244 69.7297 68.9073 70.0901 69.2633C70.4505 69.6193 70.9393 69.8193 71.4491 69.8193H77.0411C76.9827 67.0765 76.1158 64.41 74.5465 62.1465Z" fill="#85BC94"/>
<path d="M49.6205 53.3791L51.231 53.0545C51.1599 52.945 51.0888 52.8349 51.0228 52.7128C50.7685 52.2548 50.6015 51.7546 50.5301 51.2371L49.828 45.8101C47.4177 47.5719 44.4984 48.5228 41.4999 48.5228C38.5014 48.5228 35.5821 47.5719 33.1718 45.8101L32.4671 51.2371C32.369 51.8878 32.1213 52.5078 31.7432 53.0494L33.3761 53.3791C38.7356 54.4604 44.261 54.4604 49.6205 53.3791Z" fill="#DDB79B"/>
<path d="M51.231 53.0544L49.6205 53.379C44.262 54.4598 38.7378 54.4598 33.3793 53.379L31.7464 53.0493C31.157 53.9013 30.305 54.5426 29.3171 54.8781L41.4192 63.7571L53.5814 54.8345C52.6063 54.5405 51.7716 53.9083 51.231 53.0544Z" fill="#85BC94"/>
<path d="M6.3938 66.6015H19.9923C20.3561 66.6015 20.705 66.4587 20.9622 66.2046C21.2194 65.9505 21.3639 65.6059 21.3639 65.2466V64.4752C21.364 64.2973 21.3286 64.121 21.2597 63.9566C21.1908 63.7922 21.0898 63.6428 20.9624 63.517C20.835 63.3912 20.6838 63.2914 20.5173 63.2233C20.3509 63.1553 20.1725 63.1203 19.9923 63.1204H14.9737C14.61 63.1202 14.2612 62.9774 14.004 62.7233C13.7468 62.4693 13.6023 62.1248 13.6021 61.7655C13.6022 61.5876 13.5668 61.4113 13.4979 61.2469C13.429 61.0825 13.328 60.9331 13.2006 60.8073C13.0732 60.6815 12.922 60.5817 12.7555 60.5136C12.5891 60.4456 12.4107 60.4106 12.2305 60.4106H9.86919C8.19872 62.1503 7.00288 64.2804 6.3938 66.6015Z" fill="#85BC94"/>
<path d="M49.3901 79.8923V76.8073C49.3903 76.2933 49.5971 75.8005 49.9651 75.4371C50.3331 75.0738 50.8321 74.8696 51.3524 74.8696H51.4299C51.9502 74.8695 52.4491 74.6652 52.817 74.3017C53.1848 73.9382 53.3915 73.4453 53.3915 72.9313C53.3916 72.4174 53.5985 71.9245 53.9664 71.5611C54.3344 71.1978 54.8334 70.9937 55.3537 70.9937H55.4338C55.954 70.9937 56.453 71.1978 56.8209 71.5612C57.1887 71.9246 57.3954 72.4174 57.3954 72.9313V79.8923H49.3901Z" fill="#85BC94"/>
<path d="M59.2773 17.0098V22.781C59.2763 23.1164 59.141 23.4377 58.901 23.6748C58.6609 23.912 58.3356 24.0456 57.9961 24.0466H25.0039C24.6644 24.0456 24.3391 23.912 24.099 23.6748C23.859 23.4377 23.7237 23.1164 23.7227 22.781V17.0098H59.2773Z" fill="#424242"/>
<path d="M48.7628 1.10596H38.7909C32.2443 1.10575 25.9476 3.58847 21.2006 8.04158L18.2492 10.8095C17.8912 11.1452 17.6061 11.5493 17.4112 11.9973C17.2164 12.4453 17.1159 12.9278 17.116 13.4154C17.1161 14.3681 17.4994 15.2817 18.1814 15.9553C18.8634 16.6289 19.7884 17.0073 20.7528 17.0073H59.2704C60.0025 17.0069 60.7233 16.8296 61.37 16.4906C62.0168 16.1517 62.5696 15.6615 62.9804 15.0629C63.3911 14.4643 63.6473 13.7754 63.7264 13.0565C63.8056 12.3376 63.7053 11.6104 63.4344 10.9386C62.2656 8.03769 60.2426 5.54991 57.627 3.79699C55.0114 2.04406 51.9236 1.10664 48.7628 1.10596Z" fill="#5E8569"/>
<path d="M45.0035 10.2797L41.4999 12.8135L37.9963 10.2797V5.29883H45.0035V10.2797Z" fill="#FBB540"/>
<path d="M28.3481 17.0098H30.5903V24.0466H28.3481V17.0098Z" fill="#707070"/>
<path d="M34.3635 17.0098H36.6057V24.0466H34.3635V17.0098Z" fill="#707070"/>
<path d="M40.3789 17.0098H42.6211V24.0466H40.3789V17.0098Z" fill="#707070"/>
<path d="M46.3945 17.0098H48.6367V24.0466H46.3945V17.0098Z" fill="#707070"/>
<path d="M52.4099 17.0098H54.6521V24.0466H52.4099V17.0098Z" fill="#707070"/>
<path d="M18.5977 70.6343V79.8923H16.3555V70.6343C16.3555 70.3406 16.4736 70.0589 16.6838 69.8512C16.8941 69.6435 17.1792 69.5269 17.4766 69.5269C17.7739 69.5269 18.059 69.6435 18.2693 69.8512C18.4795 70.0589 18.5977 70.3406 18.5977 70.6343Z" fill="#424242"/>
</svg>
