<svg width="81" height="81" viewBox="0 0 81 81" fill="none" xmlns="http://www.w3.org/2000/svg">
<path d="M56.9531 77.2031H50.625C50.2893 77.2031 49.9674 77.0698 49.7301 76.8324C49.4927 76.5951 49.3594 76.2732 49.3594 75.9375C49.3594 75.6018 49.4927 75.2799 49.7301 75.0426C49.9674 74.8052 50.2893 74.6719 50.625 74.6719H56.9531C57.2888 74.6719 57.6107 74.8052 57.8481 75.0426C58.0854 75.2799 58.2188 75.6018 58.2188 75.9375C58.2188 76.2732 58.0854 76.5951 57.8481 76.8324C57.6107 77.0698 57.2888 77.2031 56.9531 77.2031Z" fill="#EA9D2D"/>
<path d="M55.6875 64.5469H51.8906C51.555 64.5469 51.233 64.4135 50.9957 64.1762C50.7583 63.9388 50.625 63.6169 50.625 63.2812C50.625 62.9456 50.7583 62.6237 50.9957 62.3863C51.233 62.149 51.555 62.0156 51.8906 62.0156H55.6875C56.0232 62.0156 56.3451 62.149 56.5824 62.3863C56.8198 62.6237 56.9531 62.9456 56.9531 63.2812C56.9531 63.6169 56.8198 63.9388 56.5824 64.1762C56.3451 64.4135 56.0232 64.5469 55.6875 64.5469Z" fill="#EA9D2D"/>
<path d="M44.2969 39.2344H59.8425C60.4356 39.2344 61.0166 39.401 61.5195 39.7153L70.875 45.5625L69.6094 50.625L60.5848 45.5071L57.5859 43.5459L44.2969 39.2344Z" fill="#55300B"/>
<path d="M55.1873 26.063L58.2187 21.5156L62.0156 27.8438L55.1873 26.063Z" fill="#027E2A"/>
<path d="M51.8906 24.0469L62.0156 27.8438L56.9531 39.2344L46.8281 35.4375L51.8906 24.0469Z" fill="#02A437"/>
<path d="M32.9062 30.375L25.3125 46.8281H30.375L34.1719 39.2344L32.9062 30.375Z" fill="#FDC9A6"/>
<path d="M30.5195 35.546L35.4374 39.2344L37.9687 35.4375L34.1718 29.1094L32.9062 30.375L30.5195 35.546Z" fill="#2CBFF4"/>
<path d="M17.7188 46.8281H50.625C52.639 46.8281 54.5705 47.6282 55.9946 49.0523C57.4187 50.4764 58.2188 52.4079 58.2188 54.4219C58.2188 56.4359 57.4187 58.3674 55.9946 59.7915C54.5705 61.2156 52.639 62.0156 50.625 62.0156H17.7188V46.8281Z" fill="#D32B39"/>
<path d="M43.0312 18.9844C43.0312 16.1884 40.7647 13.9219 37.9688 13.9219C35.1728 13.9219 32.9062 16.1884 32.9062 18.9844V21.5156C32.9062 24.3116 35.1728 26.5781 37.9688 26.5781C40.7647 26.5781 43.0312 24.3116 43.0312 21.5156V18.9844Z" fill="#FDC9A6"/>
<path d="M43.0311 17.7187H35.4374L32.9061 20.2499L31.0661 15.6497C30.8529 15.1169 30.7726 14.5402 30.832 13.9694C30.8914 13.3986 31.0888 12.8508 31.4072 12.3733C31.8376 11.7276 32.4684 11.2414 33.2024 10.9895C33.9364 10.7376 34.7328 10.734 35.469 10.9792L36.703 11.3905L37.6956 9.40524C38.115 8.56635 38.8344 7.91574 39.7111 7.58244C40.5878 7.24913 41.5577 7.25749 42.4285 7.60584C43.288 7.9496 43.9893 8.59991 44.3969 9.43094C44.8045 10.262 44.8894 11.2147 44.6352 12.1047L43.0311 17.7187Z" fill="#683B0D"/>
<path d="M35.4375 26.5781L32.9063 30.375V35.6574C32.9062 36.3451 33.0664 37.0233 33.3739 37.6384L37.9688 46.8281L44.2969 39.2344L41.7656 35.4375L40.5 26.5781H35.4375Z" fill="#0296E5"/>
<path d="M36.7031 35.4375L50.9928 38.7351C51.6095 38.8774 52.2561 38.8081 52.8286 38.5384C53.4012 38.2687 53.8663 37.8141 54.1491 37.248C54.3357 36.8748 54.4372 36.4649 54.4462 36.0478C54.4552 35.6307 54.3715 35.2167 54.2012 34.8359C54.0309 34.455 53.7782 34.1167 53.4614 33.8452C53.1445 33.5738 52.7714 33.3761 52.3689 33.2663L41.7656 30.375L36.7031 35.4375Z" fill="#FDC9A6"/>
<path d="M41.7657 30.375L41.0814 27.6381C40.9155 26.9738 40.5323 26.3841 39.9927 25.9627C39.4531 25.5413 38.7881 25.3125 38.1035 25.3125C37.637 25.3124 37.1766 25.4187 36.7573 25.6232C36.338 25.8277 35.9708 26.1251 35.6837 26.4928C35.3966 26.8605 35.1971 27.2889 35.1004 27.7452C35.0037 28.2016 35.0122 28.6741 35.1255 29.1266L36.7032 35.4375L41.7657 30.375Z" fill="#2CBFF4"/>
<path d="M44.2969 39.2344L57.9871 42.6569C58.4535 42.7735 58.8871 42.9948 59.2552 43.304C59.6232 43.6132 59.9159 44.0022 60.1112 44.4415L64.5469 54.4219L60.75 58.2188L55.6875 46.8281H37.9688L44.2969 39.2344Z" fill="#683B0D"/>
<path d="M70.875 45.5625L73.4062 44.2969L77.2031 45.5625L74.6719 51.8906L69.6094 50.625L70.875 45.5625Z" fill="#CBCBCB"/>
<path d="M64.5469 54.4219L69.6094 56.9531V60.75L62.0156 62.0156L60.75 58.2188L64.5469 54.4219Z" fill="#CBCBCB"/>
<path d="M17.5605 49.3594H13.7637C13.428 49.3594 13.1061 49.226 12.8687 48.9887C12.6314 48.7513 12.498 48.4294 12.498 48.0938C12.498 47.7581 12.6314 47.4362 12.8687 47.1988C13.1061 46.9615 13.428 46.8281 13.7637 46.8281H17.5605C17.8962 46.8281 18.2181 46.9615 18.4555 47.1988C18.6928 47.4362 18.8262 47.7581 18.8262 48.0938C18.8262 48.4294 18.6928 48.7513 18.4555 48.9887C18.2181 49.226 17.8962 49.3594 17.5605 49.3594Z" fill="#D32B39"/>
<path d="M20.25 63.2812H13.9219C13.5862 63.2812 13.2643 63.1479 13.0269 62.9106C12.7896 62.6732 12.6562 62.3513 12.6562 62.0156C12.6562 61.68 12.7896 61.358 13.0269 61.1207C13.2643 60.8833 13.5862 60.75 13.9219 60.75H20.25C20.5857 60.75 20.9076 60.8833 21.1449 61.1207C21.3823 61.358 21.5156 61.68 21.5156 62.0156C21.5156 62.3513 21.3823 62.6732 21.1449 62.9106C20.9076 63.1479 20.5857 63.2812 20.25 63.2812Z" fill="#D32B39"/>
<path d="M17.7188 51.8906H50.625C51.2963 51.8906 51.9402 52.1573 52.4149 52.632C52.8896 53.1067 53.1562 53.7505 53.1562 54.4219C53.1562 55.0932 52.8896 55.737 52.4149 56.2117C51.9402 56.6864 51.2963 56.9531 50.625 56.9531H17.7188V51.8906Z" fill="#CBCBCB"/>
<path d="M53.1562 77.2031H20.25C18.236 77.2031 16.3045 76.4031 14.8804 74.979C13.4563 73.5549 12.6562 71.6234 12.6562 69.6094C12.6562 67.5954 13.4563 65.6639 14.8804 64.2398C16.3045 62.8157 18.236 62.0156 20.25 62.0156H53.1562V77.2031Z" fill="#EA9D2D"/>
<path d="M53.1562 67.0781H20.25C19.5787 67.0781 18.9348 67.3448 18.4601 67.8195C17.9854 68.2942 17.7188 68.938 17.7188 69.6094C17.7188 70.2807 17.9854 70.9245 18.4601 71.3992C18.9348 71.8739 19.5787 72.1406 20.25 72.1406H53.1562V67.0781Z" fill="#CBCBCB"/>
<path d="M21.7328 27.6265L21.5156 27.8438H13.9219L13.7047 27.6265C12.5698 26.4916 11.6695 25.1443 11.0553 23.6615C10.4411 22.1787 10.125 20.5894 10.125 18.9844C10.125 16.9704 10.9251 15.0389 12.3492 13.6148C13.7733 12.1907 15.7048 11.3906 17.7188 11.3906C19.7327 11.3906 21.6642 12.1907 23.0883 13.6148C24.5124 15.0389 25.3125 16.9704 25.3125 18.9844C25.3125 20.5894 24.9964 22.1787 24.3822 23.6615C23.768 25.1443 22.8677 26.4916 21.7328 27.6265Z" fill="#EA9D2D"/>
<path d="M21.145 18.0895C21.0275 17.9719 20.8879 17.8787 20.7344 17.8151C20.5808 17.7515 20.4162 17.7187 20.25 17.7188C20.0838 17.7187 19.9192 17.7515 19.7657 17.8151C19.6121 17.8787 19.4726 17.9719 19.3551 18.0895L17.7188 19.7259L16.0825 18.0895C15.8451 17.8521 15.5232 17.7188 15.1875 17.7188C14.8519 17.7188 14.5299 17.8521 14.2926 18.0895C14.0552 18.3268 13.9219 18.6487 13.9219 18.9844C13.9219 19.3201 14.0552 19.642 14.2926 19.8794L16.4532 22.04V27.8438C16.4532 28.1795 16.5865 28.5014 16.8239 28.7387C17.0612 28.9761 17.3831 29.1094 17.7188 29.1094C18.0545 29.1094 18.3764 28.9761 18.6137 28.7387C18.8511 28.5014 18.9844 28.1795 18.9844 27.8438V22.04L21.145 19.8794C21.2625 19.7619 21.3558 19.6223 21.4194 19.4688C21.483 19.3152 21.5157 19.1506 21.5157 18.9844C21.5157 18.8182 21.483 18.6536 21.4194 18.5001C21.3558 18.3465 21.2625 18.207 21.145 18.0895Z" fill="#C38325"/>
<path d="M17.7188 7.59375C17.3831 7.59375 17.0612 7.46041 16.8238 7.22306C16.5865 6.98571 16.4531 6.66379 16.4531 6.32812V3.79688C16.4531 3.46121 16.5865 3.13929 16.8238 2.90194C17.0612 2.66459 17.3831 2.53125 17.7188 2.53125C18.0544 2.53125 18.3763 2.66459 18.6137 2.90194C18.851 3.13929 18.9844 3.46121 18.9844 3.79688V6.32812C18.9844 6.66379 18.851 6.98571 18.6137 7.22306C18.3763 7.46041 18.0544 7.59375 17.7188 7.59375Z" fill="#FBB540"/>
<path d="M12.0248 9.11974C11.8024 9.11996 11.5839 9.06158 11.3912 8.95049C11.1986 8.8394 11.0386 8.67951 10.9275 8.48693L9.66183 6.29487C9.57741 6.15088 9.52232 5.99161 9.4997 5.82624C9.47709 5.66087 9.48742 5.49266 9.53008 5.33129C9.57274 5.16992 9.6469 5.01859 9.74829 4.886C9.84968 4.75341 9.97629 4.64219 10.1208 4.55873C10.2654 4.47527 10.425 4.42123 10.5905 4.39972C10.756 4.3782 10.9242 4.38964 11.0853 4.43337C11.2463 4.47711 11.3972 4.55227 11.5291 4.65453C11.661 4.7568 11.7714 4.88414 11.8539 5.02924L13.1195 7.2213C13.2305 7.41361 13.289 7.63174 13.2891 7.85379C13.2891 8.07585 13.2308 8.29401 13.1198 8.48637C13.0089 8.67873 12.8493 8.83852 12.6571 8.94969C12.4649 9.06087 12.2468 9.11951 12.0248 9.11974Z" fill="#FBB540"/>
<path d="M7.85312 13.2889C7.63127 13.289 7.41335 13.2304 7.22142 13.1192L5.02935 11.8536C4.74104 11.6845 4.53128 11.4083 4.44585 11.0852C4.36043 10.7621 4.40627 10.4183 4.57338 10.1289C4.74049 9.83946 5.0153 9.62788 5.33783 9.54031C5.66037 9.45274 6.00444 9.49631 6.29498 9.66149L8.48704 10.9271C8.72847 11.0664 8.91715 11.2816 9.02379 11.5391C9.13043 11.7966 9.14907 12.0822 9.07681 12.3514C9.00455 12.6206 8.84544 12.8584 8.62417 13.028C8.40291 13.1975 8.13186 13.2892 7.85312 13.2889Z" fill="#FBB540"/>
<path d="M6.32812 18.9844H3.79688C3.46121 18.9844 3.13929 18.851 2.90194 18.6137C2.66459 18.3763 2.53125 18.0544 2.53125 17.7188C2.53125 17.3831 2.66459 17.0612 2.90194 16.8238C3.13929 16.5865 3.46121 16.4531 3.79688 16.4531H6.32812C6.66379 16.4531 6.98571 16.5865 7.22306 16.8238C7.46041 17.0612 7.59375 17.3831 7.59375 17.7188C7.59375 18.0544 7.46041 18.3763 7.22306 18.6137C6.98571 18.851 6.66379 18.9844 6.32812 18.9844Z" fill="#FBB540"/>
<path d="M5.66384 25.9452C5.38508 25.9455 5.11402 25.8538 4.89272 25.6843C4.67143 25.5148 4.51229 25.2769 4.44001 25.0077C4.36774 24.7385 4.38636 24.4529 4.493 24.1954C4.59964 23.9378 4.78832 23.7227 5.02976 23.5834L7.22182 22.3177C7.51236 22.1526 7.85644 22.109 8.17897 22.1966C8.50151 22.2841 8.77631 22.4957 8.94342 22.7851C9.11053 23.0746 9.15637 23.4184 9.07095 23.7415C8.98553 24.0646 8.77577 24.3408 8.48745 24.5098L6.29539 25.7754C6.10347 25.8866 5.88562 25.9451 5.66384 25.9452Z" fill="#FBB540"/>
<path d="M23.4128 9.11974C23.1907 9.11951 22.9726 9.06087 22.7804 8.94969C22.5882 8.83852 22.4286 8.67873 22.3177 8.48637C22.2067 8.29401 22.1484 8.07585 22.1484 7.85379C22.1485 7.63174 22.207 7.41361 22.318 7.2213L23.5836 5.02924C23.6661 4.88414 23.7765 4.7568 23.9084 4.65453C24.0403 4.55227 24.1912 4.47711 24.3522 4.43337C24.5133 4.38964 24.6815 4.3782 24.847 4.39972C25.0125 4.42123 25.1721 4.47527 25.3167 4.55873C25.4612 4.64219 25.5878 4.75341 25.6892 4.886C25.7906 5.01859 25.8648 5.16992 25.9074 5.33129C25.9501 5.49266 25.9604 5.66087 25.9378 5.82624C25.9152 5.99161 25.8601 6.15088 25.7757 6.29487L24.5101 8.48693C24.3989 8.67951 24.2389 8.8394 24.0463 8.95049C23.8536 9.06158 23.6351 9.11996 23.4128 9.11974Z" fill="#FBB540"/>
<path d="M21.5156 32.9062L18.9844 35.4375H16.4531L13.9219 32.9062V27.8438H21.5156V32.9062Z" fill="#CBCBCB"/>
<path d="M13.9219 32.9062H21.5156L18.9844 35.4375H16.4531L13.9219 32.9062Z" fill="#EAEAE8"/>
</svg>
