<svg width="81" height="81" viewBox="0 0 81 81" fill="none" xmlns="http://www.w3.org/2000/svg">
<g clip-path="url(#clip0)">
<path d="M60.0517 67.7329H75.4138C78.499 67.7329 81 65.2319 81 62.1467V11.8709C81 8.7857 78.499 6.28467 75.4138 6.28467H5.58621C2.50103 6.28467 0 8.7857 0 11.8709V62.1467C0 65.2319 2.50103 67.7329 5.58621 67.7329H60.0517Z" fill="#F3D55B"/>
<path d="M50.2757 56.5605H13.9654C10.8802 56.5605 8.37915 54.0594 8.37915 50.9743V23.0432C8.37915 19.9581 10.8802 17.457 13.9654 17.457H50.2757V56.5605Z" fill="white"/>
<path d="M50.2758 57.9571H13.9654C10.1109 57.9525 6.98728 54.8289 6.98267 50.9743V23.0433C6.98728 19.1887 10.1109 16.0652 13.9654 16.0605H50.2758C51.0471 16.0605 51.6723 16.6858 51.6723 17.4571V56.5605C51.6723 57.3318 51.0471 57.9571 50.2758 57.9571ZM13.9654 18.8537C11.6515 18.8537 9.77577 20.7294 9.77577 23.0433V50.9743C9.77577 53.2882 11.6515 55.164 13.9654 55.164H48.8792V18.8537H13.9654Z" fill="#E4C05C"/>
<path d="M34.9139 38.4049H15.3621C14.5908 38.4049 13.9656 37.7797 13.9656 37.0084C13.9656 36.2371 14.5908 35.6118 15.3621 35.6118H34.9139C35.6851 35.6118 36.3104 36.2371 36.3104 37.0084C36.3104 37.7797 35.6851 38.4049 34.9139 38.4049Z" fill="#547580"/>
<path d="M34.9139 32.8185H15.3621C14.5908 32.8185 13.9656 32.1932 13.9656 31.4219C13.9656 30.6506 14.5908 30.0254 15.3621 30.0254H34.9139C35.6851 30.0254 36.3104 30.6506 36.3104 31.4219C36.3104 32.1932 35.6851 32.8185 34.9139 32.8185Z" fill="#547580"/>
<path d="M34.9136 27.2326H15.3619C14.5906 27.2326 13.9653 26.6073 13.9653 25.836C13.9653 25.0647 14.5906 24.4395 15.3619 24.4395H34.9136C35.6849 24.4395 36.3102 25.0647 36.3102 25.836C36.3102 26.6073 35.6849 27.2326 34.9136 27.2326Z" fill="#547580"/>
<path d="M15.3621 52.3703C14.7002 52.371 14.1287 51.9069 13.9935 51.259C13.8582 50.611 14.1965 49.9571 14.8035 49.6931C15.7773 49.3446 16.6773 48.817 17.4569 48.1373C18.1701 47.4373 18.5614 46.4731 18.5379 45.4741C18.4956 44.7829 18.9663 44.1652 19.6438 44.0224C20.3214 43.8796 21.0013 44.2549 21.2416 44.9043C21.6637 46.1635 22.5104 47.2367 23.6367 47.9404C23.9023 48.1344 24.2321 48.2193 24.5584 48.1778C24.7661 48.0399 24.8856 47.8026 24.8726 47.5536C24.8239 46.8614 25.2907 46.2384 25.9687 46.0908C26.6467 45.9433 27.3302 46.3158 27.5736 46.9656C27.7132 47.3357 28.047 47.8608 29.35 48.1611L30.4295 48.4166C32.3063 48.9791 34.2578 49.2522 36.2168 49.2266C36.9862 49.1711 37.6549 49.7498 37.7104 50.5191C37.766 51.2885 37.1873 51.9572 36.4179 52.0127C34.1729 52.0609 31.9337 51.7641 29.7787 51.1329L28.7229 50.8829C27.994 50.7281 27.2978 50.4469 26.6658 50.052C26.3509 50.3761 25.9699 50.6286 25.5486 50.7922C24.4495 51.1622 23.2415 51.0078 22.2709 50.3732C21.5749 49.9738 20.9481 49.4645 20.4148 48.8649C20.1412 49.322 19.8129 49.7441 19.4373 50.1218C18.4135 51.0526 17.2194 51.7768 15.9207 52.2543C15.7447 52.3316 15.5544 52.3711 15.3621 52.3703Z" fill="#547580"/>
<path d="M60.0516 59.354V72.7413C60.0514 73.3061 59.7112 73.8152 59.1894 74.0313C58.6676 74.2474 58.0671 74.128 57.6676 73.7287L54.4654 70.5264L51.2631 73.7287C50.8637 74.128 50.2631 74.2474 49.7413 74.0313C49.2195 73.8152 48.8793 73.3061 48.8792 72.7413V39.8022C49.277 40.1958 49.8139 40.4166 50.3735 40.4167C50.6267 40.4165 50.8777 40.3692 51.1136 40.2771C51.3488 40.1825 51.6003 40.1351 51.8538 40.1374C52.6939 40.1427 53.4554 40.6322 53.809 41.3943C54.1563 42.1535 54.9153 42.6395 55.7502 42.6372C56.2898 42.6394 56.8096 42.4344 57.2026 42.0647C57.2166 42.0507 57.2445 42.0367 57.2585 42.0228L60.0516 59.354Z" fill="#FF5364"/>
<path d="M68.431 39.8022V58.7758C68.4308 59.3406 68.0906 59.8497 67.5688 60.0658C67.047 60.2819 66.4464 60.1624 66.047 59.7632L62.8447 56.5609L59.6425 59.7632C59.2431 60.1624 58.6425 60.2819 58.1207 60.0658C57.5989 59.8497 57.2587 59.3406 57.2585 58.7758V42.0172C58.0767 41.2938 59.311 41.3119 60.1075 42.0591C60.5005 42.4288 61.0203 42.6338 61.5599 42.6317C62.3948 42.6339 63.1538 42.1479 63.5011 41.3887C63.8547 40.6267 64.6162 40.1371 65.4563 40.1318C65.7098 40.1295 65.9613 40.1769 66.1965 40.2715C66.4324 40.3636 66.6834 40.411 66.9366 40.4111C67.4954 40.4125 68.0322 40.1937 68.431 39.8022Z" fill="#DF4D60"/>
<path d="M74.8414 30.0821C75.2112 30.4751 75.4161 30.995 75.414 31.5346C75.4162 32.3694 74.9302 33.1285 74.1711 33.4758C73.409 33.8293 72.9194 34.5909 72.9142 35.4309C72.9118 35.6844 72.9592 35.9359 73.0538 36.1711C73.1459 36.407 73.1933 36.658 73.1935 36.9113C73.1876 38.062 72.2764 39.0039 71.1266 39.048C70.0102 39.089 69.1146 39.9845 69.0736 41.1009C69.0613 41.6513 68.8301 42.174 68.4312 42.5534C68.0334 42.9469 67.4965 43.1677 66.9369 43.1678C66.6837 43.1677 66.4327 43.1203 66.1967 43.0282C65.9615 42.9336 65.7101 42.8862 65.4566 42.8885C64.6165 42.8938 63.8549 43.3834 63.5014 44.1454C63.1541 44.9046 62.395 45.3906 61.5602 45.3884C61.0206 45.3905 60.5008 45.1855 60.1078 44.8158C59.3113 44.0686 58.077 44.0505 57.2588 44.7739C57.2448 44.7878 57.2169 44.8018 57.203 44.8158C56.81 45.1855 56.2901 45.3905 55.7505 45.3884C54.9157 45.3906 54.1566 44.9046 53.8093 44.1454C53.4558 43.3834 52.6942 42.8938 51.8542 42.8885C51.6007 42.8862 51.3492 42.9336 51.114 43.0282C50.8781 43.1203 50.6271 43.1677 50.3738 43.1678C49.8142 43.1677 49.2773 42.9469 48.8795 42.5534C48.4806 42.174 48.2494 41.6513 48.2371 41.1009C48.1961 39.9845 47.3006 39.089 46.1842 39.048C45.0343 39.0039 44.1231 38.062 44.1173 36.9113C44.1174 36.658 44.1648 36.407 44.2569 36.1711C44.3515 35.9359 44.3989 35.6844 44.3966 35.4309C44.3913 34.5909 43.9017 33.8293 43.1397 33.4758C42.3805 33.1285 41.8945 32.3694 41.8967 31.5346C41.8946 30.995 42.0996 30.4751 42.4693 30.0821C43.2328 29.2644 43.2328 27.9951 42.4693 27.1773C42.0996 26.7843 41.8946 26.2645 41.8967 25.7249C41.8945 24.8901 42.3805 24.131 43.1397 23.7837C43.9017 23.4302 44.3913 22.6686 44.3966 21.8285C44.3989 21.575 44.3515 21.3236 44.2569 21.0884C44.1648 20.8524 44.1174 20.6014 44.1173 20.3482C44.1231 19.1975 45.0343 18.2556 46.1842 18.2115C47.3006 18.1705 48.1961 17.2749 48.2371 16.1585C48.2812 15.0087 49.2231 14.0975 50.3738 14.0916C50.6271 14.0918 50.8781 14.1392 51.114 14.2313C51.3492 14.3259 51.6007 14.3733 51.8542 14.3709C52.6942 14.3657 53.4558 13.8761 53.8093 13.114C54.1566 12.3549 54.9157 11.8688 55.7505 11.8711C56.2901 11.869 56.81 12.0739 57.203 12.4437C58.0207 13.2072 59.29 13.2072 60.1078 12.4437C60.6095 11.978 61.304 11.7808 61.9755 11.9135C62.6471 12.0461 63.2145 12.4925 63.5014 13.114C63.8549 13.8761 64.6165 14.3657 65.4566 14.3709C65.7101 14.3733 65.9615 14.3259 66.1967 14.2313C66.4327 14.1392 66.6837 14.0918 66.9369 14.0916C68.0876 14.0975 69.0295 15.0087 69.0736 16.1585C69.1146 17.2749 70.0102 18.1705 71.1266 18.2115C72.2764 18.2556 73.1876 19.1975 73.1935 20.3482C73.1933 20.6014 73.1459 20.8524 73.0538 21.0884C72.9592 21.3236 72.9118 21.575 72.9142 21.8285C72.9194 22.6686 73.409 23.4302 74.1711 23.7837C74.9302 24.131 75.4162 24.8901 75.414 25.7249C75.4161 26.2645 75.2112 26.7843 74.8414 27.1773C74.0779 27.9951 74.0779 29.2644 74.8414 30.0821Z" fill="#FB7B76"/>
<path d="M58.655 38.4052C64.0541 38.4052 68.4309 34.0284 68.4309 28.6294C68.4309 23.2303 64.0541 18.8535 58.655 18.8535C53.256 18.8535 48.8792 23.2303 48.8792 28.6294C48.8792 34.0284 53.256 38.4052 58.655 38.4052Z" fill="white"/>
<path d="M58.6551 39.8019C52.4847 39.8019 47.4827 34.7998 47.4827 28.6294C47.4827 22.4591 52.4847 17.457 58.6551 17.457C64.8254 17.457 69.8275 22.4591 69.8275 28.6294C69.8206 34.7969 64.8226 39.7949 58.6551 39.8019ZM58.6551 20.2501C54.0273 20.2501 50.2758 24.0017 50.2758 28.6294C50.2758 33.2572 54.0273 37.0088 58.6551 37.0088C63.2828 37.0088 67.0344 33.2572 67.0344 28.6294C67.0298 24.0036 63.2809 20.2548 58.6551 20.2501Z" fill="#F3D55B"/>
</g>
<defs>
<clipPath id="clip0">
<rect width="81" height="81" fill="white"/>
</clipPath>
</defs>
</svg>
