<svg width="107" height="105" viewBox="0 0 107 105" fill="none" xmlns="http://www.w3.org/2000/svg">
<g clip-path="url(#clip0)">
<path fill-rule="evenodd" clip-rule="evenodd" d="M0 79.2249L0.575269 72.1059H1.30011L3.18699 76.2949L3.53215 77.1762C3.65871 76.8329 3.77376 76.5467 3.88882 76.2949L5.75269 72.1059H6.47753L7.0528 79.2364H6.37398L5.97129 74.2462V73.2504C5.82172 73.6625 5.69516 73.9944 5.59161 74.2347L3.90032 77.8973H3.21L1.53022 74.2347L1.15054 73.2504C1.15054 73.6625 1.15054 74.0058 1.15054 74.2576L0.701828 79.2249H0ZM9.2043 75.6082C9.19034 75.1292 9.27731 74.6527 9.45961 74.2092C9.64191 73.7656 9.9155 73.365 10.2628 73.033C10.5991 72.6909 11.0023 72.4209 11.4475 72.2398C11.8928 72.0587 12.3706 71.9703 12.8515 71.98C13.3317 71.9754 13.8081 72.0661 14.2527 72.2468C14.6972 72.4276 15.1011 72.6946 15.4407 73.0325C15.7803 73.3703 16.0488 73.7721 16.2305 74.2143C16.4121 74.6566 16.5033 75.1305 16.4987 75.6082C16.5094 76.0987 16.4213 76.5863 16.2395 77.0424C16.0577 77.4984 15.7859 77.9136 15.4402 78.2635C15.1036 78.6075 14.7011 78.881 14.2565 79.0677C13.8118 79.2544 13.3341 79.3506 12.8515 79.3506C12.3689 79.3506 11.8912 79.2544 11.4466 79.0677C11.0019 78.881 10.5994 78.6075 10.2628 78.2635C9.91493 77.9152 9.64175 77.5003 9.45981 77.0438C9.27786 76.5874 9.19094 76.099 9.2043 75.6082ZM9.92914 75.6082C9.9152 76.0151 9.98223 76.4207 10.1264 76.8018C10.2705 77.1828 10.4889 77.5318 10.769 77.8286C11.0338 78.1113 11.3544 78.3365 11.7108 78.4902C12.0672 78.6438 12.4516 78.7225 12.84 78.7213C13.2365 78.7318 13.6307 78.6576 13.9959 78.5036C14.3611 78.3495 14.6888 78.1194 14.957 77.8286C15.5181 77.2355 15.8201 76.4453 15.7969 75.6311C15.8104 75.2363 15.7429 74.8429 15.5985 74.4749C15.4541 74.1069 15.2358 73.7721 14.957 73.4908C14.6905 73.2126 14.3688 72.9927 14.0123 72.8449C13.6557 72.6971 13.2722 72.6248 12.886 72.6324C12.5001 72.6268 12.1172 72.7001 11.761 72.8478C11.4048 72.9955 11.0828 73.2143 10.8151 73.4908C10.5375 73.7688 10.3191 74.0996 10.1729 74.4633C10.0266 74.8271 9.95543 75.2165 9.96366 75.6082H9.92914ZM18.4316 75.6082C18.416 75.1297 18.4977 74.6529 18.6717 74.2065C18.8456 73.7601 19.1083 73.3532 19.4441 73.0101C19.7788 72.6667 20.182 72.3966 20.6278 72.2173C21.0736 72.0379 21.5522 71.9532 22.0328 71.9686C22.9832 71.9227 23.9135 72.2517 24.6215 72.8842L24.2418 73.4107C23.9465 73.154 23.6021 72.9594 23.2294 72.8384C22.8621 72.6976 22.4724 72.6239 22.0788 72.6209C21.6914 72.6088 21.3057 72.678 20.9469 72.8239C20.5881 72.9698 20.2643 73.1892 19.9963 73.4679C19.4636 74.0479 19.1788 74.8115 19.2025 75.5968C19.1772 76.405 19.4656 77.1919 20.0078 77.7943C20.2723 78.0866 20.5977 78.3179 20.9614 78.4721C21.3251 78.6263 21.7182 78.6996 22.1133 78.687C22.5414 78.6905 22.9657 78.6082 23.361 78.445C23.7564 78.2818 24.1146 78.041 24.4144 77.737L24.8286 78.2292C24.4728 78.5962 24.0454 78.8871 23.5725 79.0839C23.0997 79.2807 22.5914 79.3794 22.0788 79.3737C21.5927 79.3894 21.1087 79.3026 20.6586 79.1192C20.2085 78.9358 19.8025 78.6598 19.4671 78.3093C19.1198 77.9535 18.8474 77.5323 18.6656 77.0705C18.4839 76.6087 18.3965 76.1154 18.4086 75.6196L18.4316 75.6082ZM27.0261 79.2135V72.1059H27.728V75.1962H28.936L30.8574 72.1059H31.6628L29.5113 75.4823L31.8124 79.2249H30.9955L28.936 75.7913H27.7165V79.2249L27.0261 79.2135ZM33.3656 75.6082C33.3558 75.1298 33.4447 74.6545 33.6268 74.2115C33.8088 73.7686 34.0802 73.3675 34.4241 73.033C34.7616 72.6925 35.165 72.4236 35.61 72.2426C36.0549 72.0616 36.5322 71.9723 37.0128 71.98C37.4931 71.977 37.9693 72.0687 38.4139 72.2498C38.8584 72.4309 39.2624 72.6979 39.6026 73.0352C39.9428 73.3726 40.2124 73.7737 40.3959 74.2153C40.5794 74.6569 40.673 75.1303 40.6715 75.6082C40.6834 76.0998 40.5946 76.5887 40.4107 77.0452C40.2267 77.5017 39.9514 77.9162 39.6015 78.2635C39.276 78.6256 38.8769 78.9149 38.4306 79.1122C37.9844 79.3095 37.5011 79.4103 37.0128 79.4081C36.5245 79.4103 36.0412 79.3095 35.595 79.1122C35.1487 78.9149 34.7496 78.6256 34.4241 78.2635C34.0784 77.9136 33.8066 77.4984 33.6248 77.0424C33.443 76.5863 33.3549 76.0987 33.3656 75.6082ZM34.1019 75.6082C34.0911 76.0167 34.1617 76.4232 34.3098 76.8044C34.458 77.1855 34.6806 77.5336 34.9648 77.8286C35.2298 78.1133 35.5511 78.3404 35.9084 78.4957C36.2658 78.651 36.6516 78.7312 37.0416 78.7312C37.4315 78.7312 37.8173 78.651 38.1747 78.4957C38.5321 78.3404 38.8533 78.1133 39.1183 77.8286C39.6825 77.2366 39.9886 76.4467 39.9697 75.6311C39.981 75.2356 39.9114 74.8419 39.765 74.4739C39.6187 74.106 39.3986 73.7715 39.1183 73.4908C38.8485 73.2185 38.527 73.0022 38.1725 72.8546C37.8179 72.707 37.4374 72.6309 37.0531 72.6309C36.6687 72.6309 36.2882 72.707 35.9337 72.8546C35.5791 73.0022 35.2576 73.2185 34.9879 73.4908C34.7103 73.7688 34.4919 74.0996 34.3457 74.4633C34.1994 74.8271 34.1282 75.2165 34.1365 75.6082H34.1019ZM43.0646 79.2249V72.1059H45.5153C46.0252 72.0885 46.5228 72.2644 46.9074 72.5981C47.0878 72.7631 47.2296 72.9655 47.3231 73.1909C47.4165 73.4163 47.4592 73.6593 47.4482 73.9028C47.4708 74.223 47.3963 74.5426 47.2342 74.8201C47.0721 75.0976 46.83 75.3203 46.5392 75.4594C46.9032 75.5523 47.2167 75.782 47.4137 76.1003C47.6418 76.4381 47.7584 76.8381 47.7473 77.2449C47.762 77.5141 47.7182 77.7832 47.6189 78.034C47.5196 78.2849 47.3672 78.5115 47.172 78.6985C46.7399 79.0552 46.1916 79.2425 45.6303 79.2249H43.0646ZM43.7665 75.1962H45.5153C45.6771 75.2034 45.8386 75.1765 45.9893 75.1174C46.14 75.0582 46.2764 74.968 46.3897 74.8528C46.6159 74.6067 46.7357 74.2819 46.7233 73.9486C46.7337 73.7866 46.7094 73.6242 46.6518 73.4722C46.5943 73.3203 46.5049 73.1823 46.3897 73.0673C46.2738 72.9491 46.1337 72.8572 45.9788 72.7979C45.8238 72.7386 45.6579 72.7134 45.4923 72.724H43.7665V75.1962ZM43.7665 78.6298H45.6073C45.7952 78.6434 45.9838 78.6167 46.1603 78.5513C46.3368 78.486 46.4971 78.3836 46.6303 78.2511C46.7635 78.1186 46.8664 77.9591 46.9321 77.7835C46.9978 77.6079 47.0247 77.4203 47.011 77.2334C47.0205 77.0459 46.9907 76.8585 46.9233 76.6831C46.856 76.5077 46.7526 76.3482 46.6198 76.2148C46.4845 76.0844 46.3239 75.9826 46.1479 75.9158C45.9719 75.8489 45.7841 75.8182 45.5958 75.8257H43.778V78.6298H43.7665ZM49.6802 75.6425C49.6673 75.1643 49.7501 74.6883 49.9239 74.2422C50.0978 73.7962 50.3591 73.389 50.6927 73.0444C51.0274 72.701 51.4306 72.431 51.8764 72.2516C52.3222 72.0723 52.8008 71.9875 53.2814 72.0029C54.2318 71.957 55.1621 72.2861 55.8701 72.9185L55.4904 73.445C55.1995 73.1884 54.8588 72.9937 54.4895 72.8727C54.1217 72.7338 53.7323 72.6602 53.3389 72.6553C52.9512 72.641 52.5649 72.7091 52.2058 72.8551C51.8467 73.0012 51.523 73.2218 51.2565 73.5022C50.7163 74.0784 50.4268 74.8436 50.4511 75.6311C50.4258 76.4393 50.7142 77.2262 51.2565 77.8286C51.5236 78.1206 51.8512 78.3516 52.2166 78.5057C52.5821 78.6598 52.9767 78.7333 53.3734 78.7213C53.8015 78.7248 54.2258 78.6425 54.6212 78.4793C55.0165 78.3161 55.3747 78.0753 55.6745 77.7714L56.0772 78.2635C55.724 78.6308 55.2987 78.9219 54.8276 79.1188C54.3565 79.3157 53.8498 79.4142 53.3389 79.4081C52.8509 79.4254 52.3647 79.3394 51.9125 79.1559C51.4603 78.9724 51.0524 78.6956 50.7157 78.3436C50.0421 77.6197 49.6788 76.663 49.7032 75.6769L49.6802 75.6425ZM58.2747 79.2478V72.1059H58.9881V75.1962H60.1386L62.129 72.1059H62.9344L60.7829 75.4823L63.084 79.2249H62.2556L60.1961 75.7913H59.0456V79.2249L58.2747 79.2478ZM65.178 79.2478V72.1059H65.8798V77.2449V78.2063C66.1329 77.7828 66.34 77.4623 66.5011 77.222L70.0447 72.1059H70.7351V79.2364H70.0332V74.0974L70.0908 73.136C69.8491 73.5366 69.6535 73.857 69.4925 74.0974L65.8453 79.2249L65.178 79.2478ZM77.4197 71.465C77.1501 71.682 76.8113 71.7957 76.4647 71.7854C76.1217 71.7949 75.7868 71.6812 75.5213 71.465C75.3912 71.3607 75.2872 71.228 75.2173 71.0771C75.1474 70.9262 75.1136 70.7612 75.1186 70.5951V70.4234H75.7284V70.5722C75.7225 70.669 75.7391 70.7659 75.7771 70.8552C75.815 70.9445 75.8731 71.024 75.947 71.0873C76.09 71.2115 76.275 71.2769 76.4647 71.2704C76.6578 71.2764 76.8463 71.2112 76.994 71.0873C77.0695 71.0222 77.1294 70.9412 77.1692 70.85C77.209 70.7589 77.2278 70.6601 77.2241 70.5608V70.4234H77.8109V70.5951C77.8181 70.7604 77.7865 70.925 77.7186 71.076C77.6507 71.227 77.5483 71.3602 77.4197 71.465ZM73.6344 79.2249V72.1059H74.3362V77.2449V78.2063C74.5262 77.8678 74.7336 77.5393 74.9575 77.222L78.5127 72.1059H79.1915V79.2364H78.4897V74.0974L78.5587 73.136C78.3171 73.5366 78.1215 73.857 77.9604 74.0974L74.3017 79.2249H73.6344ZM0.276129 91.4028V84.2724H0.977957V89.3999L0.92043 90.4185C1.10772 90.0785 1.31518 89.7498 1.54172 89.4342L5.16591 84.3181H5.86774V91.4486H5.16591V86.2753L5.23495 85.3024C4.99333 85.7145 4.79774 86.0349 4.63667 86.2753L0.954946 91.4028H0.276129ZM8.74409 91.4028V84.2724H9.44591V87.5228H13.5878V84.2724H14.3012V91.4028H13.5878V88.1295H9.44591V91.3914L8.74409 91.4028ZM17.6608 90.7733H21.331V84.9019H18.7883V85.6801C18.9144 87.4533 18.5144 89.2243 17.6377 90.7733H17.6608ZM16.1881 90.7733H16.9129C17.4094 90.0966 17.7367 89.3119 17.8678 88.4843C18.0276 87.535 18.1046 86.5739 18.098 85.6115V84.2724H22.0328V90.7733H22.8382V92.8221H22.1824V91.4028H16.8554V92.8221H16.1881V90.7733ZM24.9206 91.0824L25.2543 90.5559C25.4947 90.7492 25.7866 90.8686 26.0942 90.8992C26.1935 90.9033 26.2924 90.8836 26.3825 90.8418C26.4726 90.8 26.5513 90.7372 26.6119 90.6589C26.776 90.4359 26.9041 90.1887 26.9916 89.9264L24.1613 84.2724H24.9437L26.9111 88.2439L27.3253 89.1824C27.4403 88.8505 27.5439 88.5415 27.6474 88.2554L29.1316 84.2724H29.914L27.6129 90.2812C27.2908 91.1052 26.8075 91.5287 26.1747 91.5287C25.7545 91.4998 25.3531 91.3441 25.0242 91.0824H24.9206ZM31.4327 87.7861C31.4178 87.3076 31.4997 86.8311 31.6737 86.3847C31.8476 85.9384 32.11 85.5314 32.4452 85.188C32.7799 84.8446 33.1831 84.5745 33.6289 84.3952C34.0747 84.2158 34.5532 84.1311 35.0339 84.1465C35.5056 84.1228 35.9773 84.1925 36.4217 84.3517C36.8661 84.5108 37.2743 84.7562 37.6226 85.0735L37.2429 85.5886C36.9447 85.336 36.6012 85.1419 36.2304 85.0163C35.8611 84.8843 35.4723 84.8147 35.0799 84.8103C34.6925 84.7981 34.3068 84.8673 33.948 85.0132C33.5892 85.1591 33.2653 85.3786 32.9974 85.6572C32.4656 86.2371 32.1846 87.0018 32.2151 87.7861C32.1928 88.5904 32.481 89.3727 33.0204 89.9722C33.2829 90.267 33.6079 90.5 33.9721 90.6544C34.3363 90.8088 34.7304 90.8807 35.1259 90.8649C35.5532 90.8705 35.9773 90.7903 36.3727 90.6291C36.768 90.4678 37.1267 90.2288 37.427 89.9264L37.8412 90.4185C37.4838 90.7834 37.056 91.0729 36.5835 91.2695C36.1111 91.4662 35.6036 91.566 35.0914 91.5631C34.5934 91.5735 34.0991 91.4766 33.6423 91.2791C33.1855 91.0815 32.7771 90.7879 32.4452 90.4185C32.1084 90.0621 31.8457 89.6431 31.6719 89.1855C31.4982 88.7279 31.4169 88.2407 31.4327 87.7518V87.7861ZM41.7875 91.4028V84.9019H39.1758V84.2724H45.0205V84.9019H42.4433V91.4028H41.7875ZM47.08 91.4028V84.2724H49.4731C50.0616 84.2562 50.634 84.4651 51.0724 84.8561C51.2946 85.0528 51.4722 85.2945 51.5932 85.5648C51.7142 85.8352 51.7759 86.1281 51.7742 86.4241C51.7864 86.7158 51.7374 87.0069 51.6305 87.2788C51.5235 87.5507 51.3609 87.7975 51.1529 88.0036C50.939 88.2028 50.6876 88.358 50.4131 88.4602C50.1386 88.5623 49.8465 88.6094 49.5537 88.5987H47.7358V91.4028H47.08ZM47.7818 87.9692H49.4731C49.6829 87.9809 49.8928 87.9504 50.0905 87.8796C50.2882 87.8088 50.4695 87.6992 50.6237 87.5572C50.9115 87.2448 51.0712 86.8364 51.0712 86.4126C51.0712 85.9889 50.9115 85.5805 50.6237 85.2681C50.3065 84.9919 49.8942 84.8484 49.4731 84.8675H47.7358V87.9349L47.7818 87.9692ZM53.9602 91.4028V84.2724H54.662V89.3999V90.3727C54.9152 89.9493 55.1223 89.6173 55.2833 89.3884L58.9075 84.2724H59.5978V91.4028H58.896V86.2753L58.9535 85.3024C58.7234 85.7145 58.5163 86.0349 58.3553 86.2753L54.7081 91.4028H53.9602ZM61.6113 91.4028L64.246 84.2724H64.9939L67.6286 91.4028H66.8808L66.0524 89.1138H63.176L62.3591 91.4028H61.6113ZM63.3831 88.5186H65.8453L64.9018 85.9319L64.6257 85.0049C64.526 85.4093 64.4339 85.7183 64.3496 85.9319L63.3946 88.5186H63.3831ZM68.7561 90.8077C69.4004 90.7276 69.8376 90.2583 70.0908 89.4113C70.3803 88.1973 70.5041 86.95 70.4589 85.703V84.2724H74.3938V91.4028H73.6344V84.9019H71.1032V85.7259C71.1085 86.4902 71.074 87.2543 70.9997 88.015C70.9409 88.613 70.8214 89.2036 70.643 89.7776C70.5105 90.24 70.2563 90.6588 69.9067 90.9908C69.5834 91.2654 69.1802 91.4299 68.7561 91.4601V90.7962V90.8077ZM77.2586 91.3914V84.2724H77.9604V87.1566H79.5942C80.1565 87.1359 80.705 87.3328 81.1244 87.706C81.3223 87.9143 81.4746 88.1612 81.5716 88.4311C81.6687 88.701 81.7084 88.988 81.6882 89.274C81.701 89.5542 81.6555 89.8341 81.5545 90.096C81.4536 90.358 81.2993 90.5964 81.1014 90.7962C80.9083 90.9907 80.6766 91.143 80.4211 91.2435C80.1655 91.344 79.8918 91.3905 79.6172 91.3799L77.2586 91.3914ZM77.9604 90.7619H79.5021C79.6891 90.777 79.8772 90.7544 80.0551 90.6954C80.2331 90.6364 80.3972 90.5422 80.5376 90.4185C80.6765 90.2639 80.7818 90.0825 80.8472 89.8856C80.9125 89.6886 80.9364 89.4805 80.9173 89.274C80.9347 89.0658 80.9079 88.8563 80.8385 88.6591C80.7691 88.4619 80.6588 88.2814 80.5146 88.1295C80.3784 87.9929 80.2147 87.8866 80.0343 87.8176C79.8538 87.7485 79.6607 87.7183 79.4676 87.7289H77.9144V90.7161L77.9604 90.7619ZM83.9202 91.3914V84.2724H84.6335V87.5228H88.7755V84.2724H89.4888V91.4028H88.7755V88.1295H84.6335V91.3914H83.9202ZM97.8762 91.3914V84.2724H98.5781V91.4028L97.8762 91.3914ZM92.3537 91.3914V84.2724H93.0555V87.1566H94.6662C95.2285 87.1359 95.777 87.3328 96.1964 87.706C96.3885 87.9173 96.5355 88.1653 96.6284 88.4348C96.7214 88.7043 96.7584 88.9898 96.7372 89.274C96.7495 89.5532 96.7049 89.832 96.606 90.0936C96.5071 90.3552 96.3561 90.5942 96.1619 90.7962C95.9688 90.9907 95.7371 91.143 95.4816 91.2435C95.2261 91.344 94.9523 91.3905 94.6777 91.3799L92.3537 91.3914ZM93.0555 90.7619H94.5742C94.7682 90.7741 94.9625 90.7458 95.1449 90.6788C95.3272 90.6118 95.4933 90.5075 95.6327 90.3727C95.8829 90.0606 96.0191 89.6732 96.0191 89.274C96.0191 88.8748 95.8829 88.4874 95.6327 88.1752C95.4943 88.0384 95.3286 87.932 95.1462 87.863C94.9639 87.794 94.769 87.7639 94.5742 87.7746H93.0095V90.7619H93.0555ZM105.217 83.5971C104.953 83.8174 104.618 83.9353 104.273 83.929C103.925 83.935 103.587 83.8173 103.318 83.5971C103.19 83.4923 103.087 83.3591 103.019 83.2081C102.951 83.0571 102.92 82.8925 102.927 82.7272V82.5555H103.525V82.7043C103.519 82.8011 103.536 82.898 103.574 82.9873C103.612 83.0767 103.67 83.1561 103.744 83.2194C103.892 83.3433 104.08 83.4086 104.273 83.4025C104.466 83.4065 104.654 83.3415 104.802 83.2194C104.877 83.1543 104.936 83.073 104.974 82.9816C105.012 82.8903 105.028 82.7915 105.021 82.6929V82.5555H105.619V82.7272C105.624 82.8933 105.591 83.0583 105.521 83.2092C105.451 83.3601 105.347 83.4929 105.217 83.5971ZM101.443 91.3914V84.2724H102.145V89.3999V90.3727C102.398 89.9493 102.605 89.6173 102.766 89.3884L106.39 84.2724H107V91.4028H106.298V86.2753V85.3024C106.057 85.7145 105.861 86.0349 105.7 86.2753L102.053 91.4028L101.443 91.3914ZM0.276129 103.569V96.4388H0.977957V99.5748H2.12849L4.0614 96.4731H4.86677L2.7728 99.8152L5.07387 103.558H4.24548L2.18602 100.124H1.03548V103.558L0.276129 103.569ZM6.6386 99.9525C6.62883 99.4741 6.71772 98.9988 6.89977 98.5559C7.08182 98.113 7.35318 97.7119 7.6971 97.3773C8.03462 97.0368 8.43805 96.768 8.88299 96.587C9.32794 96.406 9.80516 96.3167 10.2858 96.3244C10.7662 96.3213 11.2423 96.413 11.6869 96.5941C12.1314 96.7753 12.5354 97.0422 12.8756 97.3796C13.2158 97.7169 13.4854 98.118 13.6689 98.5596C13.8524 99.0013 13.946 99.4747 13.9445 99.9525C13.9564 100.444 13.8676 100.933 13.6837 101.39C13.4998 101.846 13.2245 102.261 12.8745 102.608C12.5438 102.96 12.1424 103.238 11.6964 103.425C11.2504 103.613 10.7698 103.705 10.2858 103.695C9.80179 103.705 9.32118 103.613 8.87519 103.425C8.4292 103.238 8.02781 102.96 7.6971 102.608C7.35138 102.258 7.07961 101.843 6.89781 101.387C6.71602 100.931 6.62788 100.443 6.6386 99.9525ZM7.37495 99.9525C7.35729 100.768 7.66316 101.557 8.22634 102.15C8.49281 102.428 8.81325 102.649 9.16824 102.801C9.52323 102.952 9.90538 103.03 10.2916 103.03C10.6777 103.03 11.0599 102.952 11.4149 102.801C11.7699 102.649 12.0903 102.428 12.3568 102.15C12.92 101.557 13.2258 100.768 13.2082 99.9525C13.2164 99.5608 13.1452 99.1715 12.999 98.8077C12.8527 98.4439 12.6343 98.1132 12.3568 97.8351C12.087 97.5628 11.7655 97.3465 11.411 97.1989C11.0564 97.0513 10.6759 96.9753 10.2916 96.9753C9.90721 96.9753 9.5267 97.0513 9.17216 97.1989C8.81761 97.3465 8.49611 97.5628 8.22634 97.8351C7.94883 98.1132 7.73042 98.4439 7.58415 98.8077C7.43787 99.1715 7.36673 99.5608 7.37495 99.9525ZM15.4287 102.997C16.073 102.905 16.5102 102.448 16.7633 101.601C17.0476 100.382 17.1714 99.1315 17.1315 97.8809V96.4388H21.0548V103.569H20.3415V97.0683H17.8103V97.8924C17.8152 98.6567 17.7807 99.4207 17.7068 100.181C17.6437 100.775 17.5242 101.361 17.3501 101.933C17.2208 102.396 16.9661 102.816 16.6138 103.146C16.2942 103.428 15.8896 103.597 15.4632 103.627V103.008L15.4287 102.997ZM23.0108 103.008C23.6435 102.917 24.0923 102.459 24.3339 101.612C24.6289 100.395 24.7566 99.1437 24.7135 97.8924V96.4388H28.6484V103.569H27.9351V97.0683H25.3809V97.8924C25.3858 98.6567 25.3512 99.4207 25.2773 100.181C25.2197 100.776 25.1002 101.363 24.9206 101.933C24.7907 102.411 24.5275 102.844 24.1613 103.18C23.8432 103.465 23.4378 103.634 23.0108 103.661V103.008ZM31.5017 103.581V96.4388H35.5286V97.0683H32.2151V99.6664H34.9418V100.296H32.2151V103.008H35.6667V103.627L31.5017 103.581ZM38.52 102.963H42.1902V97.0683H39.6245V97.858C39.7459 99.6309 39.3462 101.401 38.474 102.951L38.52 102.963ZM37.0358 102.963H37.7606C38.2567 102.284 38.5876 101.501 38.7271 100.674C38.8864 99.7243 38.9634 98.7632 38.9572 97.8008V96.4388H42.892V103.008H43.7204V105.057H43.0301V103.569H37.7031V105H37.0243V103.008L37.0358 102.963ZM45.1586 103.581L47.2986 99.8381L45.2967 96.4617H46.0905L47.8854 99.5748H48.9209V96.4388H49.6227V99.5748H50.6237L52.43 96.4731H53.2124L51.2219 99.8495L53.3734 103.592H52.5681L50.6237 100.159H49.5882V103.592H48.8863V100.159H47.8509L45.918 103.592L45.1586 103.581Z" fill="#1A1A18"/>
<path fill-rule="evenodd" clip-rule="evenodd" d="M34.3545 18.2096V18.0722V17.9692V17.8433V17.6373V17.1681V17.0422L50.8302 0.309001C51.0306 0.111204 51.3015 0.000213623 51.5838 0.000213623C51.8661 0.000213623 52.137 0.111204 52.3374 0.309001L72.863 20.7161C75.3251 22.9365 77.5917 25.3973 80.0538 27.8581C80.2742 28.1188 80.4372 28.4226 80.5323 28.7498C80.6275 29.0771 80.6526 29.4205 80.6061 29.758V55.8191C80.6061 56.0995 80.495 56.3685 80.2968 56.5678C80.0986 56.7671 79.8294 56.8805 79.5476 56.8836H74.025C73.2081 56.8836 73.1621 56.8034 72.5063 56.1511C61.9674 45.69 51.4361 35.2174 40.9126 24.7335L39.762 23.5889L34.3545 18.2096Z" fill="#CC1013"/>
<path fill-rule="evenodd" clip-rule="evenodd" d="M-0.000216759 55.8191V28.4876C-0.0128571 28.2707 0.043764 28.0553 0.161551 27.8724C0.279338 27.6894 0.452259 27.5482 0.65559 27.4689C0.848133 27.3868 1.06118 27.3648 1.2666 27.4056C1.47201 27.4465 1.66014 27.5484 1.80613 27.6978L29.2925 55.0752C29.4387 55.224 29.5378 55.4121 29.5777 55.6163C29.6176 55.8205 29.5964 56.0319 29.5169 56.2242C29.4373 56.4166 29.3028 56.5816 29.13 56.6988C28.9572 56.816 28.7537 56.8802 28.5446 56.8836H1.06978C0.786002 56.8836 0.513843 56.7714 0.313179 56.5718C0.112515 56.3722 -0.000216759 56.1014 -0.000216759 55.8191Z" fill="#003E70"/>
<path fill-rule="evenodd" clip-rule="evenodd" d="M33.8719 56.5745L0.747905 23.6233C0.549072 23.4239 0.4375 23.1544 0.4375 22.8736C0.4375 22.5927 0.549072 22.3233 0.747905 22.1239L17.2581 5.72267C17.4585 5.52487 17.7294 5.41388 18.0117 5.41388C18.294 5.41388 18.5649 5.52487 18.7653 5.72267L68.342 55.0752C68.4922 55.2204 68.5946 55.4076 68.6357 55.6119C68.6768 55.8163 68.6546 56.0282 68.5721 56.2197C68.4916 56.4144 68.3543 56.5806 68.1779 56.6969C68.0016 56.8132 67.7942 56.8742 67.5826 56.8721H34.6197C34.4813 56.8754 34.3437 56.8507 34.2152 56.7995C34.0866 56.7484 33.9698 56.6719 33.8719 56.5745Z" fill="#CC1013"/>
</g>
<defs>
<clipPath id="clip0">
<rect width="107" height="105" fill="white"/>
</clipPath>
</defs>
</svg>
