<svg width="1313" height="503" viewBox="0 0 1313 503" fill="none" xmlns="http://www.w3.org/2000/svg">
<g clip-path="url(#clip0)">
<path d="M0 0.165039H148.23H1313V502.165H0V0.165039Z" fill="#333333"/>
<path opacity="0.1" d="M773.132 -96.7475L613.853 63.6444C611.74 67.8994 609.881 72.1544 608 76.5796L786 -102.641C781.647 -100.726 777.358 -98.7615 773.132 -96.7475Z" fill="#FCFCFC"/>
<path opacity="0.1" d="M830.531 -118.224L591.436 121.165C590.568 124.304 589.763 127.528 589 130.646L840 -120.664C836.823 -119.9 833.666 -119.073 830.531 -118.224Z" fill="#FCFCFC"/>
<path opacity="0.1" d="M876.028 -126.742L582.952 165.743C582.613 168.402 582.296 171.04 582 173.699L884 -127.671C881.335 -127.397 878.671 -127.08 876.028 -126.742Z" fill="#FCFCFC"/>
<path opacity="0.1" d="M920.816 -130.675C918.849 -130.675 916.883 -130.675 914.916 -130.675L580 204.676C580 206.644 580 208.592 580 210.581C580 210.962 580 211.365 580 211.746L922 -130.654L920.816 -130.675Z" fill="#FCFCFC"/>
<path opacity="0.1" d="M950.574 -129.675L582 239.437C582.169 241.553 582.359 243.67 582.592 245.787L957 -129.082C954.865 -129.315 952.709 -129.484 950.574 -129.675Z" fill="#FCFCFC"/>
<path opacity="0.1" d="M988 -125.542L636.76 228.021C633.819 228.511 630.899 229.086 628 229.768L982.118 -126.67C984.064 -126.308 986.053 -125.946 988 -125.542Z" fill="#FCFCFC"/>
<path opacity="0.1" d="M1017 -117.069L673.572 226.765C671.452 226.552 669.332 226.404 667 226.319L1011.51 -118.661L1017 -117.069Z" fill="#FCFCFC"/>
<path opacity="0.1" d="M1044 -108.692L704.418 232.771C702.619 232.176 700.799 231.665 699 231.197L1038.9 -110.65C1040.61 -110.012 1042.31 -109.373 1044 -108.692Z" fill="#FCFCFC"/>
<path opacity="0.1" d="M1069 -97.3876L729.636 242.783C728.112 241.956 726.567 241.149 725 240.406L1064.22 -99.6372L1069 -97.3876Z" fill="#FCFCFC"/>
<path opacity="0.1" d="M1093 -84.0609L752.002 256.8C750.689 255.785 749.355 254.684 748 253.774L1088.64 -86.6216C1090.04 -85.7963 1091.54 -84.9498 1093 -84.0609Z" fill="#FCFCFC"/>
<path opacity="0.1" d="M1116 -70.7583L770.399 274.823C769.294 273.569 768.147 272.38 767 271.169L1111.81 -73.605L1116 -70.7583Z" fill="#FCFCFC"/>
<path opacity="0.1" d="M1154 -37.1731L798.113 319.878C797.437 318.225 796.74 316.571 796 314.939L1150.43 -40.5649L1154 -37.1731Z" fill="#FCFCFC"/>
<path opacity="0.1" d="M629.973 -1.49347C630.463 -1.00358 630.797 -0.379162 630.932 0.300764C631.068 0.98069 630.999 1.68557 630.734 2.32621C630.469 2.96686 630.021 3.51447 629.445 3.89977C628.869 4.28506 628.192 4.49072 627.5 4.49072C626.808 4.49072 626.131 4.28506 625.555 3.89977C624.979 3.51447 624.531 2.96686 624.266 2.32621C624.001 1.68557 623.932 0.98069 624.068 0.300764C624.203 -0.379162 624.537 -1.00358 625.027 -1.49347C625.683 -2.14956 626.573 -2.51807 627.5 -2.51807C628.427 -2.51807 629.317 -2.14956 629.973 -1.49347Z" fill="#FCFCFC"/>
<path opacity="0.1" d="M660.813 60.4731C661.189 60.7955 661.487 61.1807 661.691 61.6059C661.895 62.0312 662 62.4879 662 62.9492C662 63.4106 661.895 63.8673 661.691 64.2925C661.487 64.7177 661.189 65.1029 660.813 65.4254C660.256 65.916 659.545 66.2503 658.77 66.3859C657.996 66.5215 657.194 66.4524 656.464 66.1873C655.735 65.9223 655.112 65.4731 654.673 64.8967C654.234 64.3203 654 63.6425 654 62.9492C654 62.2559 654.234 61.5782 654.673 61.0018C655.112 60.4253 655.735 59.9762 656.464 59.7111C657.194 59.446 657.996 59.3769 658.77 59.5125C659.545 59.6482 660.256 59.9824 660.813 60.4731Z" fill="#FCFCFC"/>
<path opacity="0.1" d="M675.973 44.3034C676.463 44.7233 676.797 45.2584 676.932 45.8412C677.068 46.4239 676.999 47.028 676.734 47.5771C676.469 48.1261 676.021 48.5954 675.445 48.9257C674.869 49.2559 674.192 49.4321 673.5 49.4321C672.808 49.4321 672.131 49.2559 671.555 48.9257C670.979 48.5954 670.531 48.1261 670.266 47.5771C670.001 47.028 669.932 46.4239 670.068 45.8412C670.203 45.2584 670.537 44.7233 671.027 44.3034C671.683 43.7411 672.573 43.4253 673.5 43.4253C674.427 43.4253 675.317 43.7411 675.973 44.3034Z" fill="#FCFCFC"/>
<path opacity="0.1" d="M690.846 29.6707C691.585 30.4101 692 31.4123 692 32.4572C692 33.5021 691.585 34.5042 690.846 35.2436C690.482 35.6149 690.048 35.9099 689.569 36.1113C689.09 36.3128 688.575 36.4165 688.056 36.4165C687.536 36.4165 687.021 36.3128 686.542 36.1113C686.063 35.9099 685.629 35.6149 685.266 35.2436C684.876 34.8831 684.563 34.4477 684.345 33.9635C684.128 33.4794 684.011 32.9564 684.001 32.4259C683.991 31.8954 684.088 31.3683 684.286 30.8761C684.485 30.384 684.781 29.937 685.156 29.5618C685.532 29.1866 685.98 28.891 686.472 28.6926C686.965 28.4943 687.493 28.3973 688.024 28.4075C688.555 28.4176 689.079 28.5348 689.564 28.7518C690.049 28.9689 690.485 29.2814 690.846 29.6707Z" fill="#FCFCFC"/>
<path opacity="0.1" d="M705.973 14.2729C706.463 14.6923 706.797 15.2268 706.932 15.8089C707.068 16.391 706.999 16.9945 706.734 17.5429C706.469 18.0914 706.021 18.5602 705.445 18.8901C704.869 19.2199 704.192 19.396 703.5 19.396C702.808 19.396 702.131 19.2199 701.555 18.8901C700.979 18.5602 700.531 18.0914 700.266 17.5429C700.001 16.9945 699.932 16.391 700.068 15.8089C700.203 15.2268 700.537 14.6923 701.027 14.2729C701.35 13.9926 701.736 13.7701 702.16 13.6182C702.585 13.4664 703.04 13.3882 703.5 13.3882C703.96 13.3882 704.415 13.4664 704.84 13.6182C705.264 13.7701 705.65 13.9926 705.973 14.2729Z" fill="#FCFCFC"/>
<path opacity="0.1" d="M1323 360.704H1306.69V383.167H1285.93V403.717H1264.61V419H1259V397.935H1280.32V377.406H1301.08V354.921H1323V360.704Z" fill="#FCFCFC"/>
<path opacity="0.1" d="M567.15 333.79L563.811 330.478C573.729 319.909 579.123 305.937 578.856 291.503C578.59 277.069 572.685 263.301 562.384 253.098C552.083 242.896 538.191 237.055 523.633 236.807C509.075 236.559 494.988 241.922 484.34 251.767L481 248.456C492.427 237.128 507.924 230.766 524.083 230.768C540.241 230.77 555.737 237.136 567.161 248.466C578.585 259.796 585.002 275.162 585 291.183C584.998 307.204 578.577 322.568 567.15 333.895V333.79Z" fill="#FCFCFC"/>
<path opacity="0.1" d="M558.393 324.884L555.056 321.543C562.944 313.447 567.328 302.564 567.257 291.253C567.187 279.943 562.667 269.116 554.679 261.119C546.69 253.122 535.876 248.601 524.581 248.534C513.286 248.467 502.419 252.86 494.337 260.762L491 257.421C499.965 248.623 512.035 243.723 524.588 243.785C537.14 243.848 549.161 248.868 558.039 257.754C566.916 266.641 571.933 278.677 571.999 291.246C572.066 303.816 567.176 315.904 558.393 324.884Z" fill="#FCFCFC"/>
<path opacity="0.1" d="M548.446 315.873L545.057 312.481C550.267 306.728 553.067 299.191 552.878 291.429C552.689 283.667 549.526 276.274 544.042 270.783C538.559 265.291 531.177 262.121 523.423 261.928C515.669 261.735 508.138 264.534 502.389 269.746L499 266.354C505.621 260.097 514.419 256.671 523.523 256.804C532.627 256.937 541.321 260.617 547.758 267.063C554.195 273.51 557.868 282.214 557.997 291.328C558.125 300.442 554.699 309.247 548.446 315.873Z" fill="#FCFCFC"/>
<path d="M600.462 446.034C599.573 446.042 598.706 446.343 597.97 446.899C597.235 447.456 596.664 448.241 596.33 449.158C595.996 450.075 595.913 451.081 596.093 452.05C596.272 453.019 596.705 453.906 597.338 454.601C597.971 455.296 598.775 455.767 599.648 455.955C600.521 456.142 601.424 456.038 602.244 455.654C603.064 455.271 603.763 454.626 604.253 453.801C604.744 452.976 605.004 452.008 605 451.019C604.997 450.359 604.878 449.707 604.648 449.1C604.419 448.492 604.083 447.941 603.662 447.478C603.24 447.014 602.74 446.649 602.191 446.401C601.642 446.153 601.055 446.028 600.462 446.034Z" fill="#E3000F"/>
<path d="M654.329 470.523C653.697 471.221 653.265 472.113 653.089 473.084C652.913 474.055 653 475.062 653.34 475.978C653.679 476.894 654.256 477.677 654.997 478.228C655.737 478.779 656.609 479.074 657.5 479.074C658.391 479.074 659.263 478.779 660.003 478.228C660.744 477.677 661.321 476.894 661.66 475.978C662 475.062 662.087 474.055 661.911 473.084C661.735 472.113 661.303 471.221 660.671 470.523C660.255 470.06 659.76 469.693 659.216 469.442C658.672 469.191 658.089 469.062 657.5 469.062C656.911 469.062 656.328 469.191 655.784 469.442C655.24 469.693 654.745 470.06 654.329 470.523Z" fill="#E3000F"/>
<path opacity="0.1" d="M540.329 470.523C539.697 471.221 539.265 472.113 539.089 473.084C538.913 474.055 539 475.062 539.34 475.978C539.679 476.894 540.256 477.677 540.997 478.228C541.737 478.779 542.609 479.074 543.5 479.074C544.391 479.074 545.263 478.779 546.003 478.228C546.744 477.677 547.321 476.894 547.66 475.978C548 475.062 548.087 474.055 547.911 473.084C547.735 472.113 547.303 471.221 546.671 470.523C546.255 470.06 545.76 469.693 545.216 469.442C544.672 469.191 544.089 469.062 543.5 469.062C542.911 469.062 542.328 469.191 541.784 469.442C541.24 469.693 540.745 470.06 540.329 470.523Z" fill="#FCFCFC"/>
<path opacity="0.1" d="M565.613 451.64C564.843 452.411 564.319 453.393 564.106 454.463C563.893 455.532 564.002 456.64 564.418 457.648C564.834 458.655 565.539 459.517 566.444 460.122C567.348 460.728 568.412 461.052 569.5 461.052C570.588 461.052 571.652 460.728 572.556 460.122C573.461 459.517 574.166 458.655 574.582 457.648C574.998 456.64 575.107 455.532 574.894 454.463C574.681 453.393 574.157 452.411 573.387 451.64C572.353 450.614 570.956 450.038 569.5 450.038C568.044 450.038 566.647 450.614 565.613 451.64Z" fill="#FCFCFC"/>
<path opacity="0.1" d="M628.462 453.369C627.763 453.999 627.288 454.801 627.096 455.674C626.903 456.547 627.003 457.452 627.381 458.274C627.76 459.096 628.401 459.799 629.223 460.294C630.045 460.788 631.011 461.052 632 461.052C632.989 461.052 633.955 460.788 634.777 460.294C635.599 459.799 636.24 459.096 636.619 458.274C636.997 457.452 637.097 456.547 636.904 455.674C636.712 454.801 636.237 453.999 635.538 453.369C635.075 452.948 634.524 452.614 633.917 452.386C633.309 452.158 632.658 452.041 632 452.041C631.342 452.041 630.69 452.158 630.083 452.386C629.476 452.614 628.925 452.948 628.462 453.369Z" fill="#FCFCFC"/>
<path opacity="0.1" d="M1315.53 236.776H1310.47V250.696H1297V255.918H1310.47V269.816H1315.53V255.918H1329V250.696H1315.53V236.776Z" fill="#FCFCFC"/>
<path opacity="0.1" d="M533.097 33.4136H527.903V47.7549H514V53.1357H527.903V67.4551H533.097V53.1357H547V47.7549H533.097V33.4136Z" fill="#FCFCFC"/>
<path opacity="0.1" d="M1221.84 17.3931L1231 27.0749L1240.16 17.3931L1249 26.7237L1239.84 36.4275L1249 46.1093L1240.16 55.4399L1231 45.7581L1221.84 55.4399L1213 46.1093L1222.18 36.4275L1213 26.7237L1221.84 17.3931Z" fill="#FCFCFC"/>
<path opacity="0.1" d="M723.319 289.841L733.011 299.539L742.681 289.841L752 299.188L742.33 308.865L752 318.541L742.681 327.888L733.011 318.212L723.319 327.888L714 318.541L723.67 308.865L714 299.188L723.319 289.841Z" fill="#FCFCFC"/>
<path opacity="0.1" d="M1171 6.49316C1173.21 6.49316 1175 4.47593 1175 1.98755C1175 -0.500834 1173.21 -2.51807 1171 -2.51807C1168.79 -2.51807 1167 -0.500834 1167 1.98755C1167 4.47593 1168.79 6.49316 1171 6.49316Z" fill="#FCFCFC"/>
<path opacity="0.1" d="M1202.5 -2.51807C1201.61 -2.51806 1200.74 -2.25328 1200 -1.75727C1199.26 -1.26127 1198.68 -0.556366 1198.34 0.268133C1198 1.09263 1197.91 1.99961 1198.09 2.87418C1198.26 3.74874 1198.69 4.55152 1199.33 5.18081C1199.96 5.8101 1200.76 6.23758 1201.63 6.40909C1202.51 6.5806 1203.41 6.48842 1204.24 6.14423C1205.06 5.80004 1205.76 5.21934 1206.25 4.47568C1206.74 3.73202 1207 2.85888 1207 1.96688C1206.99 0.7755 1206.52 -0.365222 1205.67 -1.20572C1204.83 -2.04623 1203.69 -2.51808 1202.5 -2.51807Z" fill="#FCFCFC"/>
<path opacity="0.1" d="M1236 6.49316C1238.21 6.49316 1240 4.47593 1240 1.98755C1240 -0.500834 1238.21 -2.51807 1236 -2.51807C1233.79 -2.51807 1232 -0.500834 1232 1.98755C1232 4.47593 1233.79 6.49316 1236 6.49316Z" fill="#FCFCFC"/>
<path opacity="0.1" d="M1171 43.5381C1173.21 43.5381 1175 41.2968 1175 38.532C1175 35.7672 1173.21 33.5259 1171 33.5259C1168.79 33.5259 1167 35.7672 1167 38.532C1167 41.2968 1168.79 43.5381 1171 43.5381Z" fill="#FCFCFC"/>
<path opacity="0.1" d="M1171 69.5708C1170.21 69.5708 1169.43 69.8356 1168.78 70.3316C1168.12 70.8275 1167.6 71.5324 1167.3 72.3569C1167 73.1813 1166.92 74.0883 1167.08 74.9628C1167.23 75.8373 1167.62 76.64 1168.18 77.2693C1168.74 77.8985 1169.45 78.326 1170.23 78.4975C1171.01 78.669 1171.81 78.5768 1172.54 78.2326C1173.27 77.8885 1173.9 77.3078 1174.33 76.5642C1174.77 75.8206 1175 74.9474 1175 74.0555C1175 72.8642 1174.57 71.7235 1173.82 70.8831C1173.07 70.0426 1172.06 69.5708 1171 69.5708Z" fill="#FCFCFC"/>
<path opacity="0.1" d="M1171 115.626C1173.21 115.626 1175 113.385 1175 110.621C1175 107.856 1173.21 105.615 1171 105.615C1168.79 105.615 1167 107.856 1167 110.621C1167 113.385 1168.79 115.626 1171 115.626Z" fill="#FCFCFC"/>
<path opacity="0.1" d="M1171 142.66C1170.21 142.66 1169.44 142.924 1168.78 143.419C1168.12 143.914 1167.61 144.618 1167.3 145.441C1167 146.264 1166.92 147.17 1167.08 148.044C1167.23 148.918 1167.61 149.721 1168.17 150.351C1168.73 150.981 1169.44 151.41 1170.22 151.584C1171 151.758 1171.8 151.669 1172.53 151.328C1173.26 150.987 1173.89 150.409 1174.33 149.668C1174.77 148.928 1175 148.056 1175 147.165C1175 145.972 1174.57 144.829 1173.82 143.985C1173.07 143.142 1172.06 142.665 1171 142.66Z" fill="#FCFCFC"/>
<path opacity="0.1" d="M1202.5 142.66C1201.61 142.66 1200.74 142.924 1200 143.419C1199.26 143.914 1198.68 144.618 1198.34 145.441C1198 146.264 1197.91 147.17 1198.09 148.044C1198.26 148.918 1198.69 149.721 1199.32 150.351C1199.95 150.981 1200.75 151.41 1201.62 151.584C1202.5 151.758 1203.4 151.669 1204.22 151.328C1205.04 150.987 1205.75 150.409 1206.24 149.668C1206.74 148.928 1207 148.056 1207 147.165C1206.99 145.972 1206.52 144.829 1205.68 143.985C1204.83 143.142 1203.69 142.665 1202.5 142.66Z" fill="#FCFCFC"/>
<path opacity="0.1" d="M1271.02 -2.51802C1270.03 -2.52211 1269.06 -2.26081 1268.24 -1.7673C1267.41 -1.27379 1266.77 -0.570335 1266.39 0.253797C1266 1.07793 1265.9 1.98557 1266.09 2.8615C1266.29 3.73742 1266.76 4.54214 1267.46 5.17351C1268.17 5.80487 1269.06 6.2344 1270.03 6.40759C1271 6.58078 1272.01 6.48982 1272.92 6.14624C1273.84 5.80266 1274.62 5.22195 1275.17 4.47785C1275.71 3.73375 1276 2.8598 1276 1.96692C1275.99 0.779116 1275.47 -0.358495 1274.54 -1.19841C1273.6 -2.03832 1272.34 -2.51258 1271.02 -2.51802Z" fill="#FCFCFC"/>
<path opacity="0.1" d="M1304.02 -2.51802C1303.03 -2.52211 1302.06 -2.26081 1301.24 -1.7673C1300.41 -1.27379 1299.77 -0.570335 1299.39 0.253797C1299 1.07793 1298.9 1.98557 1299.09 2.8615C1299.29 3.73742 1299.76 4.54214 1300.46 5.17351C1301.17 5.80487 1302.06 6.2344 1303.03 6.40759C1304 6.58078 1305.01 6.48982 1305.92 6.14624C1306.84 5.80266 1307.62 5.22195 1308.17 4.47785C1308.71 3.73375 1309 2.8598 1309 1.96692C1309 0.777441 1308.48 -0.363311 1307.54 -1.2044C1306.61 -2.04549 1305.34 -2.51802 1304.02 -2.51802Z" fill="#FCFCFC"/>
<path opacity="0.1" d="M1236 142.66C1235.21 142.66 1234.44 142.924 1233.78 143.419C1233.12 143.914 1232.61 144.618 1232.3 145.441C1232 146.264 1231.92 147.17 1232.08 148.044C1232.23 148.918 1232.61 149.721 1233.17 150.351C1233.73 150.981 1234.44 151.41 1235.22 151.584C1236 151.758 1236.8 151.669 1237.53 151.328C1238.26 150.987 1238.89 150.409 1239.33 149.668C1239.77 148.928 1240 148.056 1240 147.165C1240 145.972 1239.57 144.829 1238.82 143.985C1238.07 143.142 1237.06 142.665 1236 142.66Z" fill="#FCFCFC"/>
<path opacity="0.1" d="M1271.02 142.66C1270.03 142.656 1269.06 142.916 1268.24 143.409C1267.41 143.902 1266.77 144.604 1266.39 145.427C1266.01 146.25 1265.9 147.156 1266.09 148.032C1266.28 148.907 1266.76 149.712 1267.46 150.344C1268.15 150.976 1269.05 151.407 1270.02 151.583C1270.99 151.758 1271.99 151.67 1272.91 151.33C1273.82 150.99 1274.61 150.412 1275.16 149.671C1275.71 148.929 1276 148.057 1276 147.165C1275.99 145.976 1275.47 144.836 1274.54 143.993C1273.61 143.149 1272.34 142.671 1271.02 142.66Z" fill="#FCFCFC"/>
<path opacity="0.1" d="M1304.02 142.66C1303.03 142.656 1302.06 142.916 1301.24 143.409C1300.41 143.902 1299.77 144.604 1299.39 145.427C1299.01 146.25 1298.9 147.156 1299.09 148.032C1299.28 148.907 1299.76 149.712 1300.46 150.344C1301.15 150.976 1302.05 151.407 1303.02 151.583C1303.99 151.758 1304.99 151.67 1305.91 151.33C1306.82 150.99 1307.61 150.412 1308.16 149.671C1308.71 148.929 1309 148.057 1309 147.165C1309 145.974 1308.48 144.831 1307.54 143.987C1306.61 143.142 1305.35 142.665 1304.02 142.66Z" fill="#FCFCFC"/>
<path opacity="0.1" d="M1173 -19.7815L806.208 347.912C805.826 345.978 805.445 344.023 805 342.11L1169.61 -23.5435C1170.75 -22.332 1171.88 -21.0993 1173 -19.7815Z" fill="#FCFCFC"/>
<path opacity="0.1" d="M1191 -0.639735L809 380.954C809.127 378.557 809.191 376.139 809.191 373.721L1187.86 -4.521L1191 -0.639735Z" fill="#FCFCFC"/>
<path opacity="0.1" d="M1204 20.6907L799 428.011C800.408 424.512 801.64 420.929 802.697 417.26L1201.15 16.5054C1202.1 17.8863 1203.07 19.2885 1204 20.6907Z" fill="#FCFCFC"/>
<path opacity="0.1" d="M1229.75 62.562L773 519.005C774.591 519.768 776.183 520.489 777.795 521.125L1232 67.4381C1231.26 65.7421 1230.51 64.152 1229.75 62.562Z" fill="#FCFCFC"/>
<path opacity="0.1" d="M1240.14 88.5942L799 530.212C800.692 530.868 802.385 531.525 804.077 532.139L1242 93.7407C1241.43 91.9828 1240.79 90.2885 1240.14 88.5942Z" fill="#FCFCFC"/>
<path opacity="0.1" d="M1249.45 115.626L825 538.584L830.473 540.148L1251 121.165C1250.51 119.262 1249.98 117.444 1249.45 115.626Z" fill="#FCFCFC"/>
<path opacity="0.1" d="M1254.88 143.662L854 546.034L859.874 547.158L1256 149.557C1255.64 147.691 1255.26 145.57 1254.88 143.662Z" fill="#FCFCFC"/>
<path opacity="0.1" d="M1261.41 175.702L886 550.57C888.119 550.803 890.239 550.972 892.358 551.163L1262 182.178C1261.81 180.061 1261.62 177.945 1261.41 175.702Z" fill="#FCFCFC"/>
<path opacity="0.1" d="M1263 211.93C1263 211.528 1263 211.126 1263 210.745L920 553.165H921.166C923.159 553.165 925.11 553.165 927.082 553.165L1262.92 217.815C1262.96 215.867 1263 213.899 1263 211.93Z" fill="#FCFCFC"/>
<path opacity="0.1" d="M1260 248.791L958 550.161C960.665 549.886 963.308 549.57 965.952 549.232L1259.05 256.831C1259.41 254.108 1259.66 251.449 1260 248.791Z" fill="#FCFCFC"/>
<path opacity="0.1" d="M1253 290.842L1001 544.153C1004.19 543.384 1007.38 542.571 1010.53 541.695L1250.55 300.398C1251.41 297.234 1252.23 294.049 1253 290.842Z" fill="#FCFCFC"/>
<path opacity="0.1" d="M1234 346.912L1056 525.13C1060.22 523.247 1064.62 521.322 1068.84 519.27L1228.09 359.775C1230.11 355.543 1232.08 351.256 1234 346.912Z" fill="#FCFCFC"/>
<path opacity="0.1" d="M481.5 439.024C481.006 439.024 480.522 439.2 480.111 439.53C479.7 439.86 479.38 440.329 479.19 440.878C479.001 441.427 478.952 442.031 479.048 442.614C479.145 443.197 479.383 443.732 479.732 444.152C480.082 444.572 480.527 444.858 481.012 444.974C481.497 445.09 482 445.03 482.457 444.803C482.914 444.576 483.304 444.191 483.579 443.697C483.853 443.203 484 442.622 484 442.028C484 441.231 483.737 440.467 483.268 439.904C482.799 439.34 482.163 439.024 481.5 439.024Z" fill="#FCFCFC"/>
<path opacity="0.1" d="M481.5 412.993C481.006 412.993 480.522 413.139 480.111 413.415C479.7 413.69 479.38 414.081 479.19 414.538C479.001 414.995 478.952 415.499 479.048 415.984C479.145 416.47 479.383 416.916 479.732 417.266C480.082 417.616 480.527 417.854 481.012 417.951C481.497 418.048 482 417.998 482.457 417.808C482.914 417.619 483.304 417.298 483.579 416.887C483.853 416.475 484 415.991 484 415.496C484 414.832 483.737 414.195 483.268 413.726C482.799 413.256 482.163 412.993 481.5 412.993Z" fill="#FCFCFC"/>
<path opacity="0.1" d="M481.5 384.958C481.006 384.958 480.522 385.163 480.111 385.548C479.7 385.933 479.38 386.48 479.19 387.121C479.001 387.761 478.952 388.466 479.048 389.146C479.145 389.825 479.383 390.45 479.732 390.94C480.082 391.43 480.527 391.764 481.012 391.899C481.497 392.034 482 391.965 482.457 391.7C482.914 391.434 483.304 390.985 483.579 390.409C483.853 389.833 484 389.155 484 388.462C484 387.532 483.737 386.641 483.268 385.984C482.799 385.327 482.163 384.958 481.5 384.958Z" fill="#FCFCFC"/>
<path opacity="0.1" d="M481.5 358.926C481.006 358.926 480.522 359.044 480.111 359.264C479.7 359.484 479.38 359.796 479.19 360.162C479.001 360.528 478.952 360.931 479.048 361.319C479.145 361.708 479.383 362.065 479.732 362.345C480.082 362.625 480.527 362.815 481.012 362.893C481.497 362.97 482 362.93 482.457 362.779C482.914 362.627 483.304 362.37 483.579 362.041C483.853 361.712 484 361.325 484 360.929C484 360.398 483.737 359.888 483.268 359.513C482.799 359.137 482.163 358.926 481.5 358.926Z" fill="#FCFCFC"/>
<path opacity="0.1" d="M481.5 331.893C481.006 331.893 480.522 332.04 480.111 332.315C479.7 332.59 479.38 332.981 479.19 333.438C479.001 333.895 478.952 334.398 479.048 334.884C479.145 335.369 479.383 335.815 479.732 336.165C480.082 336.515 480.527 336.753 481.012 336.85C481.497 336.946 482 336.897 482.457 336.707C482.914 336.518 483.304 336.197 483.579 335.786C483.853 335.374 484 334.89 484 334.395C484 333.732 483.737 333.095 483.268 332.626C482.799 332.157 482.163 331.893 481.5 331.893Z" fill="#FCFCFC"/>
<path opacity="0.1" d="M481.5 303.859C481.006 303.859 480.522 304.035 480.111 304.365C479.7 304.695 479.38 305.164 479.19 305.713C479.001 306.262 478.952 306.866 479.048 307.448C479.145 308.031 479.383 308.566 479.732 308.986C480.082 309.406 480.527 309.692 481.012 309.808C481.497 309.924 482 309.864 482.457 309.637C482.914 309.41 483.304 309.025 483.579 308.531C483.853 308.037 484 307.456 484 306.862C484 306.066 483.737 305.302 483.268 304.739C482.799 304.175 482.163 303.859 481.5 303.859Z" fill="#FCFCFC"/>
<path opacity="0.1" d="M454 439.024C453.407 439.024 452.827 439.2 452.333 439.53C451.84 439.86 451.455 440.329 451.228 440.878C451.001 441.427 450.942 442.031 451.058 442.614C451.173 443.197 451.459 443.732 451.879 444.152C452.298 444.572 452.833 444.858 453.415 444.974C453.997 445.09 454.6 445.03 455.148 444.803C455.696 444.576 456.165 444.191 456.494 443.697C456.824 443.203 457 442.622 457 442.028C457 441.231 456.684 440.467 456.121 439.904C455.559 439.34 454.796 439.024 454 439.024Z" fill="#FCFCFC"/>
<path opacity="0.1" d="M454 412.993C453.407 412.993 452.827 413.139 452.333 413.415C451.84 413.69 451.455 414.081 451.228 414.538C451.001 414.995 450.942 415.499 451.058 415.984C451.173 416.47 451.459 416.916 451.879 417.266C452.298 417.616 452.833 417.854 453.415 417.951C453.997 418.048 454.6 417.998 455.148 417.808C455.696 417.619 456.165 417.298 456.494 416.887C456.824 416.475 457 415.991 457 415.496C457 414.832 456.684 414.195 456.121 413.726C455.559 413.256 454.796 412.993 454 412.993Z" fill="#FCFCFC"/>
<path opacity="0.1" d="M454 384.958C453.407 384.958 452.827 385.163 452.333 385.548C451.84 385.933 451.455 386.48 451.228 387.121C451.001 387.761 450.942 388.466 451.058 389.146C451.173 389.825 451.459 390.45 451.879 390.94C452.298 391.43 452.833 391.764 453.415 391.899C453.997 392.034 454.6 391.965 455.148 391.7C455.696 391.434 456.165 390.985 456.494 390.409C456.824 389.833 457 389.155 457 388.462C457 387.532 456.684 386.641 456.121 385.984C455.559 385.327 454.796 384.958 454 384.958Z" fill="#FCFCFC"/>
<path opacity="0.1" d="M454 358.926C453.407 358.926 452.827 359.044 452.333 359.264C451.84 359.484 451.455 359.796 451.228 360.162C451.001 360.528 450.942 360.931 451.058 361.319C451.173 361.708 451.459 362.065 451.879 362.345C452.298 362.625 452.833 362.815 453.415 362.893C453.997 362.97 454.6 362.93 455.148 362.779C455.696 362.627 456.165 362.37 456.494 362.041C456.824 361.712 457 361.325 457 360.929C457 360.398 456.684 359.888 456.121 359.513C455.559 359.137 454.796 358.926 454 358.926Z" fill="#FCFCFC"/>
<path d="M454 331.893C453.407 331.893 452.827 332.04 452.333 332.315C451.84 332.59 451.455 332.981 451.228 333.438C451.001 333.895 450.942 334.398 451.058 334.884C451.173 335.369 451.459 335.815 451.879 336.165C452.298 336.515 452.833 336.753 453.415 336.85C453.997 336.946 454.6 336.897 455.148 336.707C455.696 336.518 456.165 336.197 456.494 335.786C456.824 335.374 457 334.89 457 334.395C457 333.732 456.684 333.095 456.121 332.626C455.559 332.157 454.796 331.893 454 331.893Z" fill="#E3000F"/>
<path opacity="0.1" d="M454 303.859C453.407 303.859 452.827 304.035 452.333 304.365C451.84 304.695 451.455 305.164 451.228 305.713C451.001 306.262 450.942 306.866 451.058 307.448C451.173 308.031 451.459 308.566 451.879 308.986C452.298 309.406 452.833 309.692 453.415 309.808C453.997 309.924 454.6 309.864 455.148 309.637C455.696 309.41 456.165 309.025 456.494 308.531C456.824 308.037 457 307.456 457 306.862C457 306.066 456.684 305.302 456.121 304.739C455.559 304.175 454.796 303.859 454 303.859Z" fill="#FCFCFC"/>
<path opacity="0.1" d="M208.5 439.024C208.006 439.024 207.522 439.2 207.111 439.53C206.7 439.86 206.38 440.329 206.19 440.878C206.001 441.427 205.952 442.031 206.048 442.614C206.144 443.197 206.383 443.732 206.732 444.152C207.082 444.572 207.527 444.858 208.012 444.974C208.497 445.09 209 445.03 209.457 444.803C209.914 444.576 210.304 444.191 210.579 443.697C210.853 443.203 211 442.622 211 442.028C211 441.231 210.737 440.467 210.268 439.904C209.799 439.34 209.163 439.024 208.5 439.024Z" fill="#FCFCFC"/>
<path opacity="0.1" d="M208.5 412.993C208.006 412.993 207.522 413.139 207.111 413.415C206.7 413.69 206.38 414.081 206.19 414.538C206.001 414.995 205.952 415.499 206.048 415.984C206.144 416.47 206.383 416.916 206.732 417.266C207.082 417.616 207.527 417.854 208.012 417.951C208.497 418.048 209 417.998 209.457 417.808C209.914 417.619 210.304 417.298 210.579 416.887C210.853 416.475 211 415.991 211 415.496C211 414.832 210.737 414.195 210.268 413.726C209.799 413.256 209.163 412.993 208.5 412.993Z" fill="#FCFCFC"/>
<path opacity="0.1" d="M208.5 384.958C208.006 384.958 207.522 385.163 207.111 385.548C206.7 385.933 206.38 386.48 206.19 387.121C206.001 387.761 205.952 388.466 206.048 389.146C206.144 389.825 206.383 390.45 206.732 390.94C207.082 391.43 207.527 391.764 208.012 391.899C208.497 392.034 209 391.965 209.457 391.7C209.914 391.434 210.304 390.985 210.579 390.409C210.853 389.833 211 389.155 211 388.462C211 387.532 210.737 386.641 210.268 385.984C209.799 385.327 209.163 384.958 208.5 384.958Z" fill="#FCFCFC"/>
<path opacity="0.1" d="M208.5 358.926C207.837 358.926 207.201 359.137 206.732 359.513C206.263 359.888 206 360.398 206 360.929C206 361.46 206.263 361.969 206.732 362.345C207.201 362.72 207.837 362.931 208.5 362.931C209.163 362.931 209.799 362.72 210.268 362.345C210.737 361.969 211 361.46 211 360.929C211 360.398 210.737 359.888 210.268 359.513C209.799 359.137 209.163 358.926 208.5 358.926Z" fill="#FCFCFC"/>
<path opacity="0.1" d="M208.5 331.893C208.006 331.893 207.522 332.04 207.111 332.315C206.7 332.59 206.38 332.981 206.19 333.438C206.001 333.895 205.952 334.398 206.048 334.884C206.144 335.369 206.383 335.815 206.732 336.165C207.082 336.515 207.527 336.753 208.012 336.85C208.497 336.946 209 336.897 209.457 336.707C209.914 336.518 210.304 336.197 210.579 335.786C210.853 335.374 211 334.89 211 334.395C211 333.732 210.737 333.095 210.268 332.626C209.799 332.157 209.163 331.893 208.5 331.893Z" fill="#FCFCFC"/>
<path opacity="0.1" d="M208.5 303.859C208.006 303.859 207.522 304.035 207.111 304.365C206.7 304.695 206.38 305.164 206.19 305.713C206.001 306.262 205.952 306.866 206.048 307.448C206.144 308.031 206.383 308.566 206.732 308.986C207.082 309.406 207.527 309.692 208.012 309.808C208.497 309.924 209 309.864 209.457 309.637C209.914 309.41 210.304 309.025 210.579 308.531C210.853 308.037 211 307.456 211 306.862C211 306.066 210.737 305.302 210.268 304.739C209.799 304.175 209.163 303.859 208.5 303.859Z" fill="#FCFCFC"/>
<path opacity="0.1" d="M235.5 439.024C235.006 439.024 234.522 439.2 234.111 439.53C233.7 439.86 233.38 440.329 233.19 440.878C233.001 441.427 232.952 442.031 233.048 442.614C233.144 443.197 233.383 443.732 233.732 444.152C234.082 444.572 234.527 444.858 235.012 444.974C235.497 445.09 236 445.03 236.457 444.803C236.914 444.576 237.304 444.191 237.579 443.697C237.853 443.203 238 442.622 238 442.028C238 441.231 237.737 440.467 237.268 439.904C236.799 439.34 236.163 439.024 235.5 439.024Z" fill="#FCFCFC"/>
<path opacity="0.1" d="M235.5 412.993C235.006 412.993 234.522 413.139 234.111 413.415C233.7 413.69 233.38 414.081 233.19 414.538C233.001 414.995 232.952 415.499 233.048 415.984C233.144 416.47 233.383 416.916 233.732 417.266C234.082 417.616 234.527 417.854 235.012 417.951C235.497 418.048 236 417.998 236.457 417.808C236.914 417.619 237.304 417.298 237.579 416.887C237.853 416.475 238 415.991 238 415.496C238 414.832 237.737 414.195 237.268 413.726C236.799 413.256 236.163 412.993 235.5 412.993Z" fill="#FCFCFC"/>
<path opacity="0.1" d="M235.5 384.958C235.006 384.958 234.522 385.163 234.111 385.548C233.7 385.933 233.38 386.48 233.19 387.121C233.001 387.761 232.952 388.466 233.048 389.146C233.144 389.825 233.383 390.45 233.732 390.94C234.082 391.43 234.527 391.764 235.012 391.899C235.497 392.034 236 391.965 236.457 391.7C236.914 391.434 237.304 390.985 237.579 390.409C237.853 389.833 238 389.155 238 388.462C238 387.532 237.737 386.641 237.268 385.984C236.799 385.327 236.163 384.958 235.5 384.958Z" fill="#FCFCFC"/>
<path opacity="0.1" d="M235.5 358.926C235.006 358.926 234.522 359.044 234.111 359.264C233.7 359.484 233.38 359.796 233.19 360.162C233.001 360.528 232.952 360.931 233.048 361.319C233.144 361.708 233.383 362.065 233.732 362.345C234.082 362.625 234.527 362.815 235.012 362.893C235.497 362.97 236 362.93 236.457 362.779C236.914 362.627 237.304 362.37 237.579 362.041C237.853 361.712 238 361.325 238 360.929C238 360.398 237.737 359.888 237.268 359.513C236.799 359.137 236.163 358.926 235.5 358.926Z" fill="#FCFCFC"/>
<path opacity="0.1" d="M235.5 331.893C235.006 331.893 234.522 332.04 234.111 332.315C233.7 332.59 233.38 332.981 233.19 333.438C233.001 333.895 232.952 334.398 233.048 334.884C233.144 335.369 233.383 335.815 233.732 336.165C234.082 336.515 234.527 336.753 235.012 336.85C235.497 336.946 236 336.897 236.457 336.707C236.914 336.518 237.304 336.197 237.579 335.786C237.853 335.374 238 334.89 238 334.395C238 333.732 237.737 333.095 237.268 332.626C236.799 332.157 236.163 331.893 235.5 331.893Z" fill="#FCFCFC"/>
<path opacity="0.1" d="M235.5 303.859C235.006 303.859 234.522 304.035 234.111 304.365C233.7 304.695 233.38 305.164 233.19 305.713C233.001 306.262 232.952 306.866 233.048 307.448C233.144 308.031 233.383 308.566 233.732 308.986C234.082 309.406 234.527 309.692 235.012 309.808C235.497 309.924 236 309.864 236.457 309.637C236.914 309.41 237.304 309.025 237.579 308.531C237.853 308.037 238 307.456 238 306.862C238 306.066 237.737 305.302 237.268 304.739C236.799 304.175 236.163 303.859 235.5 303.859Z" fill="#FCFCFC"/>
<path opacity="0.1" d="M263 439.024C262.407 439.024 261.827 439.2 261.333 439.53C260.84 439.86 260.455 440.329 260.228 440.878C260.001 441.427 259.942 442.031 260.058 442.614C260.173 443.197 260.459 443.732 260.879 444.152C261.298 444.572 261.833 444.858 262.415 444.974C262.997 445.09 263.6 445.03 264.148 444.803C264.696 444.576 265.165 444.191 265.494 443.697C265.824 443.203 266 442.622 266 442.028C266 441.231 265.684 440.467 265.121 439.904C264.559 439.34 263.796 439.024 263 439.024Z" fill="#FCFCFC"/>
<path opacity="0.1" d="M263 412.993C262.407 412.993 261.827 413.139 261.333 413.415C260.84 413.69 260.455 414.081 260.228 414.538C260.001 414.995 259.942 415.499 260.058 415.984C260.173 416.47 260.459 416.916 260.879 417.266C261.298 417.616 261.833 417.854 262.415 417.951C262.997 418.048 263.6 417.998 264.148 417.808C264.696 417.619 265.165 417.298 265.494 416.887C265.824 416.475 266 415.991 266 415.496C266 414.832 265.684 414.195 265.121 413.726C264.559 413.256 263.796 412.993 263 412.993Z" fill="#FCFCFC"/>
<path opacity="0.1" d="M263 384.958C262.407 384.958 261.827 385.163 261.333 385.548C260.84 385.933 260.455 386.48 260.228 387.121C260.001 387.761 259.942 388.466 260.058 389.146C260.173 389.825 260.459 390.45 260.879 390.94C261.298 391.43 261.833 391.764 262.415 391.899C262.997 392.034 263.6 391.965 264.148 391.7C264.696 391.434 265.165 390.985 265.494 390.409C265.824 389.833 266 389.155 266 388.462C266 387.532 265.684 386.641 265.121 385.984C264.559 385.327 263.796 384.958 263 384.958Z" fill="#FCFCFC"/>
<path d="M263 358.926C262.407 358.926 261.827 359.044 261.333 359.264C260.84 359.484 260.455 359.796 260.228 360.162C260.001 360.528 259.942 360.931 260.058 361.319C260.173 361.708 260.459 362.065 260.879 362.345C261.298 362.625 261.833 362.815 262.415 362.893C262.997 362.97 263.6 362.93 264.148 362.779C264.696 362.627 265.165 362.37 265.494 362.041C265.824 361.712 266 361.325 266 360.929C266 360.398 265.684 359.888 265.121 359.513C264.559 359.137 263.796 358.926 263 358.926Z" fill="#E3000F"/>
<path opacity="0.1" d="M263 331.893C262.407 331.893 261.827 332.04 261.333 332.315C260.84 332.59 260.455 332.981 260.228 333.438C260.001 333.895 259.942 334.398 260.058 334.884C260.173 335.369 260.459 335.815 260.879 336.165C261.298 336.515 261.833 336.753 262.415 336.85C262.997 336.946 263.6 336.897 264.148 336.707C264.696 336.518 265.165 336.197 265.494 335.786C265.824 335.374 266 334.89 266 334.395C266 333.732 265.684 333.095 265.121 332.626C264.559 332.157 263.796 331.893 263 331.893Z" fill="#FCFCFC"/>
<path opacity="0.1" d="M263 303.859C262.407 303.859 261.827 304.035 261.333 304.365C260.84 304.695 260.455 305.164 260.228 305.713C260.001 306.262 259.942 306.866 260.058 307.448C260.173 308.031 260.459 308.566 260.879 308.986C261.298 309.406 261.833 309.692 262.415 309.808C262.997 309.924 263.6 309.864 264.148 309.637C264.696 309.41 265.165 309.025 265.494 308.531C265.824 308.037 266 307.456 266 306.862C266 306.066 265.684 305.302 265.121 304.739C264.559 304.175 263.796 303.859 263 303.859Z" fill="#FCFCFC"/>
<path opacity="0.1" d="M291 439.024C290.604 439.024 290.218 439.2 289.889 439.53C289.56 439.86 289.304 440.329 289.152 440.878C289.001 441.427 288.961 442.031 289.038 442.614C289.116 443.197 289.306 443.732 289.586 444.152C289.865 444.572 290.222 444.858 290.61 444.974C290.998 445.09 291.4 445.03 291.765 444.803C292.131 444.576 292.443 444.191 292.663 443.697C292.883 443.203 293 442.622 293 442.028C293 441.231 292.789 440.467 292.414 439.904C292.039 439.34 291.53 439.024 291 439.024Z" fill="#FCFCFC"/>
<path opacity="0.1" d="M291 412.993C290.604 412.993 290.218 413.139 289.889 413.415C289.56 413.69 289.304 414.081 289.152 414.538C289.001 414.995 288.961 415.499 289.038 415.984C289.116 416.47 289.306 416.916 289.586 417.266C289.865 417.616 290.222 417.854 290.61 417.951C290.998 418.048 291.4 417.998 291.765 417.808C292.131 417.619 292.443 417.298 292.663 416.887C292.883 416.475 293 415.991 293 415.496C293 414.832 292.789 414.195 292.414 413.726C292.039 413.256 291.53 412.993 291 412.993Z" fill="#FCFCFC"/>
<path opacity="0.1" d="M291 384.958C290.604 384.958 290.218 385.163 289.889 385.548C289.56 385.933 289.304 386.48 289.152 387.121C289.001 387.761 288.961 388.466 289.038 389.146C289.116 389.825 289.306 390.45 289.586 390.94C289.865 391.43 290.222 391.764 290.61 391.899C290.998 392.034 291.4 391.965 291.765 391.7C292.131 391.434 292.443 390.985 292.663 390.409C292.883 389.833 293 389.155 293 388.462C293 387.532 292.789 386.641 292.414 385.984C292.039 385.327 291.53 384.958 291 384.958Z" fill="#FCFCFC"/>
<path opacity="0.1" d="M291 358.926C290.47 358.926 289.961 359.137 289.586 359.513C289.211 359.888 289 360.398 289 360.929C289 361.46 289.211 361.969 289.586 362.345C289.961 362.72 290.47 362.931 291 362.931C291.53 362.931 292.039 362.72 292.414 362.345C292.789 361.969 293 361.46 293 360.929C293 360.398 292.789 359.888 292.414 359.513C292.039 359.137 291.53 358.926 291 358.926Z" fill="#FCFCFC"/>
<path opacity="0.1" d="M291 331.893C290.604 331.893 290.218 332.04 289.889 332.315C289.56 332.59 289.304 332.981 289.152 333.438C289.001 333.895 288.961 334.398 289.038 334.884C289.116 335.369 289.306 335.815 289.586 336.165C289.865 336.515 290.222 336.753 290.61 336.85C290.998 336.946 291.4 336.897 291.765 336.707C292.131 336.518 292.443 336.197 292.663 335.786C292.883 335.374 293 334.89 293 334.395C293 333.732 292.789 333.095 292.414 332.626C292.039 332.157 291.53 331.893 291 331.893Z" fill="#FCFCFC"/>
<path opacity="0.1" d="M291 303.859C290.604 303.859 290.218 304.035 289.889 304.365C289.56 304.695 289.304 305.164 289.152 305.713C289.001 306.262 288.961 306.866 289.038 307.448C289.116 308.031 289.306 308.566 289.586 308.986C289.865 309.406 290.222 309.692 290.61 309.808C290.998 309.924 291.4 309.864 291.765 309.637C292.131 309.41 292.443 309.025 292.663 308.531C292.883 308.037 293 307.456 293 306.862C293 306.066 292.789 305.302 292.414 304.739C292.039 304.175 291.53 303.859 291 303.859Z" fill="#FCFCFC"/>
<path opacity="0.1" d="M318 439.024C317.407 439.024 316.827 439.2 316.333 439.53C315.84 439.86 315.455 440.329 315.228 440.878C315.001 441.427 314.942 442.031 315.058 442.614C315.173 443.197 315.459 443.732 315.879 444.152C316.298 444.572 316.833 444.858 317.415 444.974C317.997 445.09 318.6 445.03 319.148 444.803C319.696 444.576 320.165 444.191 320.494 443.697C320.824 443.203 321 442.622 321 442.028C321 441.231 320.684 440.467 320.121 439.904C319.559 439.34 318.796 439.024 318 439.024Z" fill="#FCFCFC"/>
<path opacity="0.1" d="M318 412.993C317.407 412.993 316.827 413.139 316.333 413.415C315.84 413.69 315.455 414.081 315.228 414.538C315.001 414.995 314.942 415.499 315.058 415.984C315.173 416.47 315.459 416.916 315.879 417.266C316.298 417.616 316.833 417.854 317.415 417.951C317.997 418.048 318.6 417.998 319.148 417.808C319.696 417.619 320.165 417.298 320.494 416.887C320.824 416.475 321 415.991 321 415.496C321 414.832 320.684 414.195 320.121 413.726C319.559 413.256 318.796 412.993 318 412.993Z" fill="#FCFCFC"/>
<path opacity="0.1" d="M318 384.958C317.407 384.958 316.827 385.163 316.333 385.548C315.84 385.933 315.455 386.48 315.228 387.121C315.001 387.761 314.942 388.466 315.058 389.146C315.173 389.825 315.459 390.45 315.879 390.94C316.298 391.43 316.833 391.764 317.415 391.899C317.997 392.034 318.6 391.965 319.148 391.7C319.696 391.434 320.165 390.985 320.494 390.409C320.824 389.833 321 389.155 321 388.462C321 387.532 320.684 386.641 320.121 385.984C319.559 385.327 318.796 384.958 318 384.958Z" fill="#FCFCFC"/>
<path opacity="0.1" d="M318 358.926C317.407 358.926 316.827 359.044 316.333 359.264C315.84 359.484 315.455 359.796 315.228 360.162C315.001 360.528 314.942 360.931 315.058 361.319C315.173 361.708 315.459 362.065 315.879 362.345C316.298 362.625 316.833 362.815 317.415 362.893C317.997 362.97 318.6 362.93 319.148 362.779C319.696 362.627 320.165 362.37 320.494 362.041C320.824 361.712 321 361.325 321 360.929C321 360.398 320.684 359.888 320.121 359.513C319.559 359.137 318.796 358.926 318 358.926Z" fill="#FCFCFC"/>
<path opacity="0.1" d="M318 303.859C317.407 303.859 316.827 304.035 316.333 304.365C315.84 304.695 315.455 305.164 315.228 305.713C315.001 306.262 314.942 306.866 315.058 307.448C315.173 308.031 315.459 308.566 315.879 308.986C316.298 309.406 316.833 309.692 317.415 309.808C317.997 309.924 318.6 309.864 319.148 309.637C319.696 309.41 320.165 309.025 320.494 308.531C320.824 308.037 321 307.456 321 306.862C321 306.066 320.684 305.302 320.121 304.739C319.559 304.175 318.796 303.859 318 303.859Z" fill="#FCFCFC"/>
<path opacity="0.1" d="M318 331.893C317.407 331.893 316.827 332.04 316.333 332.315C315.84 332.59 315.455 332.981 315.228 333.438C315.001 333.895 314.942 334.398 315.058 334.884C315.173 335.369 315.459 335.815 315.879 336.165C316.298 336.515 316.833 336.753 317.415 336.85C317.997 336.946 318.6 336.897 319.148 336.707C319.696 336.518 320.165 336.197 320.494 335.786C320.824 335.374 321 334.89 321 334.395C321 333.732 320.684 333.095 320.121 332.626C319.559 332.157 318.796 331.893 318 331.893Z" fill="#FCFCFC"/>
<path opacity="0.1" d="M182 439.024C181.604 439.024 181.218 439.2 180.889 439.53C180.56 439.86 180.304 440.329 180.152 440.878C180.001 441.427 179.961 442.031 180.038 442.614C180.116 443.197 180.306 443.732 180.586 444.152C180.865 444.572 181.222 444.858 181.61 444.974C181.998 445.09 182.4 445.03 182.765 444.803C183.131 444.576 183.443 444.191 183.663 443.697C183.883 443.203 184 442.622 184 442.028C184 441.633 183.948 441.243 183.848 440.878C183.747 440.514 183.6 440.183 183.414 439.904C183.228 439.625 183.008 439.404 182.765 439.253C182.523 439.102 182.263 439.024 182 439.024Z" fill="#FCFCFC"/>
<path opacity="0.1" d="M182 412.993C181.604 412.993 181.218 413.139 180.889 413.415C180.56 413.69 180.304 414.081 180.152 414.538C180.001 414.995 179.961 415.499 180.038 415.984C180.116 416.47 180.306 416.916 180.586 417.266C180.865 417.616 181.222 417.854 181.61 417.951C181.998 418.048 182.4 417.998 182.765 417.808C183.131 417.619 183.443 417.298 183.663 416.887C183.883 416.475 184 415.991 184 415.496C184 415.167 183.948 414.842 183.848 414.538C183.747 414.234 183.6 413.958 183.414 413.726C183.228 413.493 183.008 413.309 182.765 413.183C182.523 413.057 182.263 412.993 182 412.993Z" fill="#FCFCFC"/>
<path opacity="0.1" d="M182 384.958C181.604 384.958 181.218 385.163 180.889 385.548C180.56 385.933 180.304 386.48 180.152 387.121C180.001 387.761 179.961 388.466 180.038 389.146C180.116 389.825 180.306 390.45 180.586 390.94C180.865 391.43 181.222 391.764 181.61 391.899C181.998 392.034 182.4 391.965 182.765 391.7C183.131 391.434 183.443 390.985 183.663 390.409C183.883 389.833 184 389.155 184 388.462C184 387.532 183.789 386.641 183.414 385.984C183.039 385.327 182.53 384.958 182 384.958Z" fill="#FCFCFC"/>
<path opacity="0.1" d="M182 358.926C181.604 358.926 181.218 359.044 180.889 359.264C180.56 359.484 180.304 359.796 180.152 360.162C180.001 360.528 179.961 360.931 180.038 361.319C180.116 361.708 180.306 362.065 180.586 362.345C180.865 362.625 181.222 362.815 181.61 362.893C181.998 362.97 182.4 362.93 182.765 362.779C183.131 362.627 183.443 362.37 183.663 362.041C183.883 361.712 184 361.325 184 360.929C184 360.398 183.789 359.888 183.414 359.513C183.039 359.137 182.53 358.926 182 358.926Z" fill="#FCFCFC"/>
<path opacity="0.1" d="M182 331.893C181.604 331.893 181.218 332.04 180.889 332.315C180.56 332.59 180.304 332.981 180.152 333.438C180.001 333.895 179.961 334.398 180.038 334.884C180.116 335.369 180.306 335.815 180.586 336.165C180.865 336.515 181.222 336.753 181.61 336.85C181.998 336.946 182.4 336.897 182.765 336.707C183.131 336.518 183.443 336.197 183.663 335.786C183.883 335.374 184 334.89 184 334.395C184 334.067 183.948 333.741 183.848 333.438C183.747 333.134 183.6 332.858 183.414 332.626C183.228 332.394 183.008 332.209 182.765 332.084C182.523 331.958 182.263 331.893 182 331.893Z" fill="#FCFCFC"/>
<path opacity="0.1" d="M182 303.859C181.604 303.859 181.218 304.035 180.889 304.365C180.56 304.695 180.304 305.164 180.152 305.713C180.001 306.262 179.961 306.866 180.038 307.448C180.116 308.031 180.306 308.566 180.586 308.986C180.865 309.406 181.222 309.692 181.61 309.808C181.998 309.924 182.4 309.864 182.765 309.637C183.131 309.41 183.443 309.025 183.663 308.531C183.883 308.037 184 307.456 184 306.862C184 306.468 183.948 306.077 183.848 305.713C183.747 305.349 183.6 305.017 183.414 304.739C183.228 304.46 183.008 304.238 182.765 304.087C182.523 303.937 182.263 303.859 182 303.859Z" fill="#FCFCFC"/>
<path opacity="0.1" d="M345.5 439.024C345.006 439.024 344.522 439.2 344.111 439.53C343.7 439.86 343.38 440.329 343.19 440.878C343.001 441.427 342.952 442.031 343.048 442.614C343.145 443.197 343.383 443.732 343.732 444.152C344.082 444.572 344.527 444.858 345.012 444.974C345.497 445.09 346 445.03 346.457 444.803C346.914 444.576 347.304 444.191 347.579 443.697C347.853 443.203 348 442.622 348 442.028C348 441.231 347.737 440.467 347.268 439.904C346.799 439.34 346.163 439.024 345.5 439.024Z" fill="#FCFCFC"/>
<path opacity="0.1" d="M345.562 412.993C345.066 412.981 344.577 413.117 344.159 413.383C343.74 413.65 343.41 414.035 343.211 414.49C343.011 414.945 342.952 415.449 343.039 415.938C343.127 416.427 343.358 416.879 343.703 417.236C344.048 417.593 344.491 417.839 344.976 417.944C345.462 418.048 345.967 418.005 346.427 417.82C346.888 417.636 347.284 417.319 347.564 416.909C347.844 416.498 347.996 416.014 348 415.517C348.006 414.86 347.753 414.228 347.297 413.756C346.841 413.283 346.218 413.01 345.562 412.993Z" fill="#FCFCFC"/>
<path opacity="0.1" d="M345.5 384.958C345.006 384.958 344.522 385.163 344.111 385.548C343.7 385.933 343.38 386.48 343.19 387.121C343.001 387.761 342.952 388.466 343.048 389.146C343.145 389.825 343.383 390.45 343.732 390.94C344.082 391.43 344.527 391.764 345.012 391.899C345.497 392.034 346 391.965 346.457 391.7C346.914 391.434 347.304 390.985 347.579 390.409C347.853 389.833 348 389.155 348 388.462C348 387.532 347.737 386.641 347.268 385.984C346.799 385.327 346.163 384.958 345.5 384.958Z" fill="#FCFCFC"/>
<path opacity="0.1" d="M345.5 358.926C345.006 358.926 344.522 359.044 344.111 359.264C343.7 359.484 343.38 359.796 343.19 360.162C343.001 360.528 342.952 360.931 343.048 361.319C343.145 361.708 343.383 362.065 343.732 362.345C344.082 362.625 344.527 362.815 345.012 362.893C345.497 362.97 346 362.93 346.457 362.779C346.914 362.627 347.304 362.37 347.579 362.041C347.853 361.712 348 361.325 348 360.929C348 360.398 347.737 359.888 347.268 359.513C346.799 359.137 346.163 358.926 345.5 358.926Z" fill="#FCFCFC"/>
<path opacity="0.1" d="M345.5 303.859C345.006 303.859 344.522 304.035 344.111 304.365C343.7 304.695 343.38 305.164 343.19 305.713C343.001 306.262 342.952 306.866 343.048 307.448C343.145 308.031 343.383 308.566 343.732 308.986C344.082 309.406 344.527 309.692 345.012 309.808C345.497 309.924 346 309.864 346.457 309.637C346.914 309.41 347.304 309.025 347.579 308.531C347.853 308.037 348 307.456 348 306.862C348 306.066 347.737 305.302 347.268 304.739C346.799 304.175 346.163 303.859 345.5 303.859Z" fill="#FCFCFC"/>
<path opacity="0.1" d="M345.5 331.893C345.006 331.893 344.522 332.04 344.111 332.315C343.7 332.59 343.38 332.981 343.19 333.438C343.001 333.895 342.952 334.398 343.048 334.884C343.145 335.369 343.383 335.815 343.732 336.165C344.082 336.515 344.527 336.753 345.012 336.85C345.497 336.946 346 336.897 346.457 336.707C346.914 336.518 347.304 336.197 347.579 335.786C347.853 335.374 348 334.89 348 334.395C348 333.732 347.737 333.095 347.268 332.626C346.799 332.157 346.163 331.893 345.5 331.893Z" fill="#FCFCFC"/>
<path opacity="0.1" d="M372 439.024C371.604 439.024 371.218 439.2 370.889 439.53C370.56 439.86 370.304 440.329 370.152 440.878C370.001 441.427 369.961 442.031 370.038 442.614C370.116 443.197 370.306 443.732 370.586 444.152C370.865 444.572 371.222 444.858 371.61 444.974C371.998 445.09 372.4 445.03 372.765 444.803C373.131 444.576 373.443 444.191 373.663 443.697C373.883 443.203 374 442.622 374 442.028C374 441.231 373.789 440.467 373.414 439.904C373.039 439.34 372.53 439.024 372 439.024Z" fill="#FCFCFC"/>
<path d="M372 412.993C371.605 412.993 371.219 413.139 370.891 413.413C370.562 413.687 370.306 414.077 370.154 414.533C370.002 414.989 369.961 415.492 370.037 415.977C370.113 416.462 370.302 416.908 370.58 417.259C370.858 417.609 371.213 417.849 371.6 417.948C371.987 418.047 372.388 418.001 372.754 417.814C373.12 417.628 373.433 417.31 373.655 416.902C373.877 416.493 373.997 416.011 374 415.517C374.002 415.186 373.952 414.858 373.852 414.552C373.753 414.246 373.606 413.968 373.42 413.733C373.234 413.499 373.013 413.312 372.769 413.185C372.525 413.058 372.264 412.993 372 412.993Z" fill="#E3000F"/>
<path opacity="0.1" d="M372 384.958C371.604 384.958 371.218 385.163 370.889 385.548C370.56 385.933 370.304 386.48 370.152 387.121C370.001 387.761 369.961 388.466 370.038 389.146C370.116 389.825 370.306 390.45 370.586 390.94C370.865 391.43 371.222 391.764 371.61 391.899C371.998 392.034 372.4 391.965 372.765 391.7C373.131 391.434 373.443 390.985 373.663 390.409C373.883 389.833 374 389.155 374 388.462C374 387.532 373.789 386.641 373.414 385.984C373.039 385.327 372.53 384.958 372 384.958Z" fill="#FCFCFC"/>
<path opacity="0.1" d="M372 358.926C371.604 358.926 371.218 359.044 370.889 359.264C370.56 359.484 370.304 359.796 370.152 360.162C370.001 360.528 369.961 360.931 370.038 361.319C370.116 361.708 370.306 362.065 370.586 362.345C370.865 362.625 371.222 362.815 371.61 362.893C371.998 362.97 372.4 362.93 372.765 362.779C373.131 362.627 373.443 362.37 373.663 362.041C373.883 361.712 374 361.325 374 360.929C374 360.398 373.789 359.888 373.414 359.513C373.039 359.137 372.53 358.926 372 358.926Z" fill="#FCFCFC"/>
<path opacity="0.1" d="M372 331.893C371.604 331.893 371.218 332.04 370.889 332.315C370.56 332.59 370.304 332.981 370.152 333.438C370.001 333.895 369.961 334.398 370.038 334.884C370.116 335.369 370.306 335.815 370.586 336.165C370.865 336.515 371.222 336.753 371.61 336.85C371.998 336.946 372.4 336.897 372.765 336.707C373.131 336.518 373.443 336.197 373.663 335.786C373.883 335.374 374 334.89 374 334.395C374 333.732 373.789 333.095 373.414 332.626C373.039 332.157 372.53 331.893 372 331.893Z" fill="#FCFCFC"/>
<path opacity="0.1" d="M372 303.859C371.604 303.859 371.218 304.035 370.889 304.365C370.56 304.695 370.304 305.164 370.152 305.713C370.001 306.262 369.961 306.866 370.038 307.448C370.116 308.031 370.306 308.566 370.586 308.986C370.865 309.406 371.222 309.692 371.61 309.808C371.998 309.924 372.4 309.864 372.765 309.637C373.131 309.41 373.443 309.025 373.663 308.531C373.883 308.037 374 307.456 374 306.862C374 306.066 373.789 305.302 373.414 304.739C373.039 304.175 372.53 303.859 372 303.859Z" fill="#FCFCFC"/>
<path opacity="0.1" d="M399.5 439.024C399.006 439.024 398.522 439.2 398.111 439.53C397.7 439.86 397.38 440.329 397.19 440.878C397.001 441.427 396.952 442.031 397.048 442.614C397.145 443.197 397.383 443.732 397.732 444.152C398.082 444.572 398.527 444.858 399.012 444.974C399.497 445.09 400 445.03 400.457 444.803C400.914 444.576 401.304 444.191 401.579 443.697C401.853 443.203 402 442.622 402 442.028C402 441.231 401.737 440.467 401.268 439.904C400.799 439.34 400.163 439.024 399.5 439.024Z" fill="#FCFCFC"/>
<path opacity="0.1" d="M399.5 412.993C399.006 412.993 398.522 413.139 398.111 413.415C397.7 413.69 397.38 414.081 397.19 414.538C397.001 414.995 396.952 415.499 397.048 415.984C397.145 416.47 397.383 416.916 397.732 417.266C398.082 417.616 398.527 417.854 399.012 417.951C399.497 418.048 400 417.998 400.457 417.808C400.914 417.619 401.304 417.298 401.579 416.887C401.853 416.475 402 415.991 402 415.496C402 414.832 401.737 414.195 401.268 413.726C400.799 413.256 400.163 412.993 399.5 412.993Z" fill="#FCFCFC"/>
<path opacity="0.1" d="M399.5 384.958C399.006 384.958 398.522 385.163 398.111 385.548C397.7 385.933 397.38 386.48 397.19 387.121C397.001 387.761 396.952 388.466 397.048 389.146C397.145 389.825 397.383 390.45 397.732 390.94C398.082 391.43 398.527 391.764 399.012 391.899C399.497 392.034 400 391.965 400.457 391.7C400.914 391.434 401.304 390.985 401.579 390.409C401.853 389.833 402 389.155 402 388.462C402 387.532 401.737 386.641 401.268 385.984C400.799 385.327 400.163 384.958 399.5 384.958Z" fill="#FCFCFC"/>
<path opacity="0.1" d="M399.5 358.926C399.006 358.926 398.522 359.044 398.111 359.264C397.7 359.484 397.38 359.796 397.19 360.162C397.001 360.528 396.952 360.931 397.048 361.319C397.145 361.708 397.383 362.065 397.732 362.345C398.082 362.625 398.527 362.815 399.012 362.893C399.497 362.97 400 362.93 400.457 362.779C400.914 362.627 401.304 362.37 401.579 362.041C401.853 361.712 402 361.325 402 360.929C402 360.398 401.737 359.888 401.268 359.513C400.799 359.137 400.163 358.926 399.5 358.926Z" fill="#FCFCFC"/>
<path opacity="0.1" d="M399.5 331.893C399.006 331.893 398.522 332.04 398.111 332.315C397.7 332.59 397.38 332.981 397.19 333.438C397.001 333.895 396.952 334.398 397.048 334.884C397.145 335.369 397.383 335.815 397.732 336.165C398.082 336.515 398.527 336.753 399.012 336.85C399.497 336.946 400 336.897 400.457 336.707C400.914 336.518 401.304 336.197 401.579 335.786C401.853 335.374 402 334.89 402 334.395C402 333.732 401.737 333.095 401.268 332.626C400.799 332.157 400.163 331.893 399.5 331.893Z" fill="#FCFCFC"/>
<path opacity="0.1" d="M399.5 303.859C399.006 303.859 398.522 304.035 398.111 304.365C397.7 304.695 397.38 305.164 397.19 305.713C397.001 306.262 396.952 306.866 397.048 307.448C397.145 308.031 397.383 308.566 397.732 308.986C398.082 309.406 398.527 309.692 399.012 309.808C399.497 309.924 400 309.864 400.457 309.637C400.914 309.41 401.304 309.025 401.579 308.531C401.853 308.037 402 307.456 402 306.862C402 306.066 401.737 305.302 401.268 304.739C400.799 304.175 400.163 303.859 399.5 303.859Z" fill="#FCFCFC"/>
<path opacity="0.1" d="M427 439.024C426.604 439.024 426.218 439.2 425.889 439.53C425.56 439.86 425.304 440.329 425.152 440.878C425.001 441.427 424.961 442.031 425.038 442.614C425.116 443.197 425.306 443.732 425.586 444.152C425.865 444.572 426.222 444.858 426.61 444.974C426.998 445.09 427.4 445.03 427.765 444.803C428.131 444.576 428.443 444.191 428.663 443.697C428.883 443.203 429 442.622 429 442.028C429 441.231 428.789 440.467 428.414 439.904C428.039 439.34 427.53 439.024 427 439.024Z" fill="#FCFCFC"/>
<path opacity="0.1" d="M427 412.993C426.604 412.993 426.218 413.139 425.889 413.415C425.56 413.69 425.304 414.081 425.152 414.538C425.001 414.995 424.961 415.499 425.038 415.984C425.116 416.47 425.306 416.916 425.586 417.266C425.865 417.616 426.222 417.854 426.61 417.951C426.998 418.048 427.4 417.998 427.765 417.808C428.131 417.619 428.443 417.298 428.663 416.887C428.883 416.475 429 415.991 429 415.496C429 414.832 428.789 414.195 428.414 413.726C428.039 413.256 427.53 412.993 427 412.993Z" fill="#FCFCFC"/>
<path opacity="0.1" d="M427 384.958C426.604 384.958 426.218 385.163 425.889 385.548C425.56 385.933 425.304 386.48 425.152 387.121C425.001 387.761 424.961 388.466 425.038 389.146C425.116 389.825 425.306 390.45 425.586 390.94C425.865 391.43 426.222 391.764 426.61 391.899C426.998 392.034 427.4 391.965 427.765 391.7C428.131 391.434 428.443 390.985 428.663 390.409C428.883 389.833 429 389.155 429 388.462C429 387.532 428.789 386.641 428.414 385.984C428.039 385.327 427.53 384.958 427 384.958Z" fill="#FCFCFC"/>
<path opacity="0.1" d="M427 358.926C426.604 358.926 426.218 359.044 425.889 359.264C425.56 359.484 425.304 359.796 425.152 360.162C425.001 360.528 424.961 360.931 425.038 361.319C425.116 361.708 425.306 362.065 425.586 362.345C425.865 362.625 426.222 362.815 426.61 362.893C426.998 362.97 427.4 362.93 427.765 362.779C428.131 362.627 428.443 362.37 428.663 362.041C428.883 361.712 429 361.325 429 360.929C429 360.398 428.789 359.888 428.414 359.513C428.039 359.137 427.53 358.926 427 358.926Z" fill="#FCFCFC"/>
<path opacity="0.1" d="M427 303.859C426.604 303.859 426.218 304.035 425.889 304.365C425.56 304.695 425.304 305.164 425.152 305.713C425.001 306.262 424.961 306.866 425.038 307.448C425.116 308.031 425.306 308.566 425.586 308.986C425.865 309.406 426.222 309.692 426.61 309.808C426.998 309.924 427.4 309.864 427.765 309.637C428.131 309.41 428.443 309.025 428.663 308.531C428.883 308.037 429 307.456 429 306.862C429 306.066 428.789 305.302 428.414 304.739C428.039 304.175 427.53 303.859 427 303.859Z" fill="#FCFCFC"/>
<path opacity="0.1" d="M427 331.893C426.604 331.893 426.218 332.04 425.889 332.315C425.56 332.59 425.304 332.981 425.152 333.438C425.001 333.895 424.961 334.398 425.038 334.884C425.116 335.369 425.306 335.815 425.586 336.165C425.865 336.515 426.222 336.753 426.61 336.85C426.998 336.946 427.4 336.897 427.765 336.707C428.131 336.518 428.443 336.197 428.663 335.786C428.883 335.374 429 334.89 429 334.395C429 333.732 428.789 333.095 428.414 332.626C428.039 332.157 427.53 331.893 427 331.893Z" fill="#FCFCFC"/>
<path opacity="0.1" d="M45 439.024C44.6044 439.024 44.2178 439.2 43.8889 439.53C43.56 439.86 43.3036 440.329 43.1522 440.878C43.0009 441.427 42.9613 442.031 43.0384 442.614C43.1156 443.197 43.3061 443.732 43.5858 444.152C43.8655 444.572 44.2219 444.858 44.6098 444.974C44.9978 445.09 45.3999 445.03 45.7654 444.803C46.1308 444.576 46.4432 444.191 46.6629 443.697C46.8827 443.203 47 442.622 47 442.028C47 441.231 46.7893 440.467 46.4142 439.904C46.0391 439.34 45.5304 439.024 45 439.024Z" fill="#FCFCFC"/>
<path opacity="0.1" d="M44.9999 412.993C44.6051 412.993 44.2191 413.139 43.8905 413.413C43.562 413.687 43.3057 414.077 43.1538 414.533C43.002 414.989 42.9614 415.492 43.0372 415.977C43.1131 416.462 43.3019 416.908 43.58 417.259C43.858 417.609 44.2128 417.849 44.5997 417.948C44.9866 418.047 45.3882 418.001 45.7539 417.814C46.1196 417.628 46.4331 417.31 46.6549 416.902C46.8766 416.493 46.9967 416.011 46.9999 415.517C47.0021 415.186 46.952 414.858 46.8525 414.552C46.7529 414.246 46.606 413.968 46.42 413.733C46.2341 413.499 46.0129 413.312 45.7691 413.185C45.5254 413.058 45.264 412.993 44.9999 412.993Z" fill="#FCFCFC"/>
<path opacity="0.1" d="M45 384.958C44.6044 384.958 44.2178 385.163 43.8889 385.548C43.56 385.933 43.3036 386.48 43.1522 387.121C43.0009 387.761 42.9613 388.466 43.0384 389.146C43.1156 389.825 43.3061 390.45 43.5858 390.94C43.8655 391.43 44.2219 391.764 44.6098 391.899C44.9978 392.034 45.3999 391.965 45.7654 391.7C46.1308 391.434 46.4432 390.985 46.6629 390.409C46.8827 389.833 47 389.155 47 388.462C47 387.532 46.7893 386.641 46.4142 385.984C46.0391 385.327 45.5304 384.958 45 384.958Z" fill="#FCFCFC"/>
<path opacity="0.1" d="M45 358.926C44.4696 358.926 43.9609 359.137 43.5858 359.513C43.2107 359.888 43 360.398 43 360.929C43 361.46 43.2107 361.969 43.5858 362.345C43.9609 362.72 44.4696 362.931 45 362.931C45.5304 362.931 46.0391 362.72 46.4142 362.345C46.7893 361.969 47 361.46 47 360.929C47 360.398 46.7893 359.888 46.4142 359.513C46.0391 359.137 45.5304 358.926 45 358.926Z" fill="#FCFCFC"/>
<path d="M45 331.893C44.6044 331.893 44.2178 332.04 43.8889 332.315C43.56 332.59 43.3036 332.981 43.1522 333.438C43.0009 333.895 42.9613 334.398 43.0384 334.884C43.1156 335.369 43.3061 335.815 43.5858 336.165C43.8655 336.515 44.2219 336.753 44.6098 336.85C44.9978 336.946 45.3999 336.897 45.7654 336.707C46.1308 336.518 46.4432 336.197 46.6629 335.786C46.8827 335.374 47 334.89 47 334.395C47 333.732 46.7893 333.095 46.4142 332.626C46.0391 332.157 45.5304 331.893 45 331.893Z" fill="#E3000F"/>
<path opacity="0.1" d="M45 303.859C44.6044 303.859 44.2178 304.035 43.8889 304.365C43.56 304.695 43.3036 305.164 43.1522 305.713C43.0009 306.262 42.9613 306.866 43.0384 307.448C43.1156 308.031 43.3061 308.566 43.5858 308.986C43.8655 309.406 44.2219 309.692 44.6098 309.808C44.9978 309.924 45.3999 309.864 45.7654 309.637C46.1308 309.41 46.4432 309.025 46.6629 308.531C46.8827 308.037 47 307.456 47 306.862C47 306.066 46.7893 305.302 46.4142 304.739C46.0391 304.175 45.5304 303.859 45 303.859Z" fill="#FCFCFC"/>
<path opacity="0.1" d="M72.5 439.024C72.0056 439.024 71.5222 439.2 71.1111 439.53C70.7 439.86 70.3795 440.329 70.1903 440.878C70.0011 441.427 69.9516 442.031 70.048 442.614C70.1445 443.197 70.3826 443.732 70.7322 444.152C71.0819 444.572 71.5273 444.858 72.0123 444.974C72.4972 445.09 72.9999 445.03 73.4567 444.803C73.9135 444.576 74.304 444.191 74.5787 443.697C74.8534 443.203 75 442.622 75 442.028C75 441.231 74.7366 440.467 74.2678 439.904C73.7989 439.34 73.163 439.024 72.5 439.024Z" fill="#FCFCFC"/>
<path opacity="0.1" d="M72.4999 412.993C72.0063 412.993 71.5238 413.139 71.1132 413.413C70.7025 413.687 70.3821 414.077 70.1923 414.533C70.0025 414.989 69.9517 415.492 70.0465 415.977C70.1413 416.462 70.3774 416.908 70.725 417.259C71.0725 417.609 71.5161 417.849 71.9996 417.948C72.4832 418.047 72.9852 418.001 73.4424 417.814C73.8995 417.628 74.2914 417.31 74.5686 416.902C74.8458 416.493 74.9958 416.011 74.9999 415.517C75.0026 415.186 74.94 414.858 74.8156 414.552C74.6912 414.246 74.5074 413.968 74.275 413.733C74.0426 413.499 73.7661 413.312 73.4614 413.185C73.1567 413.058 72.83 412.993 72.4999 412.993Z" fill="#FCFCFC"/>
<path d="M72.5 384.958C72.0056 384.958 71.5222 385.163 71.1111 385.548C70.7 385.933 70.3795 386.48 70.1903 387.121C70.0011 387.761 69.9516 388.466 70.048 389.146C70.1445 389.825 70.3826 390.45 70.7322 390.94C71.0819 391.43 71.5273 391.764 72.0123 391.899C72.4972 392.034 72.9999 391.965 73.4567 391.7C73.9135 391.434 74.304 390.985 74.5787 390.409C74.8534 389.833 75 389.155 75 388.462C75 387.532 74.7366 386.641 74.2678 385.984C73.7989 385.327 73.163 384.958 72.5 384.958Z" fill="#E3000F"/>
<path opacity="0.1" d="M72.5 358.926C72.0056 358.926 71.5222 359.044 71.1111 359.264C70.7 359.484 70.3795 359.796 70.1903 360.162C70.0011 360.528 69.9516 360.931 70.048 361.319C70.1445 361.708 70.3826 362.065 70.7322 362.345C71.0819 362.625 71.5273 362.815 72.0123 362.893C72.4972 362.97 72.9999 362.93 73.4567 362.779C73.9135 362.627 74.304 362.37 74.5787 362.041C74.8534 361.712 75 361.325 75 360.929C75 360.398 74.7366 359.888 74.2678 359.513C73.7989 359.137 73.163 358.926 72.5 358.926Z" fill="#FCFCFC"/>
<path opacity="0.1" d="M72.5 303.859C72.0056 303.859 71.5222 304.035 71.1111 304.365C70.7 304.695 70.3795 305.164 70.1903 305.713C70.0011 306.262 69.9516 306.866 70.048 307.448C70.1445 308.031 70.3826 308.566 70.7322 308.986C71.0819 309.406 71.5273 309.692 72.0123 309.808C72.4972 309.924 72.9999 309.864 73.4567 309.637C73.9135 309.41 74.304 309.025 74.5787 308.531C74.8534 308.037 75 307.456 75 306.862C75 306.066 74.7366 305.302 74.2678 304.739C73.7989 304.175 73.163 303.859 72.5 303.859Z" fill="#FCFCFC"/>
<path opacity="0.1" d="M72.5 331.893C72.0056 331.893 71.5222 332.04 71.1111 332.315C70.7 332.59 70.3795 332.981 70.1903 333.438C70.0011 333.895 69.9516 334.398 70.048 334.884C70.1445 335.369 70.3826 335.815 70.7322 336.165C71.0819 336.515 71.5273 336.753 72.0123 336.85C72.4972 336.946 72.9999 336.897 73.4567 336.707C73.9135 336.518 74.304 336.197 74.5787 335.786C74.8534 335.374 75 334.89 75 334.395C75 333.732 74.7366 333.095 74.2678 332.626C73.7989 332.157 73.163 331.893 72.5 331.893Z" fill="#FCFCFC"/>
<path opacity="0.1" d="M100 439.024C99.4067 439.024 98.8266 439.2 98.3333 439.53C97.8399 439.86 97.4554 440.329 97.2284 440.878C97.0013 441.427 96.9419 442.031 97.0576 442.614C97.1734 443.197 97.4591 443.732 97.8787 444.152C98.2982 444.572 98.8328 444.858 99.4147 444.974C99.9967 445.09 100.6 445.03 101.148 444.803C101.696 444.576 102.165 444.191 102.494 443.697C102.824 443.203 103 442.622 103 442.028C103 441.231 102.684 440.467 102.121 439.904C101.559 439.34 100.796 439.024 100 439.024Z" fill="#FCFCFC"/>
<path opacity="0.1" d="M100 412.993C99.4067 412.993 98.8266 413.139 98.3333 413.415C97.8399 413.69 97.4554 414.081 97.2284 414.538C97.0013 414.995 96.9419 415.499 97.0576 415.984C97.1734 416.47 97.4591 416.916 97.8787 417.266C98.2982 417.616 98.8328 417.854 99.4147 417.951C99.9967 418.048 100.6 417.998 101.148 417.808C101.696 417.619 102.165 417.298 102.494 416.887C102.824 416.475 103 415.991 103 415.496C103 414.832 102.684 414.195 102.121 413.726C101.559 413.256 100.796 412.993 100 412.993Z" fill="#FCFCFC"/>
<path opacity="0.1" d="M100 384.958C99.4067 384.958 98.8266 385.163 98.3333 385.548C97.8399 385.933 97.4554 386.48 97.2284 387.121C97.0013 387.761 96.9419 388.466 97.0576 389.146C97.1734 389.825 97.4591 390.45 97.8787 390.94C98.2982 391.43 98.8328 391.764 99.4147 391.899C99.9967 392.034 100.6 391.965 101.148 391.7C101.696 391.434 102.165 390.985 102.494 390.409C102.824 389.833 103 389.155 103 388.462C103 387.532 102.684 386.641 102.121 385.984C101.559 385.327 100.796 384.958 100 384.958Z" fill="#FCFCFC"/>
<path opacity="0.1" d="M100 358.926C99.4067 358.926 98.8266 359.044 98.3333 359.264C97.8399 359.484 97.4554 359.796 97.2284 360.162C97.0013 360.528 96.9419 360.931 97.0576 361.319C97.1734 361.708 97.4591 362.065 97.8787 362.345C98.2982 362.625 98.8328 362.815 99.4147 362.893C99.9967 362.97 100.6 362.93 101.148 362.779C101.696 362.627 102.165 362.37 102.494 362.041C102.824 361.712 103 361.325 103 360.929C103 360.398 102.684 359.888 102.121 359.513C101.559 359.137 100.796 358.926 100 358.926Z" fill="#FCFCFC"/>
<path opacity="0.1" d="M100 303.859C99.4067 303.859 98.8266 304.035 98.3333 304.365C97.8399 304.695 97.4554 305.164 97.2284 305.713C97.0013 306.262 96.9419 306.866 97.0576 307.448C97.1734 308.031 97.4591 308.566 97.8787 308.986C98.2982 309.406 98.8328 309.692 99.4147 309.808C99.9967 309.924 100.6 309.864 101.148 309.637C101.696 309.41 102.165 309.025 102.494 308.531C102.824 308.037 103 307.456 103 306.862C103 306.066 102.684 305.302 102.121 304.739C101.559 304.175 100.796 303.859 100 303.859Z" fill="#FCFCFC"/>
<path opacity="0.1" d="M100 331.893C99.4067 331.893 98.8266 332.04 98.3333 332.315C97.8399 332.59 97.4554 332.981 97.2284 333.438C97.0013 333.895 96.9419 334.398 97.0576 334.884C97.1734 335.369 97.4591 335.815 97.8787 336.165C98.2982 336.515 98.8328 336.753 99.4147 336.85C99.9967 336.946 100.6 336.897 101.148 336.707C101.696 336.518 102.165 336.197 102.494 335.786C102.824 335.374 103 334.89 103 334.395C103 333.732 102.684 333.095 102.121 332.626C101.559 332.157 100.796 331.893 100 331.893Z" fill="#FCFCFC"/>
<path opacity="0.1" d="M127.5 439.024C126.808 439.024 126.131 439.2 125.555 439.53C124.98 439.86 124.531 440.329 124.266 440.878C124.002 441.427 123.932 442.031 124.067 442.614C124.202 443.197 124.536 443.732 125.025 444.152C125.515 444.572 126.138 444.858 126.817 444.974C127.496 445.09 128.2 445.03 128.839 444.803C129.479 444.576 130.026 444.191 130.41 443.697C130.795 443.203 131 442.622 131 442.028C131 441.231 130.631 440.467 129.975 439.904C129.318 439.34 128.428 439.024 127.5 439.024Z" fill="#FCFCFC"/>
<path opacity="0.1" d="M127.5 412.993C126.808 412.993 126.131 413.139 125.555 413.415C124.98 413.69 124.531 414.081 124.266 414.538C124.002 414.995 123.932 415.499 124.067 415.984C124.202 416.47 124.536 416.916 125.025 417.266C125.515 417.616 126.138 417.854 126.817 417.951C127.496 418.048 128.2 417.998 128.839 417.808C129.479 417.619 130.026 417.298 130.41 416.887C130.795 416.475 131 415.991 131 415.496C131 414.832 130.631 414.195 129.975 413.726C129.318 413.256 128.428 412.993 127.5 412.993Z" fill="#FCFCFC"/>
<path opacity="0.1" d="M127.5 384.958C126.808 384.958 126.131 385.163 125.555 385.548C124.98 385.933 124.531 386.48 124.266 387.121C124.002 387.761 123.932 388.466 124.067 389.146C124.202 389.825 124.536 390.45 125.025 390.94C125.515 391.43 126.138 391.764 126.817 391.899C127.496 392.034 128.2 391.965 128.839 391.7C129.479 391.434 130.026 390.985 130.41 390.409C130.795 389.833 131 389.155 131 388.462C131 387.532 130.631 386.641 129.975 385.984C129.318 385.327 128.428 384.958 127.5 384.958Z" fill="#FCFCFC"/>
<path opacity="0.1" d="M127.5 358.926C126.572 358.926 125.682 359.137 125.025 359.513C124.369 359.888 124 360.398 124 360.929C124 361.46 124.369 361.969 125.025 362.345C125.682 362.72 126.572 362.931 127.5 362.931C128.428 362.931 129.318 362.72 129.975 362.345C130.631 361.969 131 361.46 131 360.929C131 360.398 130.631 359.888 129.975 359.513C129.318 359.137 128.428 358.926 127.5 358.926Z" fill="#FCFCFC"/>
<path opacity="0.1" d="M127.5 331.893C126.808 331.893 126.131 332.04 125.555 332.315C124.98 332.59 124.531 332.981 124.266 333.438C124.002 333.895 123.932 334.398 124.067 334.884C124.202 335.369 124.536 335.815 125.025 336.165C125.515 336.515 126.138 336.753 126.817 336.85C127.496 336.946 128.2 336.897 128.839 336.707C129.479 336.518 130.026 336.197 130.41 335.786C130.795 335.374 131 334.89 131 334.395C131 333.732 130.631 333.095 129.975 332.626C129.318 332.157 128.428 331.893 127.5 331.893Z" fill="#FCFCFC"/>
<path opacity="0.1" d="M127.5 303.859C126.808 303.859 126.131 304.035 125.555 304.365C124.98 304.695 124.531 305.164 124.266 305.713C124.002 306.262 123.932 306.866 124.067 307.448C124.202 308.031 124.536 308.566 125.025 308.986C125.515 309.406 126.138 309.692 126.817 309.808C127.496 309.924 128.2 309.864 128.839 309.637C129.479 309.41 130.026 309.025 130.41 308.531C130.795 308.037 131 307.456 131 306.862C131 306.066 130.631 305.302 129.975 304.739C129.318 304.175 128.428 303.859 127.5 303.859Z" fill="#FCFCFC"/>
<path opacity="0.1" d="M155 439.024C154.604 439.024 154.218 439.2 153.889 439.53C153.56 439.86 153.304 440.329 153.152 440.878C153.001 441.427 152.961 442.031 153.038 442.614C153.116 443.197 153.306 443.732 153.586 444.152C153.865 444.572 154.222 444.858 154.61 444.974C154.998 445.09 155.4 445.03 155.765 444.803C156.131 444.576 156.443 444.191 156.663 443.697C156.883 443.203 157 442.622 157 442.028C157 441.231 156.789 440.467 156.414 439.904C156.039 439.34 155.53 439.024 155 439.024Z" fill="#FCFCFC"/>
<path opacity="0.1" d="M154.983 412.993C154.589 412.997 154.205 413.147 153.879 413.423C153.552 413.7 153.298 414.091 153.149 414.548C153 415.004 152.962 415.506 153.039 415.989C153.117 416.473 153.307 416.917 153.586 417.266C153.864 417.615 154.219 417.853 154.606 417.95C154.992 418.047 155.393 417.999 155.758 417.812C156.122 417.626 156.435 417.308 156.656 416.899C156.877 416.491 156.997 416.01 157 415.517C157.002 415.184 156.951 414.855 156.851 414.548C156.75 414.24 156.602 413.961 156.414 413.726C156.227 413.491 156.003 413.305 155.758 413.179C155.512 413.053 155.249 412.99 154.983 412.993Z" fill="#FCFCFC"/>
<path d="M155 384.958C154.604 384.958 154.218 385.163 153.889 385.548C153.56 385.933 153.304 386.48 153.152 387.121C153.001 387.761 152.961 388.466 153.038 389.146C153.116 389.825 153.306 390.45 153.586 390.94C153.865 391.43 154.222 391.764 154.61 391.899C154.998 392.034 155.4 391.965 155.765 391.7C156.131 391.434 156.443 390.985 156.663 390.409C156.883 389.833 157 389.155 157 388.462C157 387.532 156.789 386.641 156.414 385.984C156.039 385.327 155.53 384.958 155 384.958Z" fill="#E3000F"/>
<path opacity="0.1" d="M155 358.926C154.604 358.926 154.218 359.044 153.889 359.264C153.56 359.484 153.304 359.796 153.152 360.162C153.001 360.528 152.961 360.931 153.038 361.319C153.116 361.708 153.306 362.065 153.586 362.345C153.865 362.625 154.222 362.815 154.61 362.893C154.998 362.97 155.4 362.93 155.765 362.779C156.131 362.627 156.443 362.37 156.663 362.041C156.883 361.712 157 361.325 157 360.929C157 360.398 156.789 359.888 156.414 359.513C156.039 359.137 155.53 358.926 155 358.926Z" fill="#FCFCFC"/>
<path opacity="0.1" d="M155 331.893C154.604 331.893 154.218 332.04 153.889 332.315C153.56 332.59 153.304 332.981 153.152 333.438C153.001 333.895 152.961 334.398 153.038 334.884C153.116 335.369 153.306 335.815 153.586 336.165C153.865 336.515 154.222 336.753 154.61 336.85C154.998 336.946 155.4 336.897 155.765 336.707C156.131 336.518 156.443 336.197 156.663 335.786C156.883 335.374 157 334.89 157 334.395C157 333.732 156.789 333.095 156.414 332.626C156.039 332.157 155.53 331.893 155 331.893Z" fill="#FCFCFC"/>
<path opacity="0.1" d="M155 303.859C154.604 303.859 154.218 304.035 153.889 304.365C153.56 304.695 153.304 305.164 153.152 305.713C153.001 306.262 152.961 306.866 153.038 307.448C153.116 308.031 153.306 308.566 153.586 308.986C153.865 309.406 154.222 309.692 154.61 309.808C154.998 309.924 155.4 309.864 155.765 309.637C156.131 309.41 156.443 309.025 156.663 308.531C156.883 308.037 157 307.456 157 306.862C157 306.066 156.789 305.302 156.414 304.739C156.039 304.175 155.53 303.859 155 303.859Z" fill="#FCFCFC"/>
<path opacity="0.1" d="M827.648 362.545C824.85 319.793 805.721 279.762 774.228 250.756C742.736 221.75 701.299 205.997 658.515 206.766C615.731 207.534 574.885 224.765 544.452 254.884C514.02 285.002 496.337 325.695 495.073 368.519C493.809 411.343 509.061 453.011 537.664 484.876C566.268 516.741 606.026 536.357 648.69 539.653C691.354 542.95 733.648 529.674 766.796 502.581C799.944 475.488 821.401 436.657 826.715 394.145C828.019 383.665 828.332 373.084 827.648 362.545ZM799.541 426.934C785.78 462.426 758.893 491.247 724.463 507.408C690.034 523.57 650.709 525.831 614.658 513.721C578.607 501.611 548.601 476.062 530.874 442.38C513.146 408.698 509.06 369.473 519.464 332.854C529.868 296.234 553.962 265.035 586.742 245.738C619.521 226.441 658.465 220.528 695.485 229.229C732.504 237.929 764.753 260.574 785.532 292.46C806.311 324.345 814.023 363.019 807.065 400.448C805.392 409.494 802.872 418.361 799.541 426.934Z" fill="#FCFCFC"/>
<path opacity="0.1" d="M1235.43 467.551C1234.74 468.256 1234.27 469.149 1234.09 470.118C1233.9 471.088 1234.01 472.09 1234.39 473C1234.77 473.91 1235.41 474.686 1236.23 475.232C1237.05 475.779 1238.02 476.07 1239 476.07C1239.98 476.07 1240.95 475.779 1241.77 475.232C1242.59 474.686 1243.23 473.91 1243.61 473C1243.99 472.09 1244.1 471.088 1243.91 470.118C1243.73 469.149 1243.26 468.256 1242.57 467.551C1242.1 467.078 1241.55 466.702 1240.93 466.446C1240.32 466.189 1239.66 466.057 1239 466.057C1238.34 466.057 1237.68 466.189 1237.07 466.446C1236.45 466.702 1235.9 467.078 1235.43 467.551Z" fill="#FCFCFC"/>
<path opacity="0.1" d="M1202.3 474.7C1201.68 475.472 1201.25 476.454 1201.08 477.52C1200.91 478.587 1201.01 479.691 1201.35 480.694C1201.69 481.697 1202.27 482.553 1203 483.156C1203.74 483.758 1204.61 484.08 1205.5 484.08C1206.39 484.08 1207.26 483.758 1207.99 483.156C1208.73 482.553 1209.31 481.697 1209.65 480.694C1209.99 479.691 1210.09 478.587 1209.92 477.52C1209.75 476.454 1209.32 475.472 1208.7 474.7C1208.28 474.182 1207.78 473.771 1207.23 473.491C1206.68 473.21 1206.1 473.066 1205.5 473.066C1204.9 473.066 1204.32 473.21 1203.77 473.491C1203.22 473.771 1202.72 474.182 1202.3 474.7Z" fill="#FCFCFC"/>
<path opacity="0.1" d="M1274.7 482.446C1275.32 481.673 1275.75 480.692 1275.92 479.625C1276.09 478.559 1275.99 477.455 1275.65 476.452C1275.31 475.449 1274.73 474.592 1274 473.99C1273.26 473.387 1272.39 473.066 1271.5 473.066C1270.61 473.066 1269.74 473.387 1269.01 473.99C1268.27 474.592 1267.69 475.449 1267.35 476.452C1267.01 477.455 1266.91 478.559 1267.08 479.625C1267.25 480.692 1267.68 481.673 1268.3 482.446C1268.72 482.963 1269.22 483.374 1269.77 483.655C1270.32 483.935 1270.9 484.08 1271.5 484.08C1272.1 484.08 1272.68 483.935 1273.23 483.655C1273.78 483.374 1274.28 482.963 1274.7 482.446Z" fill="#FCFCFC"/>
<path opacity="0.1" d="M525 96.604H544L534.5 112.624L525 96.604Z" fill="#FCFCFC"/>
<path opacity="0.1" d="M525 124.638H544L534.5 141.659L525 124.638Z" fill="#FCFCFC"/>
<path d="M25 232.771H44L34.5 248.791L25 232.771Z" fill="#E3000F"/>
</g>
<defs>
<clipPath id="clip0">
<rect width="1313" height="502" fill="white" transform="translate(0 0.165039)"/>
</clipPath>
</defs>
</svg>
