<svg width="65" height="65" viewBox="0 0 65 65" fill="none" xmlns="http://www.w3.org/2000/svg">
<g clip-path="url(#clip0)">
<path d="M52.5435 18.4922C51.4421 18.4922 50.5435 17.5935 50.5435 16.4922C50.5435 15.3909 51.4421 14.4922 52.5435 14.4922C53.6448 14.4922 54.5435 15.3909 54.5435 16.4922C54.5435 17.5935 53.6448 18.4922 52.5435 18.4922Z" fill="#E3000F"/>
<path d="M58.1966 12.1722C57.8553 12.1722 57.5139 12.0415 57.2526 11.7828C54.7326 9.26285 50.3512 9.26285 47.8312 11.7828C47.3112 12.3028 46.4659 12.3028 45.9459 11.7828C45.4259 11.2628 45.4259 10.4175 45.9459 9.89751C49.4766 6.36685 55.6073 6.36685 59.1379 9.89751C59.6579 10.4175 59.6579 11.2628 59.1379 11.7828C58.8793 12.0415 58.5379 12.1722 58.1966 12.1722Z" fill="#E3000F"/>
<path d="M62.9166 7.45219C62.5753 7.45219 62.2339 7.32152 61.9726 7.06285C59.4553 4.54552 56.1059 3.15885 52.5433 3.15885C48.9779 3.15885 45.6286 4.54552 43.1113 7.06285C42.5913 7.58285 41.7459 7.58285 41.2259 7.06285C40.7059 6.54285 40.7059 5.69752 41.2259 5.17752C44.2473 2.15619 48.2659 0.492188 52.5433 0.492188C56.8206 0.492188 60.8366 2.15619 63.8579 5.17752C64.3779 5.69752 64.3779 6.54285 63.8579 7.06285C63.5993 7.32419 63.2579 7.45219 62.9166 7.45219Z" fill="#E3000F"/>
<path d="M34.9166 48.4921C31.9753 48.4921 29.5833 46.1001 29.5833 43.1588C29.5833 40.2174 31.9753 37.8254 34.9166 37.8254C37.8579 37.8254 40.2499 40.2174 40.2499 43.1588C40.2499 46.1001 37.8579 48.4921 34.9166 48.4921ZM34.9166 40.4921C33.4446 40.4921 32.2499 41.6868 32.2499 43.1588C32.2499 44.6308 33.4446 45.8254 34.9166 45.8254C36.3886 45.8254 37.5832 44.6308 37.5832 43.1588C37.5832 41.6868 36.3886 40.4921 34.9166 40.4921Z" fill="#E3000F"/>
<path d="M18.9166 48.4921C15.9753 48.4921 13.5833 46.1001 13.5833 43.1588C13.5833 40.2174 15.9753 37.8254 18.9166 37.8254C21.8579 37.8254 24.2499 40.2174 24.2499 43.1588C24.2499 46.1001 21.8579 48.4921 18.9166 48.4921ZM18.9166 40.4921C17.4446 40.4921 16.2499 41.6868 16.2499 43.1588C16.2499 44.6308 17.4446 45.8254 18.9166 45.8254C20.3886 45.8254 21.5832 44.6308 21.5832 43.1588C21.5832 41.6868 20.3886 40.4921 18.9166 40.4921Z" fill="#E3000F"/>
<path d="M41.5835 64.4921H12.2502C8.57283 64.4921 5.5835 61.5027 5.5835 57.8254V36.4921C5.5835 32.8148 8.57283 29.8254 12.2502 29.8254H41.5835C45.2608 29.8254 48.2502 32.8148 48.2502 36.4921V57.8254C48.2502 61.5027 45.2608 64.4921 41.5835 64.4921ZM12.2502 32.4921C10.0448 32.4921 8.25016 34.2868 8.25016 36.4921V57.8254C8.25016 60.0308 10.0448 61.8254 12.2502 61.8254H41.5835C43.7888 61.8254 45.5835 60.0308 45.5835 57.8254V36.4921C45.5835 34.2868 43.7888 32.4921 41.5835 32.4921H12.2502Z" fill="#E3000F"/>
<path d="M26.9166 32.4921C26.1806 32.4921 25.5833 31.8948 25.5833 31.1588V23.1588C25.5833 22.4228 26.1806 21.8254 26.9166 21.8254C27.6526 21.8254 28.2499 22.4228 28.2499 23.1588V31.1588C28.2499 31.8948 27.6526 32.4921 26.9166 32.4921Z" fill="#E3000F"/>
<path d="M33.5834 56.4921H20.2501C19.5141 56.4921 18.9167 55.8948 18.9167 55.1588C18.9167 54.4228 19.5141 53.8254 20.2501 53.8254H33.5834C34.3194 53.8254 34.9167 54.4228 34.9167 55.1588C34.9167 55.8948 34.3194 56.4921 33.5834 56.4921Z" fill="#E3000F"/>
<path d="M26.9166 24.4921C23.9753 24.4921 21.5833 22.1001 21.5833 19.1588C21.5833 16.2174 23.9753 13.8254 26.9166 13.8254C29.8579 13.8254 32.2499 16.2174 32.2499 19.1588C32.2499 22.1001 29.8579 24.4921 26.9166 24.4921ZM26.9166 16.4921C25.4446 16.4921 24.2499 17.6868 24.2499 19.1588C24.2499 20.6308 25.4446 21.8254 26.9166 21.8254C28.3886 21.8254 29.5832 20.6308 29.5832 19.1588C29.5832 17.6868 28.3886 16.4921 26.9166 16.4921Z" fill="#E3000F"/>
<path d="M6.91667 48.4921H1.58333C0.847333 48.4921 0.25 47.8948 0.25 47.1588C0.25 46.4228 0.847333 45.8254 1.58333 45.8254H6.91667C7.65267 45.8254 8.25 46.4228 8.25 47.1588C8.25 47.8948 7.65267 48.4921 6.91667 48.4921Z" fill="#E3000F"/>
<path d="M52.2499 48.4921H46.9166C46.1806 48.4921 45.5833 47.8948 45.5833 47.1588C45.5833 46.4228 46.1806 45.8254 46.9166 45.8254H52.2499C52.9859 45.8254 53.5833 46.4228 53.5833 47.1588C53.5833 47.8948 52.9859 48.4921 52.2499 48.4921Z" fill="#E3000F"/>
<path d="M1.58333 53.8255C0.847333 53.8255 0.25 53.2282 0.25 52.4922V41.8255C0.25 41.0895 0.847333 40.4922 1.58333 40.4922C2.31933 40.4922 2.91667 41.0895 2.91667 41.8255V52.4922C2.91667 53.2282 2.31933 53.8255 1.58333 53.8255Z" fill="#E3000F"/>
<path d="M52.2501 53.8255C51.5141 53.8255 50.9167 53.2282 50.9167 52.4922V41.8255C50.9167 41.0895 51.5141 40.4922 52.2501 40.4922C52.9861 40.4922 53.5834 41.0895 53.5834 41.8255V52.4922C53.5834 53.2282 52.9861 53.8255 52.2501 53.8255Z" fill="#E3000F"/>
</g>
<defs>
<clipPath id="clip0">
<rect width="64" height="64" fill="white" transform="translate(0.25 0.492188)"/>
</clipPath>
</defs>
</svg>
