<svg width="64" height="65" viewBox="0 0 64 65" fill="none" xmlns="http://www.w3.org/2000/svg">
<g clip-path="url(#clip0)">
<path d="M13.3335 16.4922C8.92283 16.4922 5.3335 12.9029 5.3335 8.49219C5.3335 4.08152 8.92283 0.492188 13.3335 0.492188C17.7442 0.492188 21.3335 4.08152 21.3335 8.49219C21.3335 12.9029 17.7442 16.4922 13.3335 16.4922ZM13.3335 3.15885C10.3922 3.15885 8.00016 5.55085 8.00016 8.49219C8.00016 11.4335 10.3922 13.8255 13.3335 13.8255C16.2748 13.8255 18.6668 11.4335 18.6668 8.49219C18.6668 5.55085 16.2748 3.15885 13.3335 3.15885Z" fill="#E3000F"/>
<path d="M17.3333 64.4923H9.33333C7.128 64.4923 5.33333 62.6976 5.33333 60.4923V46.1403C5.33333 45.6309 5.05067 45.1749 4.59733 44.9483L2.21067 43.7563C0.848 43.0736 0 41.7029 0 40.1776V28.4923C0 23.3456 4.18667 19.1589 9.33333 19.1589H17.3333C22.48 19.1589 26.6667 23.3456 26.6667 28.4923V40.1776C26.6667 41.7029 25.8187 43.0736 24.456 43.7563L22.0693 44.9483C21.616 45.1749 21.3333 45.6309 21.3333 46.1403V60.4923C21.3333 62.6976 19.5387 64.4923 17.3333 64.4923ZM9.33333 21.8256C5.65867 21.8256 2.66667 24.8176 2.66667 28.4923V40.1776C2.66667 40.6869 2.94933 41.1429 3.40267 41.3696L5.78933 42.5616C7.152 43.2443 8 44.6149 8 46.1403V60.4923C8 61.2283 8.59733 61.8256 9.33333 61.8256H17.3333C18.0693 61.8256 18.6667 61.2283 18.6667 60.4923V46.1403C18.6667 44.6149 19.5147 43.2443 20.8773 42.5616L23.264 41.3696C23.7173 41.1429 24 40.6869 24 40.1776V28.4923C24 24.8176 21.008 21.8256 17.3333 21.8256H9.33333Z" fill="#E3000F"/>
<path d="M57.3332 43.1588H33.3332C32.5972 43.1588 31.9998 42.5614 31.9998 41.8254C31.9998 41.0894 32.5972 40.4921 33.3332 40.4921H57.3332C59.5385 40.4921 61.3332 38.6974 61.3332 36.4921V12.4921C61.3332 10.2868 59.5385 8.49211 57.3332 8.49211H27.9998C27.2638 8.49211 26.6665 7.89477 26.6665 7.15877C26.6665 6.42277 27.2638 5.82544 27.9998 5.82544H57.3332C61.0078 5.82544 63.9998 8.81744 63.9998 12.4921V36.4921C63.9998 40.1668 61.0078 43.1588 57.3332 43.1588Z" fill="#E3000F"/>
<path d="M52 32.4921H33.3333C32.7946 32.4921 32.3066 32.1668 32.1013 31.6681C31.8933 31.1695 32.008 30.5961 32.3893 30.2148L45.7226 16.8815C46.2426 16.3615 47.088 16.3615 47.608 16.8815C48.128 17.4015 48.128 18.2468 47.608 18.7668L36.552 29.8255H52C52.736 29.8255 53.3333 30.4228 53.3333 31.1588C53.3333 31.8948 52.736 32.4921 52 32.4921Z" fill="#E3000F"/>
<path d="M43.2774 32.4923C43.0481 32.4923 42.8161 32.4336 42.6054 32.311C41.9707 31.9376 41.7574 31.1216 42.1281 30.4843C42.4747 29.8923 42.6667 29.1856 42.6667 28.4923C42.6667 26.9269 41.7387 25.5003 40.3067 24.8549C39.6347 24.5536 39.3361 23.7643 39.6374 23.0923C39.9414 22.423 40.7254 22.1243 41.4001 22.4229C43.7894 23.4976 45.3334 25.8789 45.3334 28.4923C45.3334 29.6683 45.0214 30.8256 44.4321 31.8336C44.1814 32.2576 43.7361 32.4923 43.2774 32.4923Z" fill="#E3000F"/>
</g>
<defs>
<clipPath id="clip0">
<rect width="64" height="64" fill="white" transform="translate(0 0.492188)"/>
</clipPath>
</defs>
</svg>
