<svg width="64" height="65" viewBox="0 0 64 65" fill="none" xmlns="http://www.w3.org/2000/svg">
<g clip-path="url(#clip0)">
<path d="M23.4729 50.6448C22.1034 49.2746 20.4951 48.2294 18.7418 47.5474C21.0111 45.9651 22.5 43.3373 22.5 40.3672C22.5 35.5424 18.5747 31.6172 13.75 31.6172C8.92525 31.6172 5 35.5424 5 40.3672C5 43.3406 6.492 45.9707 8.76538 47.5526C3.6405 49.5529 0 54.5427 0 60.3672V63.2422C0 63.9324 0.559625 64.4922 1.25 64.4922H26.25C26.9404 64.4922 27.5 63.9324 27.5 63.2422V60.3672C27.5 56.6931 26.0696 53.2401 23.4729 50.6448ZM7.5 40.3672C7.5 36.9209 10.3038 34.1172 13.75 34.1172C17.1963 34.1172 20 36.9209 20 40.3672C20 43.8134 17.1963 46.6172 13.75 46.6172C10.3038 46.6172 7.5 43.8134 7.5 40.3672ZM25 61.9922H2.5V60.3672C2.5 54.1639 7.54675 49.1172 13.75 49.1172C16.756 49.1172 19.581 50.2873 21.7051 52.4126C23.8299 54.5362 25 57.3611 25 60.3672V61.9922Z" fill="#E3000F"/>
<path d="M59.9729 50.6448C58.6034 49.2746 56.9951 48.2294 55.2417 47.5474C57.5111 45.9651 59 43.3373 59 40.3672C59 35.5424 55.0747 31.6172 50.25 31.6172C45.4253 31.6172 41.5 35.5424 41.5 40.3672C41.5 43.3406 42.992 45.9707 45.2654 47.5526C40.1405 49.5529 36.5 54.5427 36.5 60.3672V63.2422C36.5 63.9324 37.0596 64.4922 37.75 64.4922H62.75C63.4404 64.4922 64 63.9324 64 63.2422V60.3672C64 56.6931 62.5696 53.2401 59.9729 50.6448ZM44 40.3672C44 36.9209 46.8038 34.1172 50.25 34.1172C53.6963 34.1172 56.5 36.9209 56.5 40.3672C56.5 43.8134 53.6963 46.6172 50.25 46.6172C46.8038 46.6172 44 43.8134 44 40.3672ZM61.5 61.9922H39V60.3672C39 54.1639 44.0468 49.1172 50.25 49.1172C53.256 49.1172 56.081 50.2873 58.2051 52.4126C60.3299 54.5362 61.5 57.3611 61.5 60.3672V61.9922Z" fill="#E3000F"/>
<path d="M15.518 12.1171L17.1341 10.5009C17.6222 10.0128 17.6222 9.22131 17.134 8.73319C16.6458 8.24519 15.8543 8.24519 15.3661 8.73319L13.7501 10.3492L12.134 8.73319C11.6458 8.24519 10.8543 8.24519 10.3661 8.73319C9.87797 9.22131 9.87797 10.0128 10.3661 10.5011L11.9822 12.1171L10.3661 13.7332C9.87797 14.2213 9.87797 15.0128 10.3661 15.5011C10.6102 15.7449 10.9302 15.8671 11.2501 15.8671C11.57 15.8671 11.89 15.7449 12.134 15.5009L13.7501 13.8849L15.3662 15.5011C15.6103 15.7451 15.9302 15.8672 16.2501 15.8672C16.57 15.8672 16.89 15.7451 17.134 15.5011C17.6221 15.0129 17.6221 14.2214 17.134 13.7332L15.518 12.1171Z" fill="#E3000F"/>
<path d="M23.75 0.492188H3.75C1.68225 0.492188 0 2.17444 0 4.24219V19.9922C0 22.0599 1.68225 23.7422 3.75 23.7422H10.4529L12.6166 28.3944C12.8216 28.8352 13.2638 29.1172 13.75 29.1172C14.2362 29.1172 14.6784 28.8352 14.8834 28.3944L17.0471 23.7422H23.75C25.8177 23.7422 27.5 22.0599 27.5 19.9922V4.24219C27.5 2.17444 25.8177 0.492188 23.75 0.492188ZM25 19.9922C25 20.6814 24.4393 21.2422 23.75 21.2422H16.25C15.7638 21.2422 15.3216 21.5242 15.1166 21.9649L13.75 24.9032L12.3834 21.9649C12.1784 21.5242 11.7362 21.2422 11.25 21.2422H3.75C3.06075 21.2422 2.5 20.6814 2.5 19.9922V4.24219C2.5 3.55294 3.06075 2.99219 3.75 2.99219H23.75C24.4393 2.99219 25 3.55294 25 4.24219V19.9922Z" fill="#E3000F"/>
<path d="M60.25 0.492188H40.25C38.1823 0.492188 36.5 2.17444 36.5 4.24219V19.9922C36.5 22.0599 38.1823 23.7422 40.25 23.7422H46.9529L49.1166 28.3944C49.3216 28.8352 49.7638 29.1172 50.25 29.1172C50.7362 29.1172 51.1784 28.8352 51.3834 28.3944L53.5471 23.7422H60.25C62.3177 23.7422 64 22.0599 64 19.9922V4.24219C64 2.17444 62.3177 0.492188 60.25 0.492188ZM61.5 19.9922C61.5 20.6814 60.9393 21.2422 60.25 21.2422H52.75C52.2638 21.2422 51.8216 21.5242 51.6166 21.9649L50.25 24.9032L48.8834 21.9649C48.6784 21.5242 48.2362 21.2422 47.75 21.2422H40.25C39.5608 21.2422 39 20.6814 39 19.9922V4.24219C39 3.55294 39.5608 2.99219 40.25 2.99219H60.25C60.9393 2.99219 61.5 3.55294 61.5 4.24219V19.9922Z" fill="#E3000F"/>
<path d="M56.1338 8.73317C55.6458 8.24517 54.8543 8.24517 54.3662 8.7333L50.2501 12.8493L48.634 11.2332C48.1458 10.7452 47.3543 10.7452 46.8661 11.2332C46.378 11.7213 46.378 12.5128 46.8661 13.001L49.3661 15.501C49.6102 15.745 49.9301 15.8672 50.25 15.8672C50.5698 15.8672 50.8898 15.745 51.1338 15.501L56.1338 10.501C56.622 10.0129 56.622 9.22142 56.1338 8.73317Z" fill="#E3000F"/>
</g>
<defs>
<clipPath id="clip0">
<rect width="64" height="64" fill="white" transform="translate(0 0.492188)"/>
</clipPath>
</defs>
</svg>
