<svg width="64" height="65" viewBox="0 0 64 65" fill="none" xmlns="http://www.w3.org/2000/svg">
<g clip-path="url(#clip0)">
<path d="M32 0.492188C14.3551 0.492188 0 14.8473 0 32.4922C0 50.1371 14.3551 64.4922 32 64.4922C49.6449 64.4922 64 50.1371 64 32.4922C64 14.8473 49.6449 0.492188 32 0.492188ZM32 61.9922C15.7336 61.9922 2.5 48.7586 2.5 32.4922C2.5 16.2258 15.7336 2.99219 32 2.99219C48.2664 2.99219 61.5 16.2258 61.5 32.4922C61.5 48.7586 48.2664 61.9922 32 61.9922Z" fill="#E3000F"/>
<path d="M32 7.49219C24.3533 7.49219 17.2282 10.9241 12.4519 16.9077C12.0212 17.4473 12.1095 18.2338 12.649 18.6644C13.1885 19.0951 13.975 19.0068 14.4058 18.4673C18.705 13.0813 25.1179 9.99219 32 9.99219C44.4065 9.99219 54.5 20.0857 54.5 32.4922C54.5 44.8987 44.4065 54.9922 32 54.9922C19.5935 54.9922 9.5 44.8987 9.5 32.4922C9.5 31.0004 9.64687 29.5088 9.93662 28.0587C10.0719 27.3817 9.63275 26.7233 8.95575 26.5881C8.2795 26.4527 7.62038 26.8919 7.48513 27.5689C7.16313 29.1799 7 30.8363 7 32.4922C7 46.2772 18.215 57.4922 32 57.4922C45.785 57.4922 57 46.2772 57 32.4922C57 18.7072 45.785 7.49219 32 7.49219Z" fill="#E3000F"/>
<path d="M19.0234 16.7227C18.3331 16.7227 17.7734 17.2823 17.7734 17.9727V26.7228C17.7734 28.7632 18.7564 30.5779 20.2734 31.7193V45.7617C20.2734 47.8294 21.9557 49.5117 24.0234 49.5117C26.0912 49.5117 27.7734 47.8294 27.7734 45.7617V31.7194C29.2904 30.578 30.2734 28.7632 30.2734 26.7228V17.9727C30.2734 17.2823 29.7138 16.7227 29.0234 16.7227C28.3331 16.7227 27.7734 17.2823 27.7734 17.9727V24.2229H25.2734V17.9727C25.2734 17.2823 24.7138 16.7227 24.0234 16.7227C23.3331 16.7227 22.7734 17.2823 22.7734 17.9727V24.2229H20.2734V17.9727C20.2734 17.2823 19.7138 16.7227 19.0234 16.7227ZM25.2734 45.7618C25.2734 46.451 24.7127 47.0118 24.0234 47.0118C23.3342 47.0118 22.7734 46.451 22.7734 45.7618V32.847C23.1774 32.9294 23.5954 32.9728 24.0234 32.9728C24.4514 32.9728 24.8694 32.9294 25.2734 32.847V45.7618ZM24.0234 30.4728C21.9557 30.4728 20.2736 28.7905 20.2734 26.7229L27.7734 26.7228C27.7734 28.7905 26.0912 30.4728 24.0234 30.4728Z" fill="#E3000F"/>
<path d="M39.8672 49.5118C41.9349 49.5118 43.6172 47.8295 43.6172 45.7618V30.7828C45.5542 29.6718 46.7422 27.6533 46.7422 25.143C46.7422 23.173 46.0582 20.8724 44.9127 18.989C43.5336 16.7217 41.7417 15.4729 39.8672 15.4729C37.9927 15.4729 36.2008 16.7217 34.8217 18.989C33.6761 20.8725 32.9922 23.1731 32.9922 25.143C32.9922 27.6534 34.1802 29.6719 36.1172 30.7828V45.7619C36.1172 47.8296 37.7994 49.5118 39.8672 49.5118ZM41.1172 45.7619C41.1172 46.4511 40.5564 47.0119 39.8672 47.0119C39.1779 47.0119 38.6172 46.4511 38.6172 45.7619V31.6306C39.0191 31.6903 39.4357 31.7229 39.8672 31.7229C40.2987 31.7229 40.7153 31.6904 41.1172 31.6306V45.7619ZM39.8672 17.9728C40.8213 17.9728 41.8818 18.8166 42.7767 20.288C43.6807 21.7741 44.2422 23.6345 44.2422 25.1429C44.2422 28.151 41.9822 29.2228 39.8672 29.2228C37.7522 29.2228 35.4922 28.151 35.4922 25.1429C35.4922 22.1444 37.6968 17.9728 39.8672 17.9728Z" fill="#E3000F"/>
<path d="M10.4622 23.7175H10.463C11.1534 23.7175 11.7127 23.1579 11.7127 22.4675C11.7127 21.7772 11.1525 21.2175 10.4622 21.2175C9.77178 21.2175 9.21216 21.7772 9.21216 22.4675C9.21216 23.1579 9.77178 23.7175 10.4622 23.7175Z" fill="#E3000F"/>
</g>
<defs>
<clipPath id="clip0">
<rect width="64" height="64" fill="white" transform="translate(0 0.492188)"/>
</clipPath>
</defs>
</svg>
