<svg width="64" height="65" viewBox="0 0 64 65" fill="none" xmlns="http://www.w3.org/2000/svg">
<g clip-path="url(#clip0)">
<path d="M32 31.2422C31.31 31.2422 30.75 31.8022 30.75 32.4922C30.75 33.1822 31.31 33.7422 32 33.7422C32.69 33.7422 33.25 33.1822 33.25 32.4922C33.25 31.8022 32.69 31.2422 32 31.2422Z" fill="#E3000F"/>
<path d="M32 21.2417C31.31 21.2417 30.75 21.8017 30.75 22.4917C30.75 23.1817 31.31 23.7417 32 23.7417C32.69 23.7417 33.25 23.1817 33.25 22.4917C33.25 21.8017 32.69 21.2417 32 21.2417Z" fill="#E3000F"/>
<path d="M32 41.2422C31.31 41.2422 30.75 41.8022 30.75 42.4922C30.75 43.1822 31.31 43.7422 32 43.7422C32.69 43.7422 33.25 43.1822 33.25 42.4922C33.25 41.8022 32.69 41.2422 32 41.2422Z" fill="#E3000F"/>
<path d="M32 51.6172C31.31 51.6172 30.75 52.1772 30.75 52.8672C30.75 53.5572 31.31 54.1172 32 54.1172C32.69 54.1172 33.25 53.5572 33.25 52.8672C33.25 52.1772 32.69 51.6172 32 51.6172Z" fill="#E3000F"/>
<path d="M55.7477 12.0739C55.747 12.0509 55.7464 12.0279 55.7443 12.0051C55.7425 11.9851 55.7395 11.9656 55.7369 11.9458C55.734 11.9252 55.7314 11.9047 55.7275 11.8842C55.7236 11.8634 55.7186 11.8433 55.7137 11.8229C55.7091 11.8037 55.7045 11.7846 55.699 11.7656C55.6931 11.7454 55.6862 11.7258 55.6795 11.7061C55.673 11.6872 55.6664 11.6683 55.6589 11.6497C55.6512 11.6308 55.6429 11.6126 55.6344 11.5942C55.6258 11.5754 55.6171 11.5568 55.6075 11.5384C55.5982 11.5207 55.5881 11.5036 55.578 11.4864C55.5675 11.4686 55.5571 11.4506 55.5456 11.4331C55.5342 11.4157 55.5219 11.3989 55.5096 11.3822C55.4979 11.3661 55.4864 11.3499 55.4739 11.3343C55.4595 11.3164 55.4441 11.2997 55.4289 11.2827C55.4191 11.2718 55.4104 11.2603 55.4002 11.2497L45.4002 0.874687C45.3975 0.871812 45.3945 0.869563 45.3918 0.866688C45.3754 0.850063 45.358 0.834563 45.3409 0.818938C45.3274 0.806563 45.3141 0.793687 45.3003 0.782063C45.2846 0.768937 45.2679 0.757187 45.2515 0.744812C45.235 0.732312 45.2189 0.719187 45.2019 0.707687C45.1874 0.697812 45.1719 0.689313 45.157 0.680063C45.1375 0.667938 45.1181 0.655188 45.0981 0.644313C45.0816 0.635312 45.0644 0.627937 45.0475 0.619687C45.0283 0.610312 45.0091 0.600063 44.9895 0.591688C44.9676 0.582438 44.9449 0.574938 44.9224 0.566813C44.907 0.561312 44.8919 0.554812 44.8763 0.549938C44.8535 0.542813 44.83 0.537437 44.8066 0.531562C44.7905 0.527562 44.7746 0.522563 44.7584 0.519188C44.738 0.514938 44.7171 0.512313 44.6965 0.509063C44.6765 0.505938 44.6566 0.502062 44.6365 0.499937C44.6185 0.497937 44.6001 0.497562 44.5819 0.496312C44.5585 0.494812 44.5351 0.492938 44.5116 0.492812C44.5075 0.492687 44.5039 0.492188 44.5 0.492188H12C9.93225 0.492188 8.25 2.17444 8.25 4.24219V60.7422C8.25 62.8099 9.93225 64.4922 12 64.4922H52C54.0677 64.4922 55.75 62.8099 55.75 60.7422V12.1172C55.75 12.1026 55.7484 12.0884 55.7477 12.0739ZM45.75 4.84031L51.559 10.8672H47C46.3107 10.8672 45.75 10.3064 45.75 9.61719V4.84031ZM53.25 60.7422C53.25 61.4314 52.6893 61.9922 52 61.9922H12C11.3108 61.9922 10.75 61.4314 10.75 60.7422V4.24219C10.75 3.55294 11.3108 2.99219 12 2.99219H43.25V9.61719C43.25 11.6849 44.9323 13.3672 47 13.3672H53.25V60.7422Z" fill="#E3000F"/>
<path d="M25.384 29.1083C24.8957 28.6201 24.1045 28.6201 23.6162 29.1084L19.5001 33.2245L17.884 31.6084C17.3957 31.1203 16.6045 31.1203 16.1161 31.6084C15.628 32.0965 15.628 32.888 16.1161 33.3763L18.6161 35.8763C18.8603 36.1203 19.1801 36.2423 19.5001 36.2423C19.8201 36.2423 20.1398 36.1203 20.384 35.8761L25.384 30.8761C25.8721 30.388 25.8721 29.5965 25.384 29.1083Z" fill="#E3000F"/>
<path d="M25.384 19.1078C24.8957 18.6197 24.1045 18.6197 23.6162 19.1079L19.5001 23.224L17.884 21.6079C17.3957 21.1198 16.6045 21.1198 16.1161 21.6079C15.628 22.096 15.628 22.8875 16.1161 23.3758L18.6161 25.8758C18.8603 26.1198 19.1801 26.2418 19.5001 26.2418C19.8201 26.2418 20.1398 26.1198 20.384 25.8756L25.384 20.8756C25.8721 20.3875 25.8721 19.596 25.384 19.1078Z" fill="#E3000F"/>
<path d="M47 31.2422H37C36.3098 31.2422 35.75 31.8018 35.75 32.4922C35.75 33.1826 36.3098 33.7422 37 33.7422H47C47.6903 33.7422 48.25 33.1826 48.25 32.4922C48.25 31.8018 47.6903 31.2422 47 31.2422Z" fill="#E3000F"/>
<path d="M47 21.2417H37C36.3098 21.2417 35.75 21.8013 35.75 22.4917C35.75 23.1821 36.3098 23.7417 37 23.7417H47C47.6903 23.7417 48.25 23.1821 48.25 22.4917C48.25 21.8013 47.6903 21.2417 47 21.2417Z" fill="#E3000F"/>
<path d="M25.384 39.1083C24.8957 38.6201 24.1045 38.6201 23.6162 39.1084L19.5001 43.2245L17.884 41.6084C17.3957 41.1203 16.6045 41.1203 16.1161 41.6084C15.628 42.0965 15.628 42.888 16.1161 43.3763L18.6161 45.8763C18.8603 46.1203 19.1801 46.2423 19.5001 46.2423C19.8201 46.2423 20.1398 46.1203 20.384 45.8761L25.384 40.8761C25.8721 40.388 25.8721 39.5965 25.384 39.1083Z" fill="#E3000F"/>
<path d="M47 41.2422H37C36.3098 41.2422 35.75 41.8018 35.75 42.4922C35.75 43.1826 36.3098 43.7422 37 43.7422H47C47.6903 43.7422 48.25 43.1826 48.25 42.4922C48.25 41.8018 47.6903 41.2422 47 41.2422Z" fill="#E3000F"/>
<path d="M25.384 49.4833C24.8957 48.9951 24.1045 48.9951 23.6162 49.4834L19.5001 53.5995L17.884 51.9834C17.3957 51.4953 16.6045 51.4953 16.1161 51.9834C15.628 52.4715 15.628 53.263 16.1161 53.7513L18.6161 56.2513C18.8603 56.4953 19.1801 56.6173 19.5001 56.6173C19.8201 56.6173 20.1398 56.4953 20.384 56.2511L25.384 51.2511C25.8721 50.763 25.8721 49.9715 25.384 49.4833Z" fill="#E3000F"/>
<path d="M47 51.6172H37C36.3098 51.6172 35.75 52.1768 35.75 52.8672C35.75 53.5576 36.3098 54.1172 37 54.1172H47C47.6903 54.1172 48.25 53.5576 48.25 52.8672C48.25 52.1768 47.6903 51.6172 47 51.6172Z" fill="#E3000F"/>
</g>
<defs>
<clipPath id="clip0">
<rect width="64" height="64" fill="white" transform="translate(0 0.492188)"/>
</clipPath>
</defs>
</svg>
