<svg width="64" height="65" viewBox="0 0 64 65" fill="none" xmlns="http://www.w3.org/2000/svg">
<g clip-path="url(#clip0)">
<path d="M50.6807 51.5165C50.1363 51.1003 49.3581 51.2047 48.9422 51.7488C48.5262 52.293 48.6303 53.0714 49.1745 53.4874L51.2939 55.1072C51.518 55.2785 51.7829 55.3621 52.0464 55.3621C52.3856 55.3621 52.7225 55.2234 52.9662 54.9544L57.0173 50.4814C57.477 49.9737 57.4383 49.1894 56.9306 48.7296C56.4229 48.2699 55.6385 48.3087 55.1787 48.8163L51.8937 52.4437L50.6807 51.5165Z" fill="#E3000F"/>
<path d="M63.849 44.8962C63.8348 44.2638 63.3471 43.7437 62.7172 43.6886C59.7668 43.4307 56.1362 41.4489 53.4673 38.6399C53.2332 38.3936 52.9084 38.2541 52.5685 38.2539C52.5684 38.2539 52.5683 38.2539 52.5682 38.2539C52.2286 38.2539 51.9038 38.3932 51.6696 38.6393C50.4717 39.8985 49.0812 40.9907 47.6462 41.8367C45.1283 39.0259 42.0293 36.9549 38.397 35.6513C38.3654 35.6386 38.3334 35.6272 38.3007 35.617C38.0178 35.5168 37.7315 35.4212 37.4422 35.3301C40.514 32.2665 42.5802 28.2405 42.5802 24.6289V22.6804C44.0322 22.0481 45.0506 20.5988 45.0506 18.9154C45.0506 17.1668 43.95 15.6713 42.4056 15.0828C41.7681 8.89394 37.4078 3.69146 31.4184 1.97028C31.2415 1.1273 30.4925 0.492188 29.5978 0.492188H25.1036C24.2407 0.492188 23.5153 1.08352 23.3059 1.88186C20.3598 2.66754 17.6687 4.34456 15.6511 6.67618C13.6033 9.04277 12.3298 11.9982 12.0064 15.0834C10.4612 15.6722 9.36024 17.1675 9.36024 18.9155C9.36024 20.5995 10.3801 22.0492 11.8341 22.6811V24.629C11.8341 28.2373 13.9007 32.2648 16.9723 35.3305C16.6914 35.4188 16.4132 35.5112 16.1383 35.6082C16.0842 35.6236 16.0316 35.6425 15.9804 35.665C11.915 37.1315 8.52086 39.5592 5.86281 42.9116C3.30647 46.1359 1.48918 50.1176 0.461528 54.7471C0.0957872 56.4016 -0.179294 58.4807 0.948811 59.8854C2.05075 61.2574 4.02245 61.4333 5.61725 61.4333H13.7302C14.4151 61.4333 14.9704 60.8779 14.9704 60.1931C14.9704 59.5082 14.4151 58.9529 13.7302 58.9529H5.61725C4.13357 58.9529 3.21358 58.744 2.88281 58.3321C2.53245 57.8958 2.5327 56.8698 2.88318 55.2835C4.17215 49.4778 7.3238 42.3732 14.9173 38.7861C14.6838 42.976 16.954 45.7146 18.397 47.4528C18.6179 47.7189 18.9398 47.8807 19.2852 47.8991C19.6304 47.9182 19.968 47.791 20.2159 47.5499L27.2055 40.7525L34.1985 47.5501C34.4306 47.7756 34.7409 47.901 35.063 47.901C35.0852 47.901 35.1074 47.9004 35.1298 47.8991C35.4752 47.8805 35.7973 47.7184 36.018 47.4519C37.4591 45.7123 39.7259 42.972 39.4945 38.791C41.6975 39.836 43.6439 41.2336 45.3177 42.9746C44.3182 43.3614 43.3355 43.6086 42.4191 43.6887C41.7895 43.7437 41.302 44.2634 41.2873 44.8953C41.1834 49.3295 41.9225 52.5063 43.922 56.2246C43.9388 56.2561 44.6145 57.4673 45.6673 58.9531H24.9583C24.2733 58.9531 23.718 59.5085 23.718 60.1933C23.718 60.8782 24.2733 61.4335 24.9583 61.4335H47.6371C49.1323 63.086 50.8957 64.4924 52.5681 64.4924C56.6027 64.4924 61.1697 56.3073 61.2136 56.2255C63.2099 52.5066 63.9487 49.3302 63.849 44.8962ZM39.874 14.815H33.0456C31.7555 11.445 31.5115 8.66599 31.4677 4.58653C35.941 6.16868 39.193 10.1158 39.874 14.815ZM25.7231 2.97263H28.9782C28.986 7.77328 29.1077 11.0246 30.4073 14.815H24.2965C25.5939 11.0245 25.7154 7.77278 25.7231 2.97263ZM23.2348 4.48868C23.1939 8.62184 22.9568 11.4179 21.6588 14.8151H14.5396C15.2471 10.0548 18.6691 6.00063 23.2348 4.48868ZM13.4643 17.2954H21.7611C21.8341 17.3547 21.9048 17.3623 21.9641 17.2954H40.95C41.8434 17.2954 42.5701 18.0221 42.5701 18.9155C42.5701 19.8109 41.8435 20.5392 40.95 20.5392H13.4643C12.5691 20.5392 11.8407 19.8109 11.8407 18.9155C11.8407 18.0222 12.5689 17.2954 13.4643 17.2954ZM14.3145 24.629V23.0196H40.0996V24.629C40.0996 29.3575 35.5187 35.2055 30.2964 37.1441C28.0113 37.9932 26.389 37.9925 24.0985 37.1413C18.8865 35.1948 14.3145 29.3478 14.3145 24.629ZM19.4617 44.8233C18.1781 43.1475 16.9421 40.9473 17.5361 37.7536C18.0832 37.577 18.6485 37.4159 19.2346 37.2734C20.4853 38.1909 21.8341 38.9435 23.2325 39.4658C23.6826 39.6329 24.1156 39.7707 24.5393 39.8853L19.4617 44.8233ZM34.9513 44.8225L29.8706 39.8838C30.2888 39.7704 30.7162 39.6343 31.16 39.4694C32.5653 38.9477 33.9207 38.1937 35.1772 37.2732C35.7561 37.4141 36.3223 37.5737 36.8747 37.7525C37.4701 40.9417 36.2346 43.1441 34.9513 44.8225ZM59.0277 55.053C57.5611 57.7903 54.1263 62.0117 52.5681 62.0117C51.0098 62.0117 47.575 57.7903 46.1075 55.0512C44.4685 52.0038 43.796 49.4624 43.7595 46.0022C45.0975 45.7476 46.4903 45.2483 47.8601 44.551C47.9082 44.5301 47.955 44.5054 48.0011 44.4779C49.6004 43.6465 51.1646 42.5463 52.5676 41.2388C55.209 43.7031 58.4248 45.441 61.3756 46.0023C61.3365 49.4631 60.6641 52.0049 59.0277 55.053Z" fill="#E3000F"/>
<path d="M19.3442 58.9529C18.6593 58.9529 18.104 59.5083 18.104 60.1931C18.104 60.878 18.6593 61.4333 19.3442 61.4333H19.3513C20.0363 61.4333 20.5879 60.878 20.5879 60.1931C20.5879 59.5083 20.0292 58.9529 19.3442 58.9529Z" fill="#E3000F"/>
</g>
<defs>
<clipPath id="clip0">
<rect width="64" height="64" fill="white" transform="translate(0 0.492188)"/>
</clipPath>
</defs>
</svg>
