<svg width="13" height="13" viewBox="0 0 13 13" fill="none" xmlns="http://www.w3.org/2000/svg">
<path d="M11.2481 8.86674C10.5134 8.86674 9.792 8.75183 9.10841 8.52592C8.77344 8.41167 8.36166 8.51649 8.15722 8.72646L6.80794 9.74502C5.24316 8.90974 4.27928 7.94617 3.45541 6.39314L4.444 5.07902C4.70084 4.82252 4.79297 4.44783 4.68259 4.09627C4.45572 3.40908 4.34047 2.68805 4.34047 1.95305C4.3405 1.42208 3.90853 0.990112 3.37759 0.990112H1.17384C0.642906 0.990112 0.210938 1.42208 0.210938 1.95302C0.210938 8.03896 5.16212 12.9901 11.2481 12.9901C11.779 12.9901 12.211 12.5581 12.211 12.0272V9.82961C12.2109 9.29871 11.779 8.86674 11.2481 8.86674Z" fill="#003E70"/>
</svg>
